RobotoFlex-opsz144-wght900-GRAD1.ufo
<glyph name="exclam" format="2">
	<unicode hex="0021"/>
	<advance width="696"/>
	<outline>
		<contour>
			<point x="40.6" y="251.1" type="qcurve" smooth="yes"/>
			<point x="40.6" y="362.7"/>
			<point x="198.3" y="524.1"/>
			<point x="344" y="524.1" type="qcurve" smooth="yes"/>
			<point x="494.6" y="524.1"/>
			<point x="655.4" y="362.7"/>
			<point x="655.4" y="251.1" type="qcurve" smooth="yes"/>
			<point x="655.4" y="139.4"/>
			<point x="497.6" y="-22"/>
			<point x="348" y="-22" type="qcurve" smooth="yes"/>
			<point x="198.3" y="-22"/>
			<point x="40.6" y="139.4"/>
		</contour>
		<contour>
			<point x="96.3" y="547.1" type="line"/>
			<point x="86.8" y="1456" type="line"/>
			<point x="609.2" y="1456" type="line"/>
			<point x="598.6" y="547.1" type="line"/>
		</contour>
	</outline>
</glyph>
<glyph name="numbersign" format="2">
	<unicode hex="0023"/>
	<advance width="1612"/>
	<outline>
		<contour>
			<point x="92" y="-20" type="line"/>
			<point x="496.7" y="1476.1" type="line"/>
			<point x="970.7" y="1476.1" type="line"/>
			<point x="567" y="-19.9" type="line"/>
		</contour>
		<contour>
			<point x="641" y="-20" type="line"/>
			<point x="1044.7" y="1476.1" type="line"/>
			<point x="1519.7" y="1476.1" type="line"/>
			<point x="1116" y="-20" type="line"/>
		</contour>
		<contour>
			<point x="12" y="300" type="line"/>
			<point x="12" y="646" type="line"/>
			<point x="1534" y="646" type="line"/>
			<point x="1534" y="300" type="line"/>
		</contour>
		<contour>
			<point x="77.7" y="810.4" type="line"/>
			<point x="77.7" y="1156.1" type="line"/>
			<point x="1599.7" y="1156.1" type="line"/>
			<point x="1599.7" y="810.4" type="line"/>
		</contour>
	</outline>
</glyph>
<glyph name="dollar" format="2">
  <advance width="1249"/>
  <unicode hex="0024"/>
  <outline>
    <contour>
      <point x="-4.0" y="387.0" type="qcurve" smooth="yes"/>
      <point x="-4.0" y="484.0" type="line"/>
      <point x="532" y="484.0" type="line"/>
      <point x="532" y="449" type="line" smooth="yes"/>
      <point x="531" y="400"/>
      <point x="577" y="353"/>
      <point x="618.0" y="353" type="qcurve" smooth="yes"/>
      <point x="649" y="353"/>
      <point x="688" y="381"/>
      <point x="688" y="411" type="qcurve" smooth="yes"/>
      <point x="688" y="441"/>
      <point x="644" y="473"/>
      <point x="479" y="526" type="qcurve" smooth="yes"/>
      <point x="242" y="602"/>
      <point x="3" y="804"/>
      <point x="3" y="1003" type="qcurve" smooth="yes"/>
      <point x="3" y="1231"/>
      <point x="338.0" y="1474.0"/>
      <point x="601.0" y="1474.0" type="qcurve" smooth="yes"/>
      <point x="867.0" y="1474.0"/>
      <point x="1205" y="1273.0"/>
      <point x="1205" y="1085.0" type="qcurve" smooth="yes"/>
      <point x="1205" y="1005.0" type="line"/>
      <point x="678" y="1005.0" type="line"/>
      <point x="678" y="1028.0" type="line" smooth="yes"/>
      <point x="678" y="1056"/>
      <point x="646" y="1087"/>
      <point x="615.0" y="1087" type="qcurve" smooth="yes"/>
      <point x="582" y="1087"/>
      <point x="558" y="1065.0"/>
      <point x="558" y="1048.0" type="qcurve" smooth="yes"/>
      <point x="558" y="1028.0"/>
      <point x="602" y="1008"/>
      <point x="800" y="954.0" type="qcurve" smooth="yes"/>
      <point x="1005" y="899"/>
      <point x="1241" y="687"/>
      <point x="1241" y="475" type="qcurve" smooth="yes"/>
      <point x="1241" y="237"/>
      <point x="897.0" y="-20.0"/>
      <point x="628.0" y="-20.0" type="qcurve" smooth="yes"/>
      <point x="359.0" y="-20.0"/>
      <point x="-4.0" y="186.0"/>
    </contour>
    <contour>
      <point x="385" y="-151.0" type="line"/>
      <point x="385" y="758.0" type="line"/>
      <point x="851" y="758.0" type="line"/>
      <point x="851" y="98" type="line"/>
      <point x="861" y="88" type="line"/>
      <point x="861" y="-151.0" type="line"/>
    </contour>
    <contour>
      <point x="395" y="758" type="line"/>
      <point x="395" y="1356.0" type="line"/>
      <point x="385" y="1366.0" type="line"/>
      <point x="385" y="1606.0" type="line"/>
      <point x="861" y="1606.0" type="line"/>
      <point x="861" y="758" type="line"/>
    </contour>
  </outline>
</glyph>
<glyph name="parenleft" format="2">
	<unicode hex="0028"/>
	<advance width="767"/>
	<outline>
		<contour>
			<point x="743" y="-436.2" type="line"/>
			<point x="430.4" y="-387"/>
			<point x="31.9" y="79.1"/>
			<point x="31.9" y="514" type="qcurve" smooth="yes"/>
			<point x="31.9" y="525" type="line" smooth="yes"/>
			<point x="31.9" y="956.4"/>
			<point x="427" y="1425.2"/>
			<point x="742.9" y="1476" type="qcurve"/>
			<point x="742.9" y="1136.2" type="line"/>
			<point x="653.6" y="1099.3"/>
			<point x="633.5" y="879.4"/>
			<point x="633.5" y="532" type="qcurve" smooth="yes"/>
			<point x="633.5" y="508" type="line" smooth="yes"/>
			<point x="633.5" y="159.2"/>
			<point x="651.9" y="-59"/>
			<point x="743" y="-96.2" type="qcurve"/>
		</contour>
	</outline>
</glyph>
<glyph name="parenright" format="2">
  <advance width="767"/>
  <unicode hex="0029"/>
  <outline>
    <contour>
      <point x="24.0" y="-436.0" type="qcurve"/>
      <point x="24.0" y="-96.19999999999999" type="line"/>
      <point x="113.9" y="-60.599999999999994"/>
      <point x="133.5" y="159.2"/>
      <point x="133.5" y="508.0" type="qcurve" smooth="yes"/>
      <point x="133.5" y="532.0" type="line" smooth="yes"/>
      <point x="133.5" y="879.4"/>
      <point x="113.30000000000001" y="1099.2"/>
      <point x="24.0" y="1136.1" type="qcurve"/>
      <point x="24.0" y="1476.0" type="line"/>
      <point x="335.6" y="1426.2"/>
      <point x="735.1" y="959.2"/>
      <point x="735.1" y="526.0" type="qcurve" smooth="yes"/>
      <point x="735.1" y="515.0" type="line" smooth="yes"/>
      <point x="735.1" y="80.1"/>
      <point x="337.1" y="-386.5"/>
    </contour>
  </outline>
</glyph>
<glyph name="asterisk" format="2">
  <advance width="1052"/>
  <unicode hex="002A"/>
  <outline>
    <contour>
      <point x="-14.000000000000004" y="925.9" type="line"/>
      <point x="117.8" y="1334.1" type="line"/>
      <point x="344.8" y="1226.3" type="line"/>
      <point x="313.1" y="1476.0" type="line"/>
      <point x="737.9" y="1476.0" type="line"/>
      <point x="708.2" y="1226.3" type="line"/>
      <point x="935.2" y="1335.1" type="line"/>
      <point x="1066.0" y="926.9" type="line"/>
      <point x="819.1" y="879.8" type="line"/>
      <point x="993.0" y="696.2" type="line"/>
      <point x="648.3" y="445.3" type="line"/>
      <point x="527.0" y="665.4" type="line"/>
      <point x="405.7" y="445.3" type="line"/>
      <point x="61.999999999999986" y="696.2" type="line"/>
      <point x="232.89999999999998" y="879.8" type="line"/>
    </contour>
  </outline>
</glyph>
<glyph name="plus" format="2">
  <advance width="1135"/>
  <unicode hex="002B"/>
  <outline>
    <contour>
      <point x="56.0" y="426.8666666666667" type="line"/>
      <point x="56.0" y="921.2666666666667" type="line"/>
      <point x="1079.0" y="921.2666666666667" type="line"/>
      <point x="1079.0" y="426.8666666666667" type="line"/>
    </contour>
    <contour>
      <point x="314.8666666666667" y="167.73333333333332" type="line"/>
      <point x="314.8666666666667" y="1180.2666666666667" type="line"/>
      <point x="821.0" y="1180.2666666666667" type="line"/>
      <point x="821.0" y="167.73333333333332" type="line"/>
    </contour>
  </outline>
</glyph>
<glyph name="comma" format="2">
  <advance width="682"/>
  <unicode hex="002C"/>
  <outline>
    <contour>
      <point x="27.0" y="-146.8" type="line"/>
      <point x="64.6" y="-89.0"/>
      <point x="97.0" y="40.1"/>
      <point x="97.0" y="102.4" type="qcurve" smooth="yes"/>
      <point x="97.0" y="503.4" type="line"/>
      <point x="608.9" y="503.4" type="line"/>
      <point x="608.9" y="106.4" type="line" smooth="yes"/>
      <point x="608.9" y="29.1"/>
      <point x="553.3" y="-141.6"/>
      <point x="504.9" y="-188.0" type="qcurve"/>
    </contour>
  </outline>
</glyph>
<glyph name="hyphen" format="2">
	<unicode hex="002D"/>
	<advance width="881"/>
	<outline>
		<contour>
			<point x="52" y="394.5" type="line"/>
			<point x="52" y="855.5" type="line"/>
			<point x="829" y="855.5" type="line"/>
			<point x="829" y="394.5" type="line"/>
		</contour>
	</outline>
</glyph>
<glyph name="slash" format="2">
	<unicode hex="002F"/>
	<advance width="932"/>
	<outline>
		<contour>
			<point x="-100" y="-125" type="line"/>
			<point x="475.2" y="1456" type="line"/>
			<point x="976" y="1456" type="line"/>
			<point x="399.8" y="-125" type="line"/>
		</contour>
	</outline>
</glyph>
<glyph name="zero" format="2">
	<unicode hex="0030"/>
	<advance width="1333"/>
	<outline>
		<contour>
			<point x="23.4" y="587" type="qcurve" smooth="yes"/>
			<point x="23.4" y="869" type="line" smooth="yes"/>
			<point x="23.4" y="1154.2"/>
			<point x="368.8" y="1476"/>
			<point x="665.9" y="1476" type="qcurve" smooth="yes"/>
			<point x="963.3" y="1476"/>
			<point x="1309.6" y="1164.2"/>
			<point x="1309.6" y="869" type="qcurve" smooth="yes"/>
			<point x="1309.6" y="587" type="line" smooth="yes"/>
			<point x="1309.6" y="281.8"/>
			<point x="936.3" y="-20"/>
			<point x="665.9" y="-20" type="qcurve" smooth="yes"/>
			<point x="364.8" y="-20"/>
			<point x="23.4" y="284.8"/>
		</contour>
		<contour>
			<point x="621.8" y="449" type="line" smooth="yes"/>
			<point x="621.8" y="408.9"/>
			<point x="643.5" y="365.9"/>
			<point x="666.1" y="365.9" type="qcurve" smooth="yes"/>
			<point x="688.7" y="365.9"/>
			<point x="710.4" y="408.9"/>
			<point x="710.4" y="449" type="qcurve" smooth="yes"/>
			<point x="710.4" y="992" type="line" smooth="yes"/>
			<point x="710.4" y="1036.1"/>
			<point x="688.7" y="1081.1"/>
			<point x="666.1" y="1081.1" type="qcurve" smooth="yes"/>
			<point x="643.5" y="1081.1"/>
			<point x="621.8" y="1036.1"/>
			<point x="621.8" y="992" type="qcurve" smooth="yes"/>
		</contour>
	</outline>
</glyph>
<glyph name="one" format="2">
	<unicode hex="0031"/>
	<advance width="1333"/>
	<outline>
		<contour>
			<point x="548.3" y="0" type="line"/>
			<point x="548.3" y="946.6" type="line"/>
			<point x="102" y="824.4" type="line"/>
			<point x="102" y="1302" type="line"/>
			<point x="641.2" y="1454" type="line"/>
			<point x="1151.8" y="1454" type="line"/>
			<point x="1151.8" y="0" type="line"/>
		</contour>
	</outline>
</glyph>
<glyph name="four" format="2">
  <advance width="1333"/>
  <unicode hex="0034"/>
  <outline>
    <contour>
      <point x="639.7333333333333" y="0.0" type="line"/>
      <point x="639.7333333333333" y="341.0" type="line"/>
      <point x="661.7333333333333" y="355.0" type="line"/>
      <point x="661.7333333333333" y="774.7333333333333" type="line"/>
      <point x="652.7333333333333" y="774.7333333333333" type="line"/>
      <point x="549.8666666666667" y="648.0" type="line"/>
      <point x="894.3333333333334" y="648.0" type="line"/>
      <point x="922.4" y="668.0" type="line"/>
      <point x="1320.1333333333332" y="668.0" type="line"/>
      <point x="1320.1333333333332" y="218.2" type="line"/>
      <point x="12.0" y="218.2" type="line"/>
      <point x="12.0" y="624.9333333333333" type="line"/>
      <point x="714.6" y="1456.0" type="line"/>
      <point x="1178.4" y="1456.0" type="line"/>
      <point x="1178.4" y="0.0" type="line"/>
    </contour>
  </outline>
</glyph>
<glyph name="six" format="2">
	<unicode hex="0036"/>
	<advance width="1333"/>
	<outline>
		<contour>
			<point x="22" y="581" type="qcurve" smooth="yes"/>
			<point x="22" y="706" type="line" smooth="yes"/>
			<point x="22" y="1060"/>
			<point x="526.5" y="1476"/>
			<point x="999.5" y="1476" type="qcurve" smooth="yes"/>
			<point x="1157.5" y="1476" type="line"/>
			<point x="1157.5" y="1001.1" type="line"/>
			<point x="1025.5" y="1001.1" type="line" smooth="yes"/>
			<point x="813.8" y="1001.1"/>
			<point x="619.4" y="854.4"/>
			<point x="619.4" y="548" type="qcurve" smooth="yes"/>
			<point x="619.4" y="528" type="line" smooth="yes"/>
			<point x="619.4" y="397.4"/>
			<point x="648.8" y="364.3"/>
			<point x="670.9" y="364.3" type="qcurve" smooth="yes"/>
			<point x="694" y="364.3"/>
			<point x="719.4" y="396.3"/>
			<point x="719.4" y="538.5" type="qcurve" smooth="yes"/>
			<point x="719.4" y="598.8"/>
			<point x="702" y="655.6"/>
			<point x="674.9" y="655.6" type="qcurve" smooth="yes"/>
			<point x="648.8" y="655.6"/>
			<point x="619.7" y="620.8"/>
			<point x="619.7" y="583.6" type="qcurve"/>
			<point x="571.3" y="584.6" type="line"/>
			<point x="571.3" y="771.8"/>
			<point x="790.2" y="954.9"/>
			<point x="930.7" y="954.9" type="qcurve" smooth="yes"/>
			<point x="1100.5" y="954.9"/>
			<point x="1319" y="738.8"/>
			<point x="1319" y="517.6" type="qcurve" smooth="yes"/>
			<point x="1319" y="261.3"/>
			<point x="939.9" y="-20"/>
			<point x="666.9" y="-20" type="qcurve" smooth="yes"/>
			<point x="365.1" y="-20"/>
			<point x="22" y="280"/>
		</contour>
	</outline>
</glyph>
<glyph name="seven" format="2">
	<unicode hex="0037"/>
	<advance width="1333"/>
	<outline>
		<contour>
			<point x="216.2" y="0" type="line"/>
			<point x="658.2" y="988.3" type="line"/>
			<point x="31.1" y="988.3" type="line"/>
			<point x="31.1" y="1456" type="line"/>
			<point x="1276.3" y="1456" type="line"/>
			<point x="1276.3" y="1025.2" type="line"/>
			<point x="852.1" y="0" type="line"/>
		</contour>
	</outline>
</glyph>
<glyph name="eight" format="2">
	<unicode hex="0038"/>
	<advance width="1333"/>
	<outline>
		<contour>
			<point x="12" y="417" type="qcurve" smooth="yes"/>
			<point x="12" y="554"/>
			<point x="162.4" y="737.8"/>
			<point x="243.1" y="762.7" type="qcurve"/>
			<point x="243.1" y="766.7" type="line"/>
			<point x="146.3" y="816.7"/>
			<point x="51.3" y="972"/>
			<point x="51.3" y="1074" type="qcurve" smooth="yes"/>
			<point x="51.3" y="1253"/>
			<point x="367" y="1476"/>
			<point x="666.8" y="1476" type="qcurve" smooth="yes"/>
			<point x="966.6" y="1476"/>
			<point x="1281.6" y="1252.8"/>
			<point x="1281.6" y="1074" type="qcurve" smooth="yes"/>
			<point x="1281.6" y="972"/>
			<point x="1185.5" y="804.7"/>
			<point x="1090.7" y="766.7" type="qcurve"/>
			<point x="1090.7" y="762.7" type="line"/>
			<point x="1172.3" y="738.9"/>
			<point x="1320.9" y="554"/>
			<point x="1320.9" y="417" type="qcurve" smooth="yes"/>
			<point x="1320.9" y="226"/>
			<point x="968.8" y="-20"/>
			<point x="666.8" y="-20" type="qcurve" smooth="yes"/>
			<point x="364.9" y="-20"/>
			<point x="12" y="226"/>
		</contour>
		<contour>
			<point x="619.7" y="483.1" type="qcurve" smooth="yes"/>
			<point x="619.7" y="395.2"/>
			<point x="640.8" y="354.7"/>
			<point x="665.8" y="354.7" type="qcurve" smooth="yes"/>
			<point x="690.9" y="354.7"/>
			<point x="712.2" y="395.2"/>
			<point x="712.2" y="483.1" type="qcurve" smooth="yes"/>
			<point x="712.2" y="572.3"/>
			<point x="692.9" y="611.1"/>
			<point x="666.8" y="611.1" type="qcurve" smooth="yes"/>
			<point x="640.8" y="611.1"/>
			<point x="619.7" y="572.3"/>
		</contour>
		<contour>
			<point x="619.7" y="981.9" type="qcurve" smooth="yes"/>
			<point x="619.7" y="913.6"/>
			<point x="640.8" y="872.9"/>
			<point x="665.8" y="872.9" type="qcurve" smooth="yes"/>
			<point x="690.9" y="872.9"/>
			<point x="712.2" y="913.6"/>
			<point x="712.2" y="981.9" type="qcurve" smooth="yes"/>
			<point x="712.2" y="1049.8"/>
			<point x="690.9" y="1092.3"/>
			<point x="665.8" y="1092.3" type="qcurve" smooth="yes"/>
			<point x="640.8" y="1092.3"/>
			<point x="619.7" y="1049.8"/>
		</contour>
	</outline>
</glyph>
<glyph name="nine" format="2">
  <advance width="1333"/>
  <unicode hex="0039"/>
  <outline>
    <contour>
      <point x="15.066666666666666" y="936.9333333333333" type="qcurve" smooth="yes"/>
      <point x="15.066666666666666" y="1193.4"/>
      <point x="394.1333333333333" y="1475.0"/>
      <point x="666.1333333333333" y="1475.0" type="qcurve" smooth="yes"/>
      <point x="967.0" y="1475.0"/>
      <point x="1310.0666666666666" y="1175.0"/>
      <point x="1310.0666666666666" y="874.0" type="qcurve" smooth="yes"/>
      <point x="1310.0666666666666" y="749.0" type="line" smooth="yes"/>
      <point x="1310.0666666666666" y="395.0"/>
      <point x="806.4" y="-21.0"/>
      <point x="335.4" y="-21.0" type="qcurve" smooth="yes"/>
      <point x="177.4" y="-21.0" type="line"/>
      <point x="177.4" y="438.6" type="line"/>
      <point x="309.4" y="438.6" type="line" smooth="yes"/>
      <point x="520.2" y="436.6"/>
      <point x="715.2" y="586.4"/>
      <point x="715.2" y="894.0" type="qcurve" smooth="yes"/>
      <point x="715.2" y="927.0" type="line" smooth="yes"/>
      <point x="715.2" y="1048.7333333333333"/>
      <point x="684.5333333333333" y="1082.8"/>
      <point x="662.1333333333333" y="1082.8" type="qcurve" smooth="yes"/>
      <point x="638.7333333333333" y="1082.8"/>
      <point x="612.4666666666667" y="1049.4666666666667"/>
      <point x="612.4666666666667" y="916.0" type="qcurve" smooth="yes"/>
      <point x="612.4666666666667" y="841.4666666666667"/>
      <point x="630.7333333333333" y="783.6"/>
      <point x="658.1333333333333" y="783.6" type="qcurve" smooth="yes"/>
      <point x="684.2" y="783.6"/>
      <point x="714.8" y="819.4666666666667"/>
      <point x="714.8" y="857.9333333333333" type="qcurve"/>
      <point x="762.2" y="856.9333333333333" type="line"/>
      <point x="762.2" y="669.5333333333333"/>
      <point x="542.6" y="486.6666666666667"/>
      <point x="402.6" y="486.6666666666667" type="qcurve" smooth="yes"/>
      <point x="233.33333333333334" y="486.6666666666667"/>
      <point x="15.066666666666666" y="715.5333333333333"/>
    </contour>
  </outline>
</glyph>
<glyph name="semicolon" format="2">
  <advance width="627"/>
  <unicode hex="003B"/>
  <outline>
    <contour>
      <point x="26.700000000000003" y="-148.8" type="line"/>
      <point x="62.30000000000001" y="-93.0"/>
      <point x="93.69999999999999" y="31.1"/>
      <point x="93.69999999999999" y="90.4" type="qcurve" smooth="yes"/>
      <point x="93.69999999999999" y="473.2" type="line"/>
      <point x="583.9" y="473.2" type="line"/>
      <point x="583.9" y="94.4" type="line" smooth="yes"/>
      <point x="583.9" y="20.1"/>
      <point x="530.8" y="-143.8"/>
      <point x="484.6" y="-188.0" type="qcurve"/>
    </contour>
    <contour>
      <point x="34.400000000000006" y="814.7" type="qcurve" smooth="yes"/>
      <point x="34.400000000000006" y="922.4"/>
      <point x="179.1" y="1068.8"/>
      <point x="312.8" y="1068.8" type="qcurve" smooth="yes"/>
      <point x="447.4" y="1068.8"/>
      <point x="592.2" y="922.4"/>
      <point x="592.2" y="814.7" type="qcurve" smooth="yes"/>
      <point x="592.2" y="704.1"/>
      <point x="447.4" y="557.7"/>
      <point x="312.8" y="557.7" type="qcurve" smooth="yes"/>
      <point x="179.1" y="557.7"/>
      <point x="34.400000000000006" y="707.1"/>
    </contour>
  </outline>
</glyph>
<glyph name="less" format="2">
  <advance width="925"/>
  <unicode hex="003C"/>
  <outline>
    <contour>
      <point x="883.0" y="25.400000000000006" type="line"/>
      <point x="32.0" y="436.73333333333335" type="line"/>
      <point x="32.0" y="911.5333333333333" type="line"/>
      <point x="883.0" y="1332.8666666666666" type="line"/>
      <point x="883.0" y="818.7333333333333" type="line"/>
      <point x="488.8666666666667" y="673.8" type="line"/>
      <point x="883.0" y="538.8666666666667" type="line"/>
    </contour>
  </outline>
</glyph>
<glyph name="greater" format="2">
  <advance width="925"/>
  <unicode hex="003E"/>
  <outline>
    <contour>
      <point x="42.0" y="25.400000000000006" type="line"/>
      <point x="42.0" y="539.5333333333333" type="line"/>
      <point x="436.1333333333333" y="684.4666666666667" type="line"/>
      <point x="42.0" y="819.4" type="line"/>
      <point x="42.0" y="1332.8666666666666" type="line"/>
      <point x="893.0" y="921.5333333333333" type="line"/>
      <point x="893.0" y="446.73333333333335" type="line"/>
    </contour>
  </outline>
</glyph>
<glyph name="at" format="2">
	<unicode hex="0040"/>
	<advance width="2145"/>
	<outline>
		<contour>
			<point x="563.7" y="400" type="qcurve" smooth="yes"/>
			<point x="563.7" y="705"/>
			<point x="904.6" y="1052"/>
			<point x="1129.6" y="1052" type="qcurve" smooth="yes"/>
			<point x="1210.6" y="1052"/>
			<point x="1352" y="1003"/>
			<point x="1393.4" y="946" type="qcurve"/>
			<point x="1704.8" y="946" type="line"/>
			<point x="1601.1" y="350" type="line" smooth="yes"/>
			<point x="1594.7" y="310.1"/>
			<point x="1599.8" y="279.6"/>
			<point x="1627" y="278.6" type="qcurve" smooth="yes"/>
			<point x="1676.4" y="277.6"/>
			<point x="1740.2" y="436.6"/>
			<point x="1740.2" y="599" type="qcurve" smooth="yes"/>
			<point x="1740.2" y="837.0289617486"/>
			<point x="1425" y="1123.3"/>
			<point x="1139.6" y="1123.3" type="qcurve" smooth="yes"/>
			<point x="861.3" y="1123.3"/>
			<point x="493" y="732.9336941813"/>
			<point x="493" y="409" type="qcurve" smooth="yes"/>
			<point x="493" y="175.1732394366"/>
			<point x="739" y="-65.3"/>
			<point x="973.7" y="-65.3" type="qcurve" smooth="yes"/>
			<point x="1094.2" y="-65.3"/>
			<point x="1264.1" y="-20.3"/>
			<point x="1319.4" y="14.7" type="qcurve"/>
			<point x="1319.4" y="-366" type="line"/>
			<point x="1260.3189373306" y="-408.4252702815"/>
			<point x="1094.2" y="-446"/>
			<point x="973.7" y="-446" type="qcurve" smooth="yes"/>
			<point x="578.4" y="-446"/>
			<point x="2" y="40"/>
			<point x="2" y="460" type="qcurve" smooth="yes"/>
			<point x="2" y="880"/>
			<point x="676.7" y="1486"/>
			<point x="1139.6" y="1486" type="qcurve" smooth="yes"/>
			<point x="1584" y="1486"/>
			<point x="2149.4" y="1000"/>
			<point x="2149.4" y="650" type="qcurve" smooth="yes"/>
			<point x="2149.4" y="360"/>
			<point x="1832.7305647841" y="0"/>
			<point x="1564.8" y="0" type="qcurve" smooth="yes"/>
			<point x="1405.6" y="0"/>
			<point x="1224.8" y="95.9"/>
			<point x="1188.2" y="180" type="qcurve"/>
			<point x="1143.7" y="97.8"/>
			<point x="1003.2" y="0"/>
			<point x="924.6" y="0" type="qcurve" smooth="yes"/>
			<point x="759.7" y="0"/>
			<point x="563.7" y="220"/>
		</contour>
		<contour>
			<point x="1065" y="427" type="qcurve" smooth="yes"/>
			<point x="1065" y="367.8"/>
			<point x="1082.5" y="332.6"/>
			<point x="1099" y="332.6" type="qcurve" smooth="yes"/>
			<point x="1121.4" y="332.6"/>
			<point x="1149.5" y="369.2"/>
			<point x="1157.1" y="417.8" type="qcurve" smooth="yes"/>
			<point x="1205.9" y="737.5" type="line"/>
			<point x="1194.2" y="747.5"/>
			<point x="1174.1" y="755.5"/>
			<point x="1162.5" y="755.5" type="qcurve" smooth="yes"/>
			<point x="1125.9" y="755.5"/>
			<point x="1065" y="553.1"/>
		</contour>
	</outline>
</glyph>
<glyph name="A" format="2">
  <advance width="1520"/>
  <unicode hex="0041"/>
  <anchor x="749.0" y="1432.0" name="top"/>
  <outline>
    <contour>
      <point x="-23.299999999999997" y="0.0" type="line"/>
      <point x="445.6" y="1456.0" type="line"/>
      <point x="1095.6" y="1456.0" type="line"/>
      <point x="1544.7" y="0.0" type="line"/>
      <point x="954.0" y="0.0" type="line"/>
      <point x="772.5" y="715.1999999999999" type="line" smooth="yes"/>
      <point x="761.5" y="756.1999999999999"/>
      <point x="748.6" y="817.2"/>
      <point x="747.7" y="822.2" type="qcurve"/>
      <point x="745.7" y="822.2" type="line"/>
      <point x="744.8" y="817.2"/>
      <point x="730.9" y="757.2000000000002"/>
      <point x="721.9" y="716.1999999999999" type="qcurve" smooth="yes"/>
      <point x="560.6" y="0.0" type="line"/>
    </contour>
    <contour>
      <point x="427.9" y="152.89999999999998" type="line"/>
      <point x="456.1" y="531.2" type="line"/>
      <point x="1052.3" y="531.2" type="line"/>
      <point x="1081.6" y="152.89999999999998" type="line"/>
    </contour>
  </outline>
</glyph>
<glyph name="B" format="2">
	<unicode hex="0042"/>
	<advance width="1373"/>
	<outline>
		<contour>
			<point x="38.6" y="0" type="line"/>
			<point x="38.6" y="1456" type="line"/>
			<point x="852.2" y="1456" type="line" smooth="yes"/>
			<point x="1103.7" y="1456"/>
			<point x="1304.2" y="1246"/>
			<point x="1304.2" y="1086" type="qcurve" smooth="yes"/>
			<point x="1304.2" y="963"/>
			<point x="1198.9" y="802.6"/>
			<point x="1105.9" y="767" type="qcurve"/>
			<point x="1105.9" y="763" type="line"/>
			<point x="1217.8" y="737.3"/>
			<point x="1374.2" y="577"/>
			<point x="1374.2" y="414" type="qcurve" smooth="yes"/>
			<point x="1374.2" y="222"/>
			<point x="1105.7" y="0"/>
			<point x="864.2" y="0" type="qcurve" smooth="yes"/>
		</contour>
		<contour>
			<point x="624.9" y="374.2" type="line"/>
			<point x="677.2" y="374.2" type="line" smooth="yes"/>
			<point x="716.5" y="374.2"/>
			<point x="759" y="434"/>
			<point x="759" y="479.4" type="qcurve" smooth="yes"/>
			<point x="759" y="523.6"/>
			<point x="716.5" y="582.6"/>
			<point x="677.2" y="582.6" type="qcurve" smooth="yes"/>
			<point x="624.9" y="582.6" type="line"/>
		</contour>
		<contour>
			<point x="624.9" y="854.4" type="line"/>
			<point x="673.2" y="854.4" type="line" smooth="yes"/>
			<point x="705.5" y="854.4"/>
			<point x="736" y="909.2"/>
			<point x="736" y="957.4" type="qcurve" smooth="yes"/>
			<point x="736" y="1005.6"/>
			<point x="705.5" y="1059.8"/>
			<point x="673.2" y="1059.8" type="qcurve" smooth="yes"/>
			<point x="624.9" y="1059.8" type="line"/>
		</contour>
	</outline>
</glyph>
<glyph name="E" format="2">
  <advance width="1226"/>
  <unicode hex="0045"/>
  <outline>
    <contour>
      <point x="38.93333333333334" y="0.0" type="line"/>
      <point x="38.93333333333334" y="1456.0" type="line"/>
      <point x="1185.9333333333334" y="1456.0" type="line"/>
      <point x="1185.9333333333334" y="985.8" type="line"/>
      <point x="613.0666666666666" y="985.8" type="line"/>
      <point x="613.0666666666666" y="924.1333333333333" type="line"/>
      <point x="1107.9333333333334" y="924.1333333333333" type="line"/>
      <point x="1107.9333333333334" y="523.8666666666667" type="line"/>
      <point x="613.0666666666666" y="523.8666666666667" type="line"/>
      <point x="613.0666666666666" y="450.2" type="line"/>
      <point x="1205.9333333333334" y="450.2" type="line"/>
      <point x="1205.9333333333334" y="0.0" type="line"/>
    </contour>
  </outline>
</glyph>
<glyph name="F" format="2">
	<unicode hex="0046"/>
	<advance width="1113"/>
	<outline>
		<contour>
			<point x="38.6" y="0" type="line"/>
			<point x="38.6" y="1456" type="line"/>
			<point x="1103.3" y="1456" type="line"/>
			<point x="1103.3" y="984.7" type="line"/>
			<point x="644.8" y="984.7" type="line"/>
			<point x="644.8" y="901" type="line"/>
			<point x="1039.6" y="901" type="line"/>
			<point x="1039.6" y="478.7" type="line"/>
			<point x="644.8" y="478.7" type="line"/>
			<point x="644.8" y="0" type="line"/>
		</contour>
	</outline>
</glyph>
<glyph name="G" format="2">
  <advance width="1356"/>
  <unicode hex="0047"/>
  <outline>
    <contour>
      <point x="22.0" y="689.0" type="qcurve" smooth="yes"/>
      <point x="22.0" y="767.0" type="line" smooth="yes"/>
      <point x="22.0" y="1125.0"/>
      <point x="413.4" y="1476.0"/>
      <point x="735.3" y="1476.0" type="qcurve" smooth="yes"/>
      <point x="1024.9" y="1476.0"/>
      <point x="1329.9" y="1211.0"/>
      <point x="1329.3" y="991.3" type="qcurve" smooth="yes"/>
      <point x="1329.2" y="924.3" type="line"/>
      <point x="768.7" y="924.3" type="line"/>
      <point x="768.7" y="951.3" type="line" smooth="yes"/>
      <point x="768.1" y="1014.7"/>
      <point x="739.7" y="1053.7"/>
      <point x="710.5" y="1053.7" type="qcurve" smooth="yes"/>
      <point x="683.2" y="1053.7"/>
      <point x="653.5" y="1022.0999999999999"/>
      <point x="653.5" y="951.0" type="qcurve" smooth="yes"/>
      <point x="653.5" y="493.0" type="line" smooth="yes"/>
      <point x="653.5" y="437.9"/>
      <point x="690.4" y="379.3"/>
      <point x="722.6" y="379.3" type="qcurve" smooth="yes"/>
      <point x="737.8" y="379.3"/>
      <point x="759.9" y="389.5"/>
      <point x="769.9" y="400.8" type="qcurve"/>
      <point x="769.9" y="477.20000000000005" type="line"/>
      <point x="706.6" y="477.20000000000005" type="line"/>
      <point x="706.6" y="859.5" type="line"/>
      <point x="1338.2" y="861.5" type="line"/>
      <point x="1338.2" y="215.9" type="line"/>
      <point x="1274.8" y="135.0"/>
      <point x="971.8" y="-20.0"/>
      <point x="715.6" y="-20.0" type="qcurve" smooth="yes"/>
      <point x="412.3" y="-20.0"/>
      <point x="22.0" y="331.0"/>
    </contour>
  </outline>
</glyph>
<glyph name="H" format="2">
	<unicode hex="0048"/>
	<advance width="1370"/>
	<outline>
		<contour>
			<point x="38.6" y="0" type="line"/>
			<point x="38.6" y="1456" type="line"/>
			<point x="644.8" y="1456" type="line"/>
			<point x="644.8" y="1005.1" type="line"/>
			<point x="725.5" y="1005.1" type="line"/>
			<point x="725.5" y="1456" type="line"/>
			<point x="1331.7" y="1456" type="line"/>
			<point x="1331.7" y="0" type="line"/>
			<point x="725.5" y="0" type="line"/>
			<point x="725.5" y="499.8" type="line"/>
			<point x="644.8" y="499.8" type="line"/>
			<point x="644.8" y="0" type="line"/>
		</contour>
	</outline>
</glyph>
<glyph name="I" format="2">
  <advance width="698"/>
  <unicode hex="0049"/>
  <anchor x="360.0" y="1432.0" name="top"/>
  <outline>
    <contour>
      <point x="40.900000000000006" y="0.0" type="line"/>
      <point x="40.900000000000006" y="1456.0" type="line"/>
      <point x="657.1" y="1456.0" type="line"/>
      <point x="657.1" y="0.0" type="line"/>
    </contour>
  </outline>
</glyph>
<glyph name="J" format="2">
  <advance width="1273"/>
  <unicode hex="004A"/>
  <outline>
    <contour>
      <point x="25.0" y="538.2" type="qcurve" smooth="yes"/>
      <point x="25.0" y="648.2" type="line"/>
      <point x="549.2" y="648.2" type="line"/>
      <point x="549.2" y="441.2" type="line" smooth="yes"/>
      <point x="549.2" y="401.4"/>
      <point x="567.5" y="368.3"/>
      <point x="587.2" y="368.3" type="qcurve" smooth="yes"/>
      <point x="606.0" y="368.3"/>
      <point x="626.3" y="408.3"/>
      <point x="626.3" y="455.20000000000005" type="qcurve" smooth="yes"/>
      <point x="626.3" y="1456.0" type="line"/>
      <point x="1233.5" y="1456.0" type="line"/>
      <point x="1233.5" y="554.2" type="line" smooth="yes"/>
      <point x="1233.5" y="281.3"/>
      <point x="940.9" y="-20.0"/>
      <point x="630.2" y="-20.0" type="qcurve" smooth="yes"/>
      <point x="332.6" y="-20.0"/>
      <point x="25.0" y="239.3"/>
    </contour>
  </outline>
</glyph>
<glyph name="L" format="2">
  <advance width="1144"/>
  <unicode hex="004C"/>
  <outline>
    <contour>
      <point x="38.93333333333334" y="0.0" type="line"/>
      <point x="38.93333333333334" y="1456.0" type="line"/>
      <point x="643.0666666666666" y="1456.0" type="line"/>
      <point x="643.0666666666666" y="470.2" type="line"/>
      <point x="1123.9333333333334" y="470.2" type="line"/>
      <point x="1123.9333333333334" y="0.0" type="line"/>
    </contour>
  </outline>
</glyph>
<glyph name="M" format="2">
	<unicode hex="004D"/>
	<advance width="2074"/>
	<outline>
		<contour>
			<point x="38.6" y="0" type="line"/>
			<point x="38.6" y="1456" type="line"/>
			<point x="898.1" y="1456" type="line"/>
			<point x="1006.8" y="996.3" type="line" smooth="yes"/>
			<point x="1014.8" y="961.2"/>
			<point x="1029.6" y="895.1"/>
			<point x="1036.5" y="857.7" type="qcurve"/>
			<point x="1040.4" y="857.7" type="line"/>
			<point x="1047.4" y="895.1"/>
			<point x="1062.2" y="961.2"/>
			<point x="1070.2" y="996.3" type="qcurve" smooth="yes"/>
			<point x="1179.9" y="1456" type="line"/>
			<point x="2037.5" y="1456" type="line"/>
			<point x="2037.5" y="0" type="line"/>
			<point x="1442.1" y="0" type="line"/>
			<point x="1442.1" y="535.5" type="line" smooth="yes"/>
			<point x="1442.1" y="569.7"/>
			<point x="1442.1" y="654.2"/>
			<point x="1445.1" y="688.3" type="qcurve"/>
			<point x="1440.1" y="688.3" type="line"/>
			<point x="1434.2" y="652.2"/>
			<point x="1419.4" y="570.7"/>
			<point x="1412.4" y="535.5" type="qcurve" smooth="yes"/>
			<point x="1301.8" y="0" type="line"/>
			<point x="758.4" y="0" type="line"/>
			<point x="647.8" y="535.5" type="line" smooth="yes"/>
			<point x="640.8" y="570.7"/>
			<point x="625" y="654.2"/>
			<point x="620" y="688.3" type="qcurve"/>
			<point x="613.1" y="688.3" type="line"/>
			<point x="615.1" y="654.2"/>
			<point x="617" y="569.7"/>
			<point x="617" y="535.5" type="qcurve" smooth="yes"/>
			<point x="617" y="0" type="line"/>
		</contour>
	</outline>
</glyph>
<glyph name="O" format="2">
	<unicode hex="004F"/>
	<advance width="1428"/>
	<outline>
		<contour>
			<point x="22" y="689" type="qcurve" smooth="yes"/>
			<point x="22" y="767" type="line" smooth="yes"/>
			<point x="22" y="1136"/>
			<point x="414.1" y="1476"/>
			<point x="713.7" y="1476" type="qcurve" smooth="yes"/>
			<point x="1014.3" y="1476"/>
			<point x="1406" y="1136"/>
			<point x="1406" y="767" type="qcurve" smooth="yes"/>
			<point x="1406" y="689" type="line" smooth="yes"/>
			<point x="1406" y="320"/>
			<point x="1014.3" y="-20"/>
			<point x="713.7" y="-20" type="qcurve" smooth="yes"/>
			<point x="414.1" y="-20"/>
			<point x="22" y="320"/>
		</contour>
		<contour>
			<point x="656.5" y="479" type="line" smooth="yes"/>
			<point x="656.5" y="419.1"/>
			<point x="682" y="369.5"/>
			<point x="713.7" y="369.5" type="qcurve" smooth="yes"/>
			<point x="745.5" y="369.5"/>
			<point x="771.6" y="419.1"/>
			<point x="771.6" y="479" type="qcurve" smooth="yes"/>
			<point x="771.6" y="973" type="line" smooth="yes"/>
			<point x="771.6" y="1029.9"/>
			<point x="745.5" y="1076.5"/>
			<point x="713.7" y="1076.5" type="qcurve" smooth="yes"/>
			<point x="682" y="1076.5"/>
			<point x="656.5" y="1029.9"/>
			<point x="656.5" y="973" type="qcurve" smooth="yes"/>
		</contour>
	</outline>
</glyph>
<glyph name="P" format="2">
  <advance width="1409"/>
  <unicode hex="0050"/>
  <outline>
    <contour>
      <point x="38.93333333333334" y="0.0" type="line"/>
      <point x="38.93333333333334" y="1456.0" type="line"/>
      <point x="897.9333333333333" y="1456.0" type="line" smooth="yes"/>
      <point x="1135.6" y="1456.0"/>
      <point x="1398.2666666666667" y="1137.6666666666667"/>
      <point x="1398.2666666666667" y="877.7333333333333" type="qcurve" smooth="yes"/>
      <point x="1398.2666666666667" y="617.8"/>
      <point x="1145.6" y="306.4"/>
      <point x="884.9333333333333" y="306.4" type="qcurve" smooth="yes"/>
      <point x="643.0666666666666" y="306.4" type="line"/>
      <point x="643.0666666666666" y="0.0" type="line"/>
    </contour>
    <contour>
      <point x="643.0666666666666" y="691.6666666666666" type="line"/>
      <point x="714.9333333333333" y="691.6666666666666" type="line" smooth="yes"/>
      <point x="759.6" y="691.6666666666666"/>
      <point x="796.2" y="790.6666666666666"/>
      <point x="796.2" y="862.7333333333333" type="qcurve" smooth="yes"/>
      <point x="796.2" y="938.7333333333333"/>
      <point x="759.6" y="1036.8"/>
      <point x="714.9333333333333" y="1036.8" type="qcurve" smooth="yes"/>
      <point x="643.0666666666666" y="1036.8" type="line"/>
    </contour>
  </outline>
</glyph>
<glyph name="Q" format="2">
	<unicode hex="0051"/>
	<advance width="1428"/>
	<outline>
		<contour>
			<point x="22" y="689" type="qcurve" smooth="yes"/>
			<point x="22" y="767" type="line" smooth="yes"/>
			<point x="22" y="1136"/>
			<point x="414.2" y="1476"/>
			<point x="713.8" y="1476" type="qcurve" smooth="yes"/>
			<point x="1014.4" y="1476"/>
			<point x="1405.8" y="1136"/>
			<point x="1405.8" y="767" type="qcurve" smooth="yes"/>
			<point x="1405.8" y="689" type="line" smooth="yes"/>
			<point x="1405.8" y="320"/>
			<point x="1014.4" y="-20"/>
			<point x="713.8" y="-20" type="qcurve" smooth="yes"/>
			<point x="414.2" y="-20"/>
			<point x="22" y="320"/>
		</contour>
		<contour>
			<point x="656.5" y="479" type="line" smooth="yes"/>
			<point x="656.5" y="419"/>
			<point x="682.1" y="369.5"/>
			<point x="713.8" y="369.5" type="qcurve" smooth="yes"/>
			<point x="745.6" y="369.5"/>
			<point x="771.4" y="419"/>
			<point x="771.4" y="479" type="qcurve" smooth="yes"/>
			<point x="771.4" y="973" type="line" smooth="yes"/>
			<point x="771.4" y="1030"/>
			<point x="745.6" y="1076.5"/>
			<point x="713.8" y="1076.5" type="qcurve" smooth="yes"/>
			<point x="682.1" y="1076.5"/>
			<point x="656.5" y="1030"/>
			<point x="656.5" y="973" type="qcurve" smooth="yes"/>
		</contour>
		<contour>
			<point x="1027.6" y="-265.9" type="line"/>
			<point x="596.5" y="163" type="line"/>
			<point x="905.9" y="512.2" type="line"/>
			<point x="1340" y="84.3" type="line"/>
		</contour>
	</outline>
</glyph>
<glyph name="R" format="2">
	<unicode hex="0052"/>
	<advance width="1471"/>
	<outline>
		<contour>
			<point x="38.6" y="0" type="line"/>
			<point x="38.6" y="1456" type="line"/>
			<point x="860.3" y="1456" type="line" smooth="yes"/>
			<point x="1080.2" y="1456"/>
			<point x="1370.2" y="1175.4"/>
			<point x="1370.2" y="949" type="qcurve" smooth="yes"/>
			<point x="1370.2" y="711.5"/>
			<point x="1050.2" y="406.9"/>
			<point x="851.3" y="406.9" type="qcurve" smooth="yes"/>
			<point x="644.8" y="406.9" type="line"/>
			<point x="644.8" y="0" type="line"/>
		</contour>
		<contour>
			<point x="644.8" y="776.3" type="line"/>
			<point x="689.3" y="776.3" type="line" smooth="yes"/>
			<point x="725.9" y="776.3"/>
			<point x="757.1" y="849.4"/>
			<point x="757.1" y="907" type="qcurve" smooth="yes"/>
			<point x="757.1" y="964.5"/>
			<point x="725.9" y="1045.6"/>
			<point x="689.3" y="1045.6" type="qcurve" smooth="yes"/>
			<point x="644.8" y="1045.6" type="line"/>
		</contour>
		<contour>
			<point x="860.4" y="0" type="line"/>
			<point x="569.2" y="667" type="line"/>
			<point x="1166.1" y="667" type="line"/>
			<point x="1514.4" y="0" type="line"/>
		</contour>
	</outline>
</glyph>
<glyph name="S" format="2">
	<unicode hex="0053"/>
	<advance width="1249"/>
	<outline>
		<contour>
			<point x="-6" y="388.9" type="qcurve" smooth="yes"/>
			<point x="-6" y="486.8" type="line"/>
			<point x="535.2" y="486.8" type="line"/>
			<point x="535.2" y="450.9" type="line" smooth="yes"/>
			<point x="534.2" y="402.1"/>
			<point x="578" y="356.3"/>
			<point x="618.1" y="356.3" type="qcurve" smooth="yes"/>
			<point x="648.2" y="356.3"/>
			<point x="685.1" y="383.2"/>
			<point x="685.1" y="410.8" type="qcurve" smooth="yes"/>
			<point x="685.1" y="439.5"/>
			<point x="642.1" y="471.4"/>
			<point x="478.3" y="523.4" type="qcurve" smooth="yes"/>
			<point x="243.4" y="598.1"/>
			<point x="1.4" y="802.1"/>
			<point x="1.4" y="1001.5" type="qcurve" smooth="yes"/>
			<point x="1.4" y="1230.5"/>
			<point x="337.9" y="1474"/>
			<point x="601.2" y="1474" type="qcurve" smooth="yes"/>
			<point x="867.5" y="1474"/>
			<point x="1205.8" y="1271.9"/>
			<point x="1205.8" y="1083.1" type="qcurve" smooth="yes"/>
			<point x="1205.8" y="1002.2" type="line"/>
			<point x="675.6" y="1002.2" type="line"/>
			<point x="675.6" y="1026.1" type="line" smooth="yes"/>
			<point x="675.6" y="1055.1"/>
			<point x="643.5" y="1083.7"/>
			<point x="615.2" y="1083.7" type="qcurve" smooth="yes"/>
			<point x="585" y="1083.7"/>
			<point x="560.7" y="1063.5"/>
			<point x="560.7" y="1046.7" type="qcurve" smooth="yes"/>
			<point x="560.7" y="1028.1"/>
			<point x="602.4" y="1009.6"/>
			<point x="800.6" y="956.6" type="qcurve" smooth="yes"/>
			<point x="1003.8" y="902.6"/>
			<point x="1242.3" y="688.4"/>
			<point x="1242.3" y="476.5" type="qcurve" smooth="yes"/>
			<point x="1242.3" y="236.6"/>
			<point x="897.2" y="-20"/>
			<point x="628.1" y="-20" type="qcurve" smooth="yes"/>
			<point x="359.1" y="-20"/>
			<point x="-6" y="187"/>
		</contour>
	</outline>
</glyph>
<glyph name="T" format="2">
	<unicode hex="0054"/>
	<advance width="1308"/>
	<outline>
		<contour>
			<point x="4" y="983.7" type="line"/>
			<point x="4" y="1456" type="line"/>
			<point x="1304.2" y="1456" type="line"/>
			<point x="1304.2" y="983.7" type="line"/>
			<point x="963.2" y="983.7" type="line"/>
			<point x="963.2" y="0" type="line"/>
			<point x="347" y="0" type="line"/>
			<point x="347" y="983.7" type="line"/>
		</contour>
	</outline>
</glyph>
<glyph name="U" format="2">
  <advance width="1361"/>
  <unicode hex="0055"/>
  <anchor x="673.0" y="1432.0" name="top"/>
  <outline>
    <contour>
      <point x="30.0" y="572.5" type="qcurve" smooth="yes"/>
      <point x="30.0" y="1456.0" type="line"/>
      <point x="634.2" y="1456.0" type="line"/>
      <point x="634.2" y="470.5" type="line" smooth="yes"/>
      <point x="634.0" y="412.5"/>
      <point x="650.3" y="372.5"/>
      <point x="671.1" y="372.5" type="qcurve" smooth="yes"/>
      <point x="692.8" y="372.5"/>
      <point x="709.0" y="412.6"/>
      <point x="709.0" y="470.5" type="qcurve" smooth="yes"/>
      <point x="709.0" y="1456.0" type="line"/>
      <point x="1316.1" y="1456.0" type="line"/>
      <point x="1316.1" y="572.5" type="line" smooth="yes"/>
      <point x="1316.4" y="270.3"/>
      <point x="980.6" y="-20.0"/>
      <point x="682.1" y="-20.0" type="qcurve" smooth="yes"/>
      <point x="367.6" y="-20.0"/>
      <point x="30.0" y="270.3"/>
    </contour>
  </outline>
</glyph>
<glyph name="V" format="2">
  <advance width="1422"/>
  <unicode hex="0056"/>
  <outline>
    <contour>
      <point x="-64.8" y="1456.0" type="line"/>
      <point x="550.0" y="1456.0" type="line"/>
      <point x="709.4" y="852.2" type="line" smooth="yes"/>
      <point x="712.1" y="840.0"/>
      <point x="721.1" y="813.8"/>
      <point x="726.1" y="795.3" type="qcurve"/>
      <point x="726.6" y="795.3" type="line"/>
      <point x="731.2" y="814.5"/>
      <point x="738.8" y="843.1"/>
      <point x="741.5" y="852.2" type="qcurve" smooth="yes"/>
      <point x="892.0" y="1456.0" type="line"/>
      <point x="1486.8" y="1456.0" type="line"/>
      <point x="1046.3" y="-8.4" type="line"/>
      <point x="376.1" y="-8.4" type="line"/>
    </contour>
  </outline>
</glyph>
<glyph name="W" format="2">
  <advance width="2181"/>
  <unicode hex="0057"/>
  <outline>
    <contour>
      <point x="323.7" y="0.6000000000000001" type="line"/>
      <point x="-33.0" y="1456.0" type="line"/>
      <point x="545.0" y="1456.0" type="line"/>
      <point x="695.7" y="821.6" type="line" smooth="yes"/>
      <point x="697.7" y="812.4"/>
      <point x="702.5" y="787.4"/>
      <point x="704.4" y="771.2" type="qcurve"/>
      <point x="705.4" y="771.2" type="line"/>
      <point x="707.3" y="785.4"/>
      <point x="713.1" y="812.4"/>
      <point x="715.1" y="821.6" type="qcurve" smooth="yes"/>
      <point x="858.9" y="1456.0" type="line"/>
      <point x="1357.2" y="1456.0" type="line"/>
      <point x="1522.9" y="821.7" type="line" smooth="yes"/>
      <point x="1523.9" y="816.5"/>
      <point x="1529.7" y="787.5"/>
      <point x="1532.6" y="771.3" type="qcurve"/>
      <point x="1533.6" y="771.3" type="line"/>
      <point x="1535.5" y="786.5"/>
      <point x="1539.3" y="812.5"/>
      <point x="1541.3" y="821.7" type="qcurve" smooth="yes"/>
      <point x="1672.6" y="1456.0" type="line"/>
      <point x="2214.0" y="1456.0" type="line"/>
      <point x="1856.8" y="0.6000000000000001" type="line"/>
      <point x="1277.5" y="0.6000000000000001" type="line"/>
      <point x="1110.9" y="608.8000000000001" type="line" smooth="yes"/>
      <point x="1108.9" y="615.9999999999999"/>
      <point x="1103.1" y="642.5999999999998"/>
      <point x="1101.2" y="657.8000000000001" type="qcurve"/>
      <point x="1099.3" y="657.8000000000001" type="line"/>
      <point x="1097.3" y="642.5999999999998"/>
      <point x="1091.5" y="616.9999999999999"/>
      <point x="1089.5" y="608.8000000000001" type="qcurve" smooth="yes"/>
      <point x="922.9" y="0.6000000000000001" type="line"/>
    </contour>
  </outline>
</glyph>
<glyph name="X" format="2">
	<unicode hex="0058"/>
	<advance width="1396"/>
	<outline>
		<contour>
			<point x="-43.5" y="0" type="line"/>
			<point x="480.2" y="953.1" type="line"/>
			<point x="616" y="953.1" type="line"/>
			<point x="875.2" y="1456" type="line"/>
			<point x="1413.7" y="1456" type="line"/>
			<point x="923.2" y="545" type="line"/>
			<point x="787.5" y="545" type="line"/>
			<point x="496.9" y="0" type="line"/>
		</contour>
		<contour>
			<point x="-19.7" y="1456" type="line"/>
			<point x="638.6" y="1456" type="line"/>
			<point x="903.2" y="954" type="line"/>
			<point x="902.1" y="954" type="line"/>
			<point x="1419.5" y="0" type="line"/>
			<point x="759.2" y="0" type="line"/>
			<point x="456.8" y="570.8" type="line"/>
			<point x="456.9" y="570.8" type="line"/>
		</contour>
	</outline>
</glyph>
<glyph name="Y" format="2">
	<unicode hex="0059"/>
	<advance width="1421"/>
	<outline>
		<contour>
			<point x="403" y="0" type="line"/>
			<point x="403" y="544.4" type="line"/>
			<point x="-59" y="1456" type="line"/>
			<point x="593.7" y="1456" type="line"/>
			<point x="728.5" y="1178.9" type="line" smooth="yes"/>
			<point x="735.4" y="1164"/>
			<point x="747.2" y="1139.9"/>
			<point x="752.1" y="1125.9" type="qcurve"/>
			<point x="755.1" y="1125.9" type="line"/>
			<point x="760" y="1139.9"/>
			<point x="770.7" y="1163.9"/>
			<point x="777.7" y="1178.9" type="qcurve" smooth="yes"/>
			<point x="906.3" y="1456" type="line"/>
			<point x="1478.2" y="1456" type="line"/>
			<point x="1019.2" y="547.4" type="line"/>
			<point x="1019.2" y="0" type="line"/>
		</contour>
	</outline>
</glyph>
<glyph name="bracketleft" format="2">
	<unicode hex="005B"/>
	<advance width="812"/>
	<outline>
		<contour>
			<point x="74" y="-310" type="line"/>
			<point x="74" y="1456" type="line"/>
			<point x="792.2" y="1456" type="line"/>
			<point x="792.2" y="1055.4" type="line"/>
			<point x="607" y="1055.4" type="line"/>
			<point x="607" y="90.6" type="line"/>
			<point x="792.2" y="90.6" type="line"/>
			<point x="792.2" y="-310" type="line"/>
		</contour>
	</outline>
</glyph>
<glyph name="backslash" format="2">
  <advance width="969"/>
  <unicode hex="005C"/>
  <outline>
    <contour>
      <point x="-22.5" y="1456.0" type="line"/>
      <point x="478.3" y="1456.0" type="line"/>
      <point x="991.3" y="-125.0" type="line"/>
      <point x="491.5" y="-125.0" type="line"/>
    </contour>
  </outline>
</glyph>
<glyph name="bracketright" format="2">
  <advance width="812"/>
  <unicode hex="005D"/>
  <outline>
    <contour>
      <point x="738.0" y="-310.0" type="line"/>
      <point x="19.799999999999997" y="-310.0" type="line"/>
      <point x="19.799999999999997" y="90.6" type="line"/>
      <point x="205.0" y="90.6" type="line"/>
      <point x="205.0" y="1055.4" type="line"/>
      <point x="19.799999999999997" y="1055.4" type="line"/>
      <point x="19.799999999999997" y="1456.0" type="line"/>
      <point x="738.0" y="1456.0" type="line"/>
    </contour>
  </outline>
</glyph>
<glyph name="asciicircum" format="2">
  <advance width="1247"/>
  <unicode hex="005E"/>
  <outline>
    <contour>
      <point x="1.0" y="720.0" type="line"/>
      <point x="406.3" y="1456.0" type="line"/>
      <point x="841.1" y="1456.0" type="line"/>
      <point x="1246.3" y="720.0" type="line"/>
      <point x="777.5" y="720.0" type="line"/>
      <point x="623.2" y="1016.0999999999999" type="line"/>
      <point x="469.8" y="720.0" type="line"/>
    </contour>
  </outline>
</glyph>
<glyph name="grave" format="2">
  <advance width="986"/>
  <unicode hex="0060"/>
  <outline>
    <contour>
      <point x="287.4" y="1010.4" type="line"/>
      <point x="27.333333333333343" y="1382.3333333333333" type="line"/>
      <point x="504.6" y="1488.6" type="line"/>
      <point x="715.2666666666667" y="1120.8666666666666" type="line"/>
    </contour>
  </outline>
</glyph>
<glyph name="a" format="2">
  <advance width="1303"/>
  <unicode hex="0061"/>
  <anchor x="668.0" y="914.0" name="top"/>
  <outline>
    <contour>
      <point x="-1.5" y="267.0" type="qcurve" smooth="yes"/>
      <point x="-1.5" y="406.8"/>
      <point x="233.0" y="577.7"/>
      <point x="428.4" y="577.7" type="qcurve" smooth="yes"/>
      <point x="676.2" y="577.7" type="line"/>
      <point x="676.2" y="598.0" type="line" smooth="yes"/>
      <point x="676.2" y="625.7"/>
      <point x="658.1" y="655.8"/>
      <point x="638.9" y="655.8" type="qcurve" smooth="yes"/>
      <point x="621.5" y="655.8"/>
      <point x="598.8" y="629.7"/>
      <point x="598.8" y="605.9" type="qcurve" smooth="yes"/>
      <point x="598.8" y="585.9" type="line"/>
      <point x="75.7" y="588.9" type="line"/>
      <point x="75.7" y="603.9" type="line" smooth="yes"/>
      <point x="75.7" y="766.2"/>
      <point x="405.1" y="942.0"/>
      <point x="689.8" y="942.0" type="qcurve" smooth="yes"/>
      <point x="989.5" y="942.0"/>
      <point x="1262.2" y="761.0"/>
      <point x="1262.2" y="569.0" type="qcurve" smooth="yes"/>
      <point x="1262.2" y="182.0" type="line" smooth="yes"/>
      <point x="1262.2" y="132.0"/>
      <point x="1284.1" y="44.5"/>
      <point x="1306.6" y="12.0" type="qcurve"/>
      <point x="1306.6" y="0.0" type="line"/>
      <point x="721.5" y="0.0" type="line"/>
      <point x="704.8" y="23.7"/>
      <point x="691.2" y="75.6"/>
      <point x="688.2" y="107.1" type="qcurve"/>
      <point x="653.1" y="62.7"/>
      <point x="472.1" y="-13.0"/>
      <point x="341.5" y="-13.0" type="qcurve" smooth="yes"/>
      <point x="179.5" y="-13.0"/>
      <point x="-1.5" y="128.0"/>
    </contour>
    <contour>
      <point x="574.8" y="312.9" type="qcurve" smooth="yes"/>
      <point x="574.8" y="288.3"/>
      <point x="597.3" y="265.1"/>
      <point x="616.4" y="265.1" type="qcurve" smooth="yes"/>
      <point x="637.8" y="265.1"/>
      <point x="676.2" y="306.9"/>
      <point x="676.2" y="334.3" type="qcurve"/>
      <point x="676.2" y="373.7" type="line"/>
      <point x="635.1" y="373.7" type="line" smooth="yes"/>
      <point x="605.9" y="373.7"/>
      <point x="574.8" y="341.4"/>
    </contour>
  </outline>
</glyph>
<glyph name="b" format="2">
	<unicode hex="0062"/>
	<advance width="1309"/>
	<outline>
		<contour>
			<point x="34" y="0" type="line"/>
			<point x="34" y="1458" type="line"/>
			<point x="617" y="1458" type="line"/>
			<point x="617" y="807" type="line"/>
			<point x="663" y="870"/>
			<point x="802" y="944"/>
			<point x="900" y="944" type="qcurve" smooth="yes"/>
			<point x="1071" y="944"/>
			<point x="1301" y="684"/>
			<point x="1301" y="484" type="qcurve" smooth="yes"/>
			<point x="1301" y="452" type="line" smooth="yes"/>
			<point x="1301" y="252"/>
			<point x="1061" y="-20"/>
			<point x="890" y="-20" type="qcurve" smooth="yes"/>
			<point x="792" y="-20"/>
			<point x="655" y="30"/>
			<point x="613" y="83" type="qcurve"/>
			<point x="612" y="83" type="line"/>
			<point x="612" y="0" type="line"/>
		</contour>
		<contour>
			<point x="617" y="400" type="line"/>
			<point x="623" y="381"/>
			<point x="652" y="352"/>
			<point x="672" y="352" type="qcurve" smooth="yes"/>
			<point x="697" y="352"/>
			<point x="723" y="412"/>
			<point x="723" y="456" type="qcurve" smooth="yes"/>
			<point x="723" y="465" type="line" smooth="yes"/>
			<point x="723" y="509"/>
			<point x="697" y="562"/>
			<point x="670" y="562" type="qcurve" smooth="yes"/>
			<point x="652" y="562"/>
			<point x="623" y="533"/>
			<point x="617" y="514" type="qcurve"/>
		</contour>
	</outline>
</glyph>
<glyph name="c" format="2">
  <advance width="1180"/>
  <unicode hex="0063"/>
  <outline>
    <contour>
      <point x="8" y="445.0" type="qcurve" smooth="yes"/>
      <point x="8" y="479.0" type="line" smooth="yes"/>
      <point x="8" y="701.0"/>
      <point x="337" y="952.0"/>
      <point x="620" y="952.0" type="qcurve" smooth="yes"/>
      <point x="887" y="952.0"/>
      <point x="1163" y="712"/>
      <point x="1178" y="517.0" type="qcurve" smooth="yes"/>
      <point x="1180" y="486" type="line"/>
      <point x="688" y="486" type="line"/>
      <point x="688" y="497" type="line" smooth="yes"/>
      <point x="688.0" y="527"/>
      <point x="666" y="557"/>
      <point x="643" y="557" type="qcurve" smooth="yes"/>
      <point x="620" y="557"/>
      <point x="593" y="531"/>
      <point x="593" y="501.0" type="qcurve" smooth="yes"/>
      <point x="593" y="425.0" type="line" smooth="yes"/>
      <point x="593" y="387"/>
      <point x="619" y="356"/>
      <point x="643" y="356" type="qcurve" smooth="yes"/>
      <point x="667" y="356"/>
      <point x="689" y="385"/>
      <point x="689" y="405" type="qcurve" smooth="yes"/>
      <point x="689" y="419" type="line"/>
      <point x="1180" y="419" type="line"/>
      <point x="1179" y="387" type="line" smooth="yes"/>
      <point x="1172" y="200"/>
      <point x="894" y="-27.0"/>
      <point x="625" y="-27.0" type="qcurve" smooth="yes"/>
      <point x="343" y="-27.0"/>
      <point x="8" y="225.0"/>
    </contour>
  </outline>
</glyph>
<glyph name="d" format="2">
	<unicode hex="0064"/>
	<advance width="1310"/>
	<outline>
		<contour>
			<point x="8.5" y="442" type="qcurve" smooth="yes"/>
			<point x="8.5" y="474" type="line" smooth="yes"/>
			<point x="8.5" y="674"/>
			<point x="225.2" y="934"/>
			<point x="405.8" y="934" type="qcurve" smooth="yes"/>
			<point x="514.2" y="934"/>
			<point x="665.8" y="866.6"/>
			<point x="708" y="811.7" type="qcurve"/>
			<point x="708" y="1458" type="line"/>
			<point x="1276" y="1458" type="line"/>
			<point x="1276" y="0" type="line"/>
			<point x="711.7" y="0" type="line"/>
			<point x="711.8" y="131.3" type="line"/>
			<point x="710.9" y="131.3" type="line"/>
			<point x="668.7" y="68.7"/>
			<point x="513.4" y="-20"/>
			<point x="406" y="-20" type="qcurve" smooth="yes"/>
			<point x="218.3" y="-20"/>
			<point x="8.5" y="242"/>
		</contour>
		<contour>
			<point x="585.7" y="451" type="line" smooth="yes"/>
			<point x="585.7" y="406.8"/>
			<point x="614.8" y="350.7"/>
			<point x="642.1" y="350.7" type="qcurve" smooth="yes"/>
			<point x="660.5" y="350.7"/>
			<point x="687.5" y="381.2"/>
			<point x="693" y="400.4" type="qcurve"/>
			<point x="693" y="513.6" type="line"/>
			<point x="687.5" y="534.5"/>
			<point x="661.5" y="563.3"/>
			<point x="642.1" y="563.3" type="qcurve" smooth="yes"/>
			<point x="614.8" y="563.3"/>
			<point x="585.7" y="505.2"/>
			<point x="585.7" y="461" type="qcurve" smooth="yes"/>
		</contour>
	</outline>
</glyph>
<glyph name="e" format="2">
  <advance width="1267"/>
  <unicode hex="0065"/>
  <anchor x="645.0" y="914.0" name="top"/>
  <outline>
    <contour>
      <point x="8.5" y="447.0" type="qcurve" smooth="yes"/>
      <point x="8.5" y="479.0" type="line" smooth="yes"/>
      <point x="8.5" y="699.0"/>
      <point x="354.1" y="950.0"/>
      <point x="650.4" y="950.0" type="qcurve" smooth="yes"/>
      <point x="934.8" y="950.0"/>
      <point x="1247.9" y="696.0"/>
      <point x="1247.9" y="487.0" type="qcurve" smooth="yes"/>
      <point x="1247.9" y="421.5" type="line"/>
      <point x="352.2" y="421.5" type="line"/>
      <point x="352.2" y="507.70000000000005" type="line"/>
      <point x="689.1" y="507.70000000000005" type="line"/>
      <point x="689.1" y="513.6" type="line" smooth="yes"/>
      <point x="689.1" y="543.6"/>
      <point x="668.7" y="575.5"/>
      <point x="642.6" y="575.5" type="qcurve" smooth="yes"/>
      <point x="618.9" y="575.5"/>
      <point x="592.0" y="541.7"/>
      <point x="592.0" y="494.0" type="qcurve" smooth="yes"/>
      <point x="592.0" y="443.0" type="line" smooth="yes"/>
      <point x="592.0" y="388.3"/>
      <point x="625.8" y="351.5"/>
      <point x="653.9" y="351.5" type="qcurve" smooth="yes"/>
      <point x="685.8" y="351.5"/>
      <point x="719.8" y="380.3"/>
      <point x="728.5" y="404.6" type="qcurve"/>
      <point x="1244.7" y="335.1" type="line"/>
      <point x="1190.6" y="145.7"/>
      <point x="917.3" y="-27.1"/>
      <point x="656.9" y="-27.1" type="qcurve" smooth="yes"/>
      <point x="350.0" y="-27.1"/>
      <point x="8.5" y="222.0"/>
    </contour>
  </outline>
</glyph>
<glyph name="g" format="2">
	<unicode hex="0067"/>
	<advance width="1309"/>
	<outline>
		<contour>
			<point x="54" y="-376" type="qcurve"/>
			<point x="100.5" y="6.6" type="line"/>
			<point x="144.4" y="-22.4"/>
			<point x="385.9" y="-91.5"/>
			<point x="470.2" y="-91.5" type="qcurve" smooth="yes"/>
			<point x="540.1" y="-91.5"/>
			<point x="702" y="-49"/>
			<point x="702" y="34.5" type="qcurve" smooth="yes"/>
			<point x="702" y="126.3" type="line"/>
			<point x="657.8" y="64.7"/>
			<point x="533.2" y="-12"/>
			<point x="398.8" y="-12" type="qcurve" smooth="yes"/>
			<point x="227.2" y="-12"/>
			<point x="8.5" y="242"/>
			<point x="8.5" y="442" type="qcurve" smooth="yes"/>
			<point x="8.5" y="474" type="line" smooth="yes"/>
			<point x="8.5" y="674"/>
			<point x="207.3" y="934"/>
			<point x="389.9" y="934" type="qcurve" smooth="yes"/>
			<point x="485.3" y="934"/>
			<point x="647.7" y="855.3"/>
			<point x="688.9" y="793.7" type="qcurve"/>
			<point x="692.8" y="793.7" type="line"/>
			<point x="692.7" y="914" type="line"/>
			<point x="1275" y="914" type="line"/>
			<point x="1275" y="164.5" type="line" smooth="yes"/>
			<point x="1275" y="-131.7"/>
			<point x="923.9" y="-456"/>
			<point x="619.3" y="-456" type="qcurve" smooth="yes"/>
			<point x="442.7" y="-456"/>
			<point x="151.4" y="-404.9"/>
		</contour>
		<contour>
			<point x="585.7" y="451" type="line" smooth="yes"/>
			<point x="585.7" y="406.8"/>
			<point x="613.8" y="350.7"/>
			<point x="642" y="350.7" type="qcurve" smooth="yes"/>
			<point x="660.5" y="350.7"/>
			<point x="687.6" y="381.2"/>
			<point x="693" y="400.4" type="qcurve"/>
			<point x="693" y="513.6" type="line"/>
			<point x="687.5" y="534.3"/>
			<point x="660.5" y="563.3"/>
			<point x="642.1" y="563.3" type="qcurve" smooth="yes"/>
			<point x="613.8" y="563.3"/>
			<point x="585.7" y="505.2"/>
			<point x="585.7" y="461" type="qcurve" smooth="yes"/>
		</contour>
	</outline>
</glyph>
<glyph name="h" format="2">
	<unicode hex="0068"/>
	<advance width="1306"/>
	<outline>
		<contour>
			<point x="34" y="0" type="line"/>
			<point x="34" y="1456" type="line"/>
			<point x="618" y="1456" type="line"/>
			<point x="619" y="795" type="line"/>
			<point x="643" y="856"/>
			<point x="797" y="943"/>
			<point x="929" y="943" type="qcurve" smooth="yes"/>
			<point x="1085" y="943"/>
			<point x="1280" y="783"/>
			<point x="1280" y="603" type="qcurve" smooth="yes"/>
			<point x="1280" y="0" type="line"/>
			<point x="694" y="0" type="line"/>
			<point x="694" y="483" type="line" smooth="yes"/>
			<point x="694" y="507"/>
			<point x="676" y="530"/>
			<point x="663" y="530" type="qcurve" smooth="yes"/>
			<point x="648" y="530"/>
			<point x="626" y="503"/>
			<point x="620" y="484" type="qcurve"/>
			<point x="620" y="0" type="line"/>
		</contour>
	</outline>
</glyph>
<glyph name="i" format="2">
  <advance width="649"/>
  <unicode hex="0069"/>
  <outline>
    <contour>
      <point x="25.0" y="0.0" type="line"/>
      <point x="25.0" y="914.0" type="line"/>
      <point x="624.0" y="914.0" type="line"/>
      <point x="624.0" y="0.0" type="line"/>
    </contour>
    <contour>
      <point x="12" y="1214" type="qcurve" smooth="yes"/>
      <point x="12" y="1330"/>
      <point x="175" y="1489"/>
      <point x="327.0" y="1489" type="qcurve" smooth="yes"/>
      <point x="478" y="1489"/>
      <point x="637" y="1333"/>
      <point x="637" y="1214" type="qcurve" smooth="yes"/>
      <point x="637" y="1100"/>
      <point x="473" y="936"/>
      <point x="322.0" y="936" type="qcurve" smooth="yes"/>
      <point x="171" y="936"/>
      <point x="12" y="1100"/>
    </contour>
  </outline>
</glyph>
<glyph name="j" format="2">
	<unicode hex="006A"/>
	<advance width="682"/>
	<outline>
		<contour>
			<point x="-228" y="-419" type="qcurve"/>
			<point x="-241" y="-11" type="line"/>
			<point x="-220" y="-14"/>
			<point x="-149" y="-29"/>
			<point x="-79" y="-29" type="qcurve" smooth="yes"/>
			<point x="-1" y="-29"/>
			<point x="52" y="41"/>
			<point x="52" y="159" type="qcurve" smooth="yes"/>
			<point x="52" y="914" type="line"/>
			<point x="646" y="914" type="line"/>
			<point x="646" y="60" type="line" smooth="yes"/>
			<point x="646" y="-199"/>
			<point x="348" y="-440"/>
			<point x="49" y="-440" type="qcurve" smooth="yes"/>
			<point x="-26" y="-440"/>
			<point x="-184" y="-426"/>
		</contour>
		<contour>
			<point x="37" y="1214" type="qcurve" smooth="yes"/>
			<point x="37" y="1330"/>
			<point x="201" y="1489"/>
			<point x="352" y="1489" type="qcurve" smooth="yes"/>
			<point x="503" y="1489"/>
			<point x="662" y="1333"/>
			<point x="662" y="1214" type="qcurve" smooth="yes"/>
			<point x="662" y="1100"/>
			<point x="498" y="936"/>
			<point x="347" y="936" type="qcurve" smooth="yes"/>
			<point x="197" y="936"/>
			<point x="37" y="1100"/>
		</contour>
	</outline>
</glyph>
<glyph name="k" format="2">
  <advance width="1461"/>
  <unicode hex="006B"/>
  <outline>
    <contour>
      <point x="34.0" y="0.0" type="line"/>
      <point x="34.0" y="1458.0" type="line"/>
      <point x="620.0" y="1458.0" type="line"/>
      <point x="620.0" y="721" type="line"/>
      <point x="766" y="914.0" type="line"/>
      <point x="1426" y="914.0" type="line"/>
      <point x="620.0" y="105" type="line"/>
      <point x="620.0" y="0.0" type="line"/>
    </contour>
    <contour>
      <point x="801" y="0.0" type="line"/>
      <point x="577" y="350" type="line"/>
      <point x="929" y="741" type="line"/>
      <point x="1483.0" y="0.0" type="line"/>
    </contour>
  </outline>
</glyph>
<glyph name="l" format="2">
	<unicode hex="006C"/>
	<advance width="659"/>
	<outline>
		<contour>
			<point x="33" y="0" type="line"/>
			<point x="33" y="1458" type="line"/>
			<point x="626" y="1458" type="line"/>
			<point x="626" y="0" type="line"/>
		</contour>
	</outline>
</glyph>
<glyph name="m" format="2">
	<unicode hex="006D"/>
	<advance width="1968"/>
	<outline>
		<contour>
			<point x="34" y="-1" type="line"/>
			<point x="34" y="913" type="line"/>
			<point x="612" y="913" type="line"/>
			<point x="612" y="781" type="line"/>
			<point x="616" y="781" type="line"/>
			<point x="660" y="855"/>
			<point x="826" y="940"/>
			<point x="943" y="940" type="qcurve" smooth="yes"/>
			<point x="1050" y="940"/>
			<point x="1209" y="857"/>
			<point x="1237" y="776" type="qcurve"/>
			<point x="1240" y="776" type="line"/>
			<point x="1297" y="852"/>
			<point x="1494" y="942"/>
			<point x="1614" y="942" type="qcurve" smooth="yes"/>
			<point x="1763" y="942"/>
			<point x="1942" y="788"/>
			<point x="1942" y="606" type="qcurve" smooth="yes"/>
			<point x="1942" y="-1" type="line"/>
			<point x="1354" y="-1" type="line"/>
			<point x="1354" y="483" type="line" smooth="yes"/>
			<point x="1354" y="507"/>
			<point x="1338" y="530"/>
			<point x="1323" y="530" type="qcurve" smooth="yes"/>
			<point x="1309" y="530"/>
			<point x="1285" y="503"/>
			<point x="1281" y="485" type="qcurve"/>
			<point x="1281" y="-1" type="line"/>
			<point x="693" y="-1" type="line"/>
			<point x="693" y="483" type="line" smooth="yes"/>
			<point x="693" y="507"/>
			<point x="675" y="530"/>
			<point x="659" y="530" type="qcurve" smooth="yes"/>
			<point x="645" y="530"/>
			<point x="623" y="502"/>
			<point x="620" y="484" type="qcurve"/>
			<point x="620" y="-1" type="line"/>
		</contour>
	</outline>
</glyph>
<glyph name="n" format="2">
  <advance width="1306"/>
  <unicode hex="006E"/>
  <outline>
    <contour>
      <point x="34.0" y="0.0" type="line"/>
      <point x="34.0" y="914.0" type="line"/>
      <point x="617" y="914.0" type="line"/>
      <point x="618" y="796" type="line"/>
      <point x="619" y="796" type="line"/>
      <point x="642" y="855.0"/>
      <point x="799" y="943"/>
      <point x="933" y="943" type="qcurve" smooth="yes"/>
      <point x="1084" y="943"/>
      <point x="1280.0" y="784"/>
      <point x="1280.0" y="604" type="qcurve" smooth="yes"/>
      <point x="1280.0" y="0.0" type="line"/>
      <point x="694.0" y="0.0" type="line"/>
      <point x="694.0" y="485" type="line" smooth="yes"/>
      <point x="694.0" y="509"/>
      <point x="676.0" y="530"/>
      <point x="662" y="530" type="qcurve" smooth="yes"/>
      <point x="648" y="530"/>
      <point x="626" y="505"/>
      <point x="620.0" y="484" type="qcurve"/>
      <point x="620.0" y="0.0" type="line"/>
    </contour>
  </outline>
</glyph>
<glyph name="o" format="2">
	<unicode hex="006F"/>
	<advance width="1302"/>
	<outline>
		<contour>
			<point x="8.5" y="445" type="qcurve" smooth="yes"/>
			<point x="8.5" y="478" type="line" smooth="yes"/>
			<point x="8.5" y="689"/>
			<point x="360.5" y="952"/>
			<point x="651" y="952" type="qcurve" smooth="yes"/>
			<point x="942.5" y="952"/>
			<point x="1293.5" y="689"/>
			<point x="1293.5" y="478" type="qcurve" smooth="yes"/>
			<point x="1293.5" y="445" type="line" smooth="yes"/>
			<point x="1293.5" y="233"/>
			<point x="942.5" y="-27"/>
			<point x="651" y="-27" type="qcurve" smooth="yes"/>
			<point x="359.5" y="-27"/>
			<point x="8.5" y="233"/>
		</contour>
		<contour>
			<point x="593.7" y="501" type="qcurve" smooth="yes"/>
			<point x="593.7" y="426" type="line" smooth="yes"/>
			<point x="593.7" y="393.8"/>
			<point x="621.6" y="356.7"/>
			<point x="647" y="356.7" type="qcurve" smooth="yes"/>
			<point x="672.4" y="356.7"/>
			<point x="700.3" y="393.8"/>
			<point x="700.3" y="426" type="qcurve" smooth="yes"/>
			<point x="700.3" y="501" type="line" smooth="yes"/>
			<point x="700.3" y="529.2"/>
			<point x="672.4" y="562.3"/>
			<point x="647" y="562.3" type="qcurve" smooth="yes"/>
			<point x="621.6" y="562.3"/>
			<point x="593.7" y="529.2"/>
		</contour>
	</outline>
</glyph>
<glyph name="p" format="2">
	<unicode hex="0070"/>
	<advance width="1307"/>
	<outline>
		<contour>
			<point x="34" y="-416" type="line"/>
			<point x="34" y="914" type="line"/>
			<point x="609" y="914" type="line"/>
			<point x="608" y="825" type="line"/>
			<point x="612" y="826" type="line"/>
			<point x="650" y="876"/>
			<point x="795" y="945"/>
			<point x="896" y="945" type="qcurve" smooth="yes"/>
			<point x="1076" y="945"/>
			<point x="1299" y="709"/>
			<point x="1299" y="479" type="qcurve" smooth="yes"/>
			<point x="1299" y="447" type="line" smooth="yes"/>
			<point x="1299" y="233"/>
			<point x="1065" y="-20"/>
			<point x="888" y="-20" type="qcurve" smooth="yes"/>
			<point x="786" y="-20"/>
			<point x="663" y="30"/>
			<point x="617" y="70" type="qcurve"/>
			<point x="617" y="-416" type="line"/>
		</contour>
		<contour>
			<point x="617" y="399" type="line"/>
			<point x="622" y="380"/>
			<point x="651" y="351"/>
			<point x="668" y="351" type="qcurve" smooth="yes"/>
			<point x="694" y="351"/>
			<point x="722" y="389"/>
			<point x="722" y="422" type="qcurve" smooth="yes"/>
			<point x="722" y="495" type="line" smooth="yes"/>
			<point x="722" y="534"/>
			<point x="693" y="563"/>
			<point x="672" y="563" type="qcurve" smooth="yes"/>
			<point x="650" y="563"/>
			<point x="620" y="535"/>
			<point x="617" y="515" type="qcurve"/>
		</contour>
	</outline>
</glyph>
<glyph name="q" format="2">
	<unicode hex="0071"/>
	<advance width="1310"/>
	<outline>
		<contour>
			<point x="8" y="442" type="qcurve" smooth="yes"/>
			<point x="8" y="474" type="line" smooth="yes"/>
			<point x="8" y="674"/>
			<point x="225" y="934"/>
			<point x="405" y="934" type="qcurve" smooth="yes"/>
			<point x="530" y="934"/>
			<point x="677" y="860"/>
			<point x="713" y="812" type="qcurve"/>
			<point x="713" y="812" type="line"/>
			<point x="713" y="914" type="line"/>
			<point x="1276" y="914" type="line"/>
			<point x="1276" y="-418" type="line"/>
			<point x="707" y="-418" type="line"/>
			<point x="707" y="116" type="line"/>
			<point x="711" y="116" type="line"/>
			<point x="666" y="55"/>
			<point x="514" y="-20"/>
			<point x="405" y="-20" type="qcurve" smooth="yes"/>
			<point x="219" y="-20"/>
			<point x="8" y="242"/>
		</contour>
		<contour>
			<point x="585" y="451" type="line" smooth="yes"/>
			<point x="585" y="406"/>
			<point x="613" y="351"/>
			<point x="640" y="351" type="qcurve" smooth="yes"/>
			<point x="659" y="351"/>
			<point x="688" y="381"/>
			<point x="693" y="400" type="qcurve"/>
			<point x="693" y="514" type="line"/>
			<point x="688" y="533"/>
			<point x="659" y="563"/>
			<point x="640" y="563" type="qcurve" smooth="yes"/>
			<point x="613" y="563"/>
			<point x="585" y="506"/>
			<point x="585" y="461" type="qcurve" smooth="yes"/>
		</contour>
	</outline>
</glyph>
<glyph name="r" format="2">
  <advance width="982"/>
  <unicode hex="0072"/>
  <outline>
    <contour>
      <point x="34.0" y="0.0" type="line"/>
      <point x="34.0" y="914.0" type="line"/>
      <point x="632" y="914.0" type="line"/>
      <point x="632" y="788" type="line"/>
      <point x="633" y="788" type="line"/>
      <point x="672" y="851"/>
      <point x="798" y="926.0"/>
      <point x="867.0" y="926.0" type="qcurve" smooth="yes"/>
      <point x="912" y="926.0"/>
      <point x="971.0" y="917.0"/>
      <point x="981" y="913.0" type="qcurve"/>
      <point x="981" y="508.0" type="line"/>
      <point x="961" y="519.0"/>
      <point x="899" y="528.0"/>
      <point x="860" y="528.0" type="qcurve" smooth="yes"/>
      <point x="803" y="528.0"/>
      <point x="674" y="458"/>
      <point x="637.0" y="397" type="qcurve"/>
      <point x="637.0" y="0.0" type="line"/>
    </contour>
  </outline>
</glyph>
<glyph name="s" format="2">
  <advance width="1213"/>
  <unicode hex="0073"/>
  <outline>
    <contour>
      <point x="18.666666666666664" y="313.8" type="line"/>
      <point x="516.6666666666667" y="305.8" type="line"/>
      <point x="516.6666666666667" y="287.4" type="line" smooth="yes"/>
      <point x="516.6666666666667" y="258.4666666666667"/>
      <point x="558.6666666666667" y="246.33333333333334"/>
      <point x="591.6" y="246.33333333333334" type="qcurve" smooth="yes"/>
      <point x="629.5333333333333" y="246.33333333333334"/>
      <point x="655.2666666666667" y="259.8666666666667"/>
      <point x="655.2666666666667" y="270.1333333333333" type="qcurve" smooth="yes"/>
      <point x="655.2666666666667" y="281.4"/>
      <point x="630.5333333333333" y="295.8"/>
      <point x="451.0" y="320.26666666666665" type="qcurve" smooth="yes"/>
      <point x="208.46666666666667" y="353.8"/>
      <point x="34.13333333333334" y="501.9333333333333"/>
      <point x="34.13333333333334" y="632.4666666666667" type="qcurve" smooth="yes"/>
      <point x="34.13333333333334" y="786.1333333333333"/>
      <point x="331.53333333333336" y="952.0"/>
      <point x="608.2666666666667" y="952.0" type="qcurve" smooth="yes"/>
      <point x="875.0" y="952.0"/>
      <point x="1162.3333333333335" y="781.6"/>
      <point x="1162.3333333333335" y="625.5333333333333" type="qcurve" smooth="yes"/>
      <point x="1162.3333333333335" y="601.2" type="line"/>
      <point x="666.3333333333334" y="601.2" type="line"/>
      <point x="666.3333333333334" y="624.2666666666667" type="line" smooth="yes"/>
      <point x="666.3333333333334" y="642.6"/>
      <point x="628.5333333333333" y="659.6666666666666"/>
      <point x="591.2666666666667" y="659.6666666666666" type="qcurve" smooth="yes"/>
      <point x="557.0" y="659.6666666666666"/>
      <point x="530.2" y="649.1333333333333"/>
      <point x="530.2" y="635.8666666666667" type="qcurve" smooth="yes"/>
      <point x="530.2" y="621.6"/>
      <point x="575.1333333333333" y="607.6"/>
      <point x="745.7333333333333" y="590.0666666666667" type="qcurve" smooth="yes"/>
      <point x="977.2666666666667" y="566.6"/>
      <point x="1193.4666666666667" y="427.06666666666666"/>
      <point x="1193.4666666666667" y="291.53333333333336" type="qcurve" smooth="yes"/>
      <point x="1193.4666666666667" y="137.86666666666667"/>
      <point x="889.3333333333334" y="-27.0"/>
      <point x="607.6" y="-27.0" type="qcurve" smooth="yes"/>
      <point x="335.8666666666667" y="-27.0"/>
      <point x="30.666666666666664" y="141.66666666666669"/>
      <point x="19.666666666666664" y="298.1333333333333" type="qcurve" smooth="yes"/>
    </contour>
  </outline>
</glyph>
<glyph name="t" format="2">
  <advance width="923"/>
  <unicode hex="0074"/>
  <outline>
    <contour>
      <point x="20.0" y="515.5333333333333" type="line"/>
      <point x="20.0" y="914.0" type="line"/>
      <point x="887.0" y="914.0" type="line"/>
      <point x="887.0" y="515.5333333333333" type="line"/>
    </contour>
    <contour>
      <point x="142.33333333333331" y="327.73333333333335" type="qcurve" smooth="yes"/>
      <point x="142.33333333333331" y="869.8" type="line"/>
      <point x="162.33333333333331" y="880.8" type="line"/>
      <point x="162.33333333333331" y="1172.0" type="line"/>
      <point x="712.3333333333333" y="1172.0" type="line"/>
      <point x="712.3333333333333" y="505.73333333333335" type="line" smooth="yes"/>
      <point x="712.3333333333333" y="414.73333333333335"/>
      <point x="752.8666666666667" y="365.73333333333335"/>
      <point x="800.0" y="365.73333333333335" type="qcurve" smooth="yes"/>
      <point x="830.6" y="365.73333333333335"/>
      <point x="880.0666666666667" y="370.8"/>
      <point x="903.6" y="377.73333333333335" type="qcurve"/>
      <point x="903.6" y="14.0" type="line"/>
      <point x="863.8666666666667" y="4.0"/>
      <point x="683.9333333333334" y="-20.0"/>
      <point x="535.4" y="-20.0" type="qcurve" smooth="yes"/>
      <point x="339.3333333333333" y="-20.0"/>
      <point x="142.33333333333331" y="154.8"/>
    </contour>
  </outline>
</glyph>
<glyph name="u" format="2">
  <advance width="1306"/>
  <unicode hex="0075"/>
  <outline>
    <contour>
      <point x="26.0" y="313" type="qcurve" smooth="yes"/>
      <point x="26.0" y="914.0" type="line"/>
      <point x="612.0" y="914.0" type="line"/>
      <point x="612.0" y="423" type="line" smooth="yes"/>
      <point x="612" y="399"/>
      <point x="631" y="374"/>
      <point x="644" y="374" type="qcurve" smooth="yes"/>
      <point x="657" y="374"/>
      <point x="680" y="399"/>
      <point x="686.0" y="420" type="qcurve"/>
      <point x="686.0" y="914.0" type="line"/>
      <point x="1272.0" y="914.0" type="line"/>
      <point x="1272.0" y="0.0" type="line"/>
      <point x="688" y="0.0" type="line"/>
      <point x="688" y="118" type="line"/>
      <point x="687" y="118" type="line"/>
      <point x="663" y="58"/>
      <point x="505.0" y="-29.0"/>
      <point x="373" y="-29.0" type="qcurve" smooth="yes"/>
      <point x="222" y="-29.0"/>
      <point x="26.0" y="133"/>
    </contour>
  </outline>
</glyph>
<glyph name="v" format="2">
  <advance width="1265"/>
  <unicode hex="0076"/>
  <outline>
    <contour>
      <point x="-14.100000000000001" y="914.0" type="line"/>
      <point x="543.6" y="914.0" type="line"/>
      <point x="636.6" y="615.5" type="line" smooth="yes"/>
      <point x="639.5" y="605.6"/>
      <point x="647.0" y="577.5"/>
      <point x="649.0" y="564.5" type="qcurve"/>
      <point x="649.9" y="564.5" type="line"/>
      <point x="651.9" y="577.5"/>
      <point x="659.3" y="605.5"/>
      <point x="662.3" y="615.5" type="qcurve" smooth="yes"/>
      <point x="766.2" y="914.0" type="line"/>
      <point x="1278.7" y="914.0" type="line"/>
      <point x="919.6" y="0.0" type="line"/>
      <point x="354.1" y="0.0" type="line"/>
    </contour>
  </outline>
</glyph>
<glyph name="w" format="2">
  <advance width="1918"/>
  <unicode hex="0077"/>
  <outline>
    <contour>
      <point x="-12.0" y="914.0" type="line"/>
      <point x="534.7" y="914.0" type="line"/>
      <point x="610.9" y="633.6" type="line" smooth="yes"/>
      <point x="619.7" y="602.6"/>
      <point x="628.2" y="572.6"/>
      <point x="635.2" y="541.6" type="qcurve"/>
      <point x="638.2" y="541.6" type="line"/>
      <point x="648.3" y="572.6"/>
      <point x="654.8" y="602.6"/>
      <point x="662.7" y="633.6" type="qcurve" smooth="yes"/>
      <point x="735.1" y="914.0" type="line"/>
      <point x="1229.9" y="914.0" type="line"/>
      <point x="1305.4" y="624.6" type="line" smooth="yes"/>
      <point x="1313.4" y="595.6"/>
      <point x="1320.8" y="567.6"/>
      <point x="1327.9" y="538.6" type="qcurve"/>
      <point x="1333.9" y="538.6" type="line"/>
      <point x="1339.9" y="567.6"/>
      <point x="1347.2" y="595.6"/>
      <point x="1355.2" y="624.6" type="qcurve" smooth="yes"/>
      <point x="1429.3" y="914.0" type="line"/>
      <point x="1930.6" y="914.0" type="line"/>
      <point x="1648.6" y="0.0" type="line"/>
      <point x="1067.0" y="0.0" type="line"/>
      <point x="976.8" y="273.2" type="line" smooth="yes"/>
      <point x="970.8" y="292.20000000000005"/>
      <point x="964.5" y="322.20000000000005"/>
      <point x="957.7" y="341.20000000000005" type="qcurve"/>
      <point x="954.8" y="341.20000000000005" type="line"/>
      <point x="949.0" y="322.20000000000005"/>
      <point x="943.4" y="292.20000000000005"/>
      <point x="937.6" y="273.2" type="qcurve" smooth="yes"/>
      <point x="857.4" y="0.0" type="line"/>
      <point x="267.0" y="0.0" type="line"/>
    </contour>
  </outline>
</glyph>
<glyph name="x" format="2">
  <advance width="1197"/>
  <unicode hex="0078"/>
  <outline>
    <contour>
      <point x="-18.0" y="0.0" type="line"/>
      <point x="354.1333333333333" y="586.2666666666667" type="line"/>
      <point x="519.0666666666666" y="586.2666666666667" type="line"/>
      <point x="727.8" y="914.0" type="line"/>
      <point x="1205.4666666666667" y="914.0" type="line"/>
      <point x="845.9333333333333" y="331.3333333333333" type="line"/>
      <point x="643.0666666666666" y="331.3333333333333" type="line"/>
      <point x="459.73333333333335" y="0.0" type="line"/>
    </contour>
    <contour>
      <point x="-8.333333333333334" y="914.0" type="line"/>
      <point x="586.2" y="914.0" type="line"/>
      <point x="792.1333333333333" y="559.2" type="line"/>
      <point x="850.3333333333334" y="559.2" type="line"/>
      <point x="1215.2" y="0.0" type="line"/>
      <point x="620.7333333333333" y="0.0" type="line"/>
      <point x="396.46666666666664" y="375.6" type="line"/>
      <point x="343.2" y="375.6" type="line"/>
    </contour>
  </outline>
</glyph>
<glyph name="y" format="2">
  <advance width="1265"/>
  <unicode hex="0079"/>
  <anchor x="651.0" y="914.0" name="top"/>
  <outline>
    <contour>
      <point x="-55.1" y="-404.0" type="qcurve"/>
      <point x="5.900000000000006" y="-57.400000000000006" type="line"/>
      <point x="47.599999999999994" y="-62.400000000000006"/>
      <point x="129.1" y="-68.4"/>
      <point x="171.8" y="-68.4" type="qcurve" smooth="yes"/>
      <point x="265.1" y="-68.4"/>
      <point x="354.5" y="-40.0"/>
      <point x="368.2" y="0.6000000000000001" type="qcurve"/>
      <point x="365.5" y="1.5" type="line"/>
      <point x="-14.0" y="914.0" type="line"/>
      <point x="540.7" y="914.0" type="line"/>
      <point x="631.2" y="615.5" type="line" smooth="yes"/>
      <point x="636.1" y="599.6"/>
      <point x="643.5" y="576.5"/>
      <point x="648.5" y="558.5" type="qcurve"/>
      <point x="648.4" y="558.5" type="line"/>
      <point x="654.4" y="576.5"/>
      <point x="660.9" y="599.5"/>
      <point x="666.8" y="616.5" type="qcurve" smooth="yes"/>
      <point x="770.3" y="914.0" type="line"/>
      <point x="1276.6" y="914.0" type="line"/>
      <point x="958.0" y="96.0" type="line" smooth="yes"/>
      <point x="830.6" y="-230.39999999999998"/>
      <point x="536.8" y="-436.0"/>
      <point x="308.1" y="-436.0" type="qcurve" smooth="yes"/>
      <point x="167.3" y="-436.0"/>
      <point x="-2.299999999999997" y="-417.1"/>
    </contour>
  </outline>
</glyph>
<glyph name="z" format="2">
	<unicode hex="007A"/>
	<advance width="1091"/>
	<outline>
		<contour>
			<point x="14" y="0" type="line"/>
			<point x="14" y="289.5" type="line"/>
			<point x="310.6" y="513.3" type="line"/>
			<point x="32.9" y="513.3" type="line"/>
			<point x="32.9" y="914" type="line"/>
			<point x="1039.4" y="914" type="line"/>
			<point x="1039.4" y="605.4" type="line"/>
			<point x="742.8" y="380.7" type="line"/>
			<point x="1078" y="380.7" type="line"/>
			<point x="1078" y="0" type="line"/>
		</contour>
	</outline>
</glyph>
<glyph name="braceleft" format="2">
	<unicode hex="007B"/>
	<advance width="905"/>
	<outline>
		<contour>
			<point x="885.7" y="-312" type="line"/>
			<point x="389.3" y="-332"/>
			<point x="115.1" y="-101.7"/>
			<point x="165.5" y="99" type="qcurve" smooth="yes"/>
			<point x="211.5" y="281.7" type="line" smooth="yes"/>
			<point x="223.9" y="332.7"/>
			<point x="126.6" y="357.7"/>
			<point x="32" y="357.7" type="qcurve"/>
			<point x="32" y="790.3" type="line"/>
			<point x="126.6" y="790.3"/>
			<point x="223.9" y="815.3"/>
			<point x="211.5" y="866.3" type="qcurve" smooth="yes"/>
			<point x="165.5" y="1049" type="line" smooth="yes"/>
			<point x="117.1" y="1240.7"/>
			<point x="389.3" y="1470"/>
			<point x="885.7" y="1460" type="qcurve"/>
			<point x="885.7" y="1062.7" type="line"/>
			<point x="778.7" y="1062.7"/>
			<point x="665.1" y="1029.7"/>
			<point x="679.4" y="976.7" type="qcurve" smooth="yes"/>
			<point x="725.5" y="814" type="line" smooth="yes"/>
			<point x="749" y="729.8"/>
			<point x="669.9" y="606"/>
			<point x="570.6" y="574" type="qcurve"/>
			<point x="669.9" y="542"/>
			<point x="749" y="418.2"/>
			<point x="725.5" y="334" type="qcurve" smooth="yes"/>
			<point x="679.4" y="171.3" type="line" smooth="yes"/>
			<point x="665.1" y="118.3"/>
			<point x="778.7" y="85.3"/>
			<point x="885.7" y="85.3" type="qcurve"/>
		</contour>
	</outline>
</glyph>
<glyph name="braceright" format="2">
  <advance width="905"/>
  <unicode hex="007D"/>
  <outline>
    <contour>
      <point x="20.0" y="-314.0" type="qcurve"/>
      <point x="20.0" y="83.3" type="line"/>
      <point x="127.0" y="83.3"/>
      <point x="237.1" y="116.4"/>
      <point x="222.2" y="169.3" type="qcurve" smooth="yes"/>
      <point x="175.2" y="332.0" type="line" smooth="yes"/>
      <point x="151.3" y="416.1"/>
      <point x="231.8" y="540.0"/>
      <point x="331.1" y="572.0" type="qcurve"/>
      <point x="231.8" y="604.0"/>
      <point x="151.3" y="727.9"/>
      <point x="175.2" y="812.0" type="qcurve" smooth="yes"/>
      <point x="222.2" y="974.7" type="line" smooth="yes"/>
      <point x="237.1" y="1027.6"/>
      <point x="127.0" y="1060.7"/>
      <point x="20.0" y="1060.7" type="qcurve"/>
      <point x="20.0" y="1458.0" type="line"/>
      <point x="516.4" y="1478.0"/>
      <point x="787.4" y="1247.6"/>
      <point x="736.1" y="1047.0" type="qcurve" smooth="yes"/>
      <point x="689.1" y="864.3" type="line" smooth="yes"/>
      <point x="676.3" y="813.4"/>
      <point x="779.1" y="788.3"/>
      <point x="873.7" y="788.3" type="qcurve"/>
      <point x="873.7" y="355.7" type="line"/>
      <point x="779.1" y="355.7"/>
      <point x="676.3" y="330.6"/>
      <point x="689.1" y="279.7" type="qcurve" smooth="yes"/>
      <point x="736.1" y="97.0" type="line" smooth="yes"/>
      <point x="785.4" y="-94.6"/>
      <point x="516.4" y="-324.0"/>
    </contour>
  </outline>
</glyph>
<glyph name="asciitilde" format="2">
  <advance width="1170"/>
  <unicode hex="007E"/>
  <outline>
    <contour>
      <point x="9.0" y="268.0" type="qcurve"/>
      <point x="9.0" y="823.5" type="line"/>
      <point x="56.0" y="898.5"/>
      <point x="194.0" y="967.5"/>
      <point x="285.0" y="967.5" type="qcurve" smooth="yes"/>
      <point x="352.0" y="967.5"/>
      <point x="515.0" y="933.5"/>
      <point x="611.0" y="899.5" type="qcurve" smooth="yes"/>
      <point x="709.0" y="864.5"/>
      <point x="858.0" y="824.5"/>
      <point x="918.0" y="824.5" type="qcurve" smooth="yes"/>
      <point x="986.9999999999999" y="824.5"/>
      <point x="1102.0" y="886.5"/>
      <point x="1162.0" y="955.5" type="qcurve"/>
      <point x="1162.0" y="350.0" type="line"/>
      <point x="1127.0" y="310.0"/>
      <point x="1013.0" y="256.0"/>
      <point x="921.0" y="256.0" type="qcurve" smooth="yes"/>
      <point x="853.0" y="256.0"/>
      <point x="670.0" y="292.0"/>
      <point x="551.0" y="329.0" type="qcurve" smooth="yes"/>
      <point x="460.0" y="358.0"/>
      <point x="316.99999999999994" y="387.0"/>
      <point x="262.0" y="387.0" type="qcurve" smooth="yes"/>
      <point x="162.0" y="387.0"/>
      <point x="48.0" y="315.0"/>
    </contour>
  </outline>
</glyph>
<glyph name="sterling" format="2">
  <advance width="1286"/>
  <unicode hex="00A3"/>
  <outline>
    <contour>
      <point x="1275.0" y="0.0" type="line"/>
      <point x="12.0" y="0.0" type="line"/>
      <point x="12.0" y="353.66666666666663" type="line"/>
      <point x="68.0" y="353.66666666666663" type="line" smooth="yes"/>
      <point x="100.33333333333334" y="353.66666666666663"/>
      <point x="111.73333333333332" y="427.26666666666665"/>
      <point x="99.0" y="547.0" type="qcurve" smooth="yes"/>
      <point x="55.53333333333333" y="930.7333333333333" type="line" smooth="yes"/>
      <point x="23.066666666666663" y="1220.6"/>
      <point x="297.0" y="1476.6666666666667"/>
      <point x="637.0" y="1476.6666666666667" type="qcurve" smooth="yes"/>
      <point x="952.0" y="1476.6666666666667"/>
      <point x="1232.4666666666667" y="1229.6666666666667"/>
      <point x="1232.4666666666667" y="953.6666666666667" type="qcurve" smooth="yes"/>
      <point x="1232.4666666666667" y="937.0" type="line"/>
      <point x="706.0" y="937.0" type="line"/>
      <point x="706.0" y="953.6666666666667" type="line" smooth="yes"/>
      <point x="706.0" y="1023.0"/>
      <point x="675.0" y="1085.6666666666667"/>
      <point x="639.0" y="1085.6666666666667" type="qcurve" smooth="yes"/>
      <point x="605.0666666666667" y="1085.6666666666667"/>
      <point x="584.3333333333333" y="1013.6666666666667"/>
      <point x="592.5333333333333" y="930.7333333333333" type="qcurve" smooth="yes"/>
      <point x="632.0" y="574.0" type="line" smooth="yes"/>
      <point x="642.8666666666667" y="482.6"/>
      <point x="589.4666666666667" y="378.3333333333333"/>
      <point x="532.0" y="357.66666666666663" type="qcurve"/>
      <point x="1275.0" y="357.66666666666663" type="line"/>
    </contour>
    <contour>
      <point x="791.0" y="623.0" type="line"/>
      <point x="28.0" y="623.0" type="line"/>
      <point x="28.0" y="782.0" type="line"/>
      <point x="791.0" y="782.0" type="line"/>
    </contour>
  </outline>
</glyph>
<glyph name="brokenbar" format="2">
  <advance width="592"/>
  <unicode hex="00A6"/>
  <guideline x="0" y="901.0" angle="0" identifier="jmguX8NWKI"/>
  <guideline x="0" y="555.0" angle="0" identifier="Z0RZpP7MTi"/>
  <outline>
    <contour>
      <point x="387.0" y="-416.0" type="line"/>
      <point x="205.0" y="-416.0" type="line"/>
      <point x="205.0" y="359.0" type="line"/>
      <point x="387.0" y="359.0" type="line"/>
    </contour>
    <contour>
      <point x="387.0" y="1536.0" type="line"/>
      <point x="387.0" y="761.0" type="line"/>
      <point x="205.0" y="761.0" type="line"/>
      <point x="205.0" y="1536.0" type="line"/>
    </contour>
  </outline>
</glyph>
<glyph name="dieresis" format="2">
  <advance width="1024"/>
  <unicode hex="00A8"/>
  <outline>
    <contour>
      <point x="49.33333333333333" y="1167.4666666666667" type="qcurve" smooth="yes"/>
      <point x="49.33333333333333" y="1256.5333333333333"/>
      <point x="159.73333333333332" y="1379.0"/>
      <point x="266.0" y="1379.0" type="qcurve" smooth="yes"/>
      <point x="371.2" y="1379.0"/>
      <point x="482.6" y="1256.5333333333333"/>
      <point x="482.6" y="1167.4666666666667" type="qcurve" smooth="yes"/>
      <point x="482.6" y="1083.2"/>
      <point x="371.2" y="962.6666666666666"/>
      <point x="266.0" y="962.6666666666666" type="qcurve" smooth="yes"/>
      <point x="159.73333333333332" y="962.6666666666666"/>
      <point x="49.33333333333333" y="1083.2"/>
    </contour>
    <contour>
      <point x="541.4" y="1165.4666666666667" type="qcurve" smooth="yes"/>
      <point x="541.4" y="1254.5333333333333"/>
      <point x="649.8666666666667" y="1377.0"/>
      <point x="757.0666666666667" y="1377.0" type="qcurve" smooth="yes"/>
      <point x="860.3333333333334" y="1377.0"/>
      <point x="973.6666666666666" y="1254.5333333333333"/>
      <point x="973.6666666666666" y="1165.4666666666667" type="qcurve" smooth="yes"/>
      <point x="973.6666666666666" y="1081.2"/>
      <point x="860.3333333333334" y="960.6666666666666"/>
      <point x="757.0666666666667" y="960.6666666666666" type="qcurve" smooth="yes"/>
      <point x="649.8666666666667" y="960.6666666666666"/>
      <point x="541.4" y="1081.2"/>
    </contour>
  </outline>
</glyph>
<glyph name="logicalnot" format="2">
  <advance width="1170"/>
  <unicode hex="00AC"/>
  <outline>
    <contour>
      <point x="1131.3333333333335" y="903.0" type="line"/>
      <point x="1131.3333333333335" y="275.3333333333333" type="line"/>
      <point x="543.6666666666666" y="275.3333333333333" type="line"/>
      <point x="543.6666666666666" y="535.0" type="line"/>
      <point x="40.0" y="535.0" type="line"/>
      <point x="40.0" y="903.0" type="line"/>
    </contour>
  </outline>
</glyph>
<glyph name="plusminus" format="2">
  <advance width="1135"/>
  <unicode hex="00B1"/>
  <outline>
    <contour>
      <point x="56.0" y="703.0" type="line"/>
      <point x="56.0" y="1197.0" type="line"/>
      <point x="1079.0" y="1197.0" type="line"/>
      <point x="1079.0" y="703.0" type="line"/>
    </contour>
    <contour>
      <point x="315.0" y="444.0" type="line"/>
      <point x="315.0" y="1456.0" type="line"/>
      <point x="821.0" y="1456.0" type="line"/>
      <point x="821.0" y="444.0" type="line"/>
    </contour>
    <contour>
      <point x="56.0" y="-1.0" type="line"/>
      <point x="56.0" y="491.6666666666667" type="line"/>
      <point x="1079.0" y="491.6666666666667" type="line"/>
      <point x="1079.0" y="-1.0" type="line"/>
    </contour>
  </outline>
</glyph>
<glyph name="onesuperior" format="2">
  <advance width="751"/>
  <unicode hex="00B9"/>
  <outline>
    <contour>
      <point x="51.8" y="1040.8" type="line"/>
      <point x="51.8" y="1389.8" type="line"/>
      <point x="386.33333333333337" y="1486.0" type="line"/>
      <point x="602.3333333333333" y="1486.0" type="line"/>
      <point x="602.3333333333333" y="697.0" type="line"/>
      <point x="236.33333333333334" y="697.0" type="line"/>
      <point x="236.33333333333334" y="1085.3333333333333" type="line"/>
    </contour>
  </outline>
</glyph>
<glyph name="multiply" format="2">
  <advance width="1135"/>
  <unicode hex="00D7"/>
  <outline>
    <contour>
      <point x="380.46666666666664" y="137.53333333333333" type="line"/>
      <point x="31.53333333333333" y="487.46666666666664" type="line"/>
      <point x="754.5333333333333" y="1210.4666666666667" type="line"/>
      <point x="1104.4666666666667" y="861.5333333333333" type="line"/>
    </contour>
    <contour>
      <point x="754.7333333333333" y="137.53333333333333" type="line"/>
      <point x="31.733333333333334" y="861.5333333333333" type="line"/>
      <point x="380.3333333333333" y="1211.4666666666667" type="line"/>
      <point x="1103.3333333333335" y="487.46666666666664" type="line"/>
    </contour>
  </outline>
</glyph>
<glyph name="divide" format="2">
  <advance width="1200"/>
  <unicode hex="00F7"/>
  <outline>
    <contour>
      <point x="391.4" y="1113.5333333333333" type="qcurve" smooth="yes"/>
      <point x="391.4" y="1202.6666666666667"/>
      <point x="496.66666666666663" y="1318.2"/>
      <point x="599.0" y="1318.2" type="qcurve" smooth="yes"/>
      <point x="701.2666666666667" y="1318.2"/>
      <point x="808.6" y="1202.6666666666667"/>
      <point x="808.6" y="1113.5333333333333" type="qcurve" smooth="yes"/>
      <point x="808.6" y="1029.4666666666667"/>
      <point x="701.2666666666667" y="914.0"/>
      <point x="599.0" y="914.0" type="qcurve" smooth="yes"/>
      <point x="496.66666666666663" y="914.0"/>
      <point x="391.4" y="1029.4666666666667"/>
    </contour>
    <contour>
      <point x="391.4" y="219.39999999999998" type="qcurve" smooth="yes"/>
      <point x="391.4" y="308.46666666666664"/>
      <point x="496.66666666666663" y="424.0"/>
      <point x="599.0" y="424.0" type="qcurve" smooth="yes"/>
      <point x="701.2666666666667" y="424.0"/>
      <point x="808.6" y="308.46666666666664"/>
      <point x="808.6" y="219.39999999999998" type="qcurve" smooth="yes"/>
      <point x="808.6" y="135.26666666666668"/>
      <point x="701.2666666666667" y="19.80000000000001"/>
      <point x="599.0" y="19.80000000000001" type="qcurve" smooth="yes"/>
      <point x="496.66666666666663" y="19.80000000000001"/>
      <point x="391.4" y="135.26666666666668"/>
    </contour>
    <contour>
      <point x="88.0" y="487.26666666666665" type="line"/>
      <point x="88.0" y="861.2666666666667" type="line"/>
      <point x="1111.0" y="861.2666666666667" type="line"/>
      <point x="1111.0" y="487.26666666666665" type="line"/>
    </contour>
  </outline>
</glyph>
<glyph name="florin" format="2">
  <advance width="931"/>
  <unicode hex="0192"/>
  <outline>
    <contour>
      <point x="859.0" y="861.6666666666666" type="line"/>
      <point x="859.0" y="465.0" type="line"/>
      <point x="703.0" y="465.0" type="line"/>
      <point x="703.0" y="111.0" type="line" smooth="yes"/>
      <point x="703.0" y="-174.0"/>
      <point x="403.0" y="-439.0"/>
      <point x="160.0" y="-439.0" type="qcurve" smooth="yes"/>
      <point x="112.0" y="-439.0"/>
      <point x="10.0" y="-430.0"/>
      <point x="-44.0" y="-420.0" type="qcurve"/>
      <point x="-36.0" y="-24.333333333333343" type="line"/>
      <point x="-12.0" y="-32.33333333333334"/>
      <point x="28.0" y="-41.33333333333334"/>
      <point x="45.0" y="-41.33333333333334" type="qcurve" smooth="yes"/>
      <point x="89.0" y="-41.33333333333334"/>
      <point x="127.0" y="31.666666666666664"/>
      <point x="127.0" y="113.0" type="qcurve" smooth="yes"/>
      <point x="127.0" y="465.0" type="line"/>
      <point x="4.0" y="465.0" type="line"/>
      <point x="4.0" y="861.6666666666666" type="line"/>
      <point x="127.0" y="861.6666666666666" type="line"/>
      <point x="127.0" y="1035.0" type="line" smooth="yes"/>
      <point x="127.0" y="1248.0"/>
      <point x="437.0" y="1478.0"/>
      <point x="670.0" y="1478.0" type="qcurve" smooth="yes"/>
      <point x="775.0" y="1478.0"/>
      <point x="959.0" y="1446.0"/>
      <point x="1024.0" y="1416.0" type="qcurve"/>
      <point x="895.0" y="1043.0" type="line"/>
      <point x="865.0" y="1052.0"/>
      <point x="814.0" y="1061.0"/>
      <point x="794.0" y="1061.0" type="qcurve" smooth="yes"/>
      <point x="739.0" y="1061.0"/>
      <point x="693.0" y="991.0"/>
      <point x="693.0" y="919.0" type="qcurve" smooth="yes"/>
      <point x="693.0" y="861.6666666666666" type="line"/>
    </contour>
  </outline>
</glyph>
<glyph name="schwa" format="2">
  <advance width="1276"/>
  <unicode hex="0259"/>
  <outline>
    <contour>
      <point x="1256.8666666666668" y="475.93333333333334" type="qcurve" smooth="yes"/>
      <point x="1256.8666666666668" y="443.93333333333334" type="line" smooth="yes"/>
      <point x="1256.8666666666668" y="223.93333333333334"/>
      <point x="912.5333333333333" y="-27.066666666666666"/>
      <point x="616.0" y="-27.066666666666666" type="qcurve" smooth="yes"/>
      <point x="331.4" y="-27.066666666666666"/>
      <point x="18.6" y="226.93333333333334"/>
      <point x="18.733333333333334" y="435.93333333333334" type="qcurve" smooth="yes"/>
      <point x="18.733333333333334" y="499.9333333333333" type="line"/>
      <point x="915.1333333333333" y="499.9333333333333" type="line"/>
      <point x="915.1333333333333" y="416.1333333333333" type="line"/>
      <point x="575.5333333333333" y="416.1333333333333" type="line"/>
      <point x="575.6" y="407.2" type="line"/>
      <point x="575.5333333333333" y="376.8666666666667"/>
      <point x="596.0666666666666" y="345.6"/>
      <point x="623.5333333333333" y="345.6" type="qcurve" smooth="yes"/>
      <point x="648.3333333333334" y="345.6"/>
      <point x="675.9333333333333" y="380.46666666666664"/>
      <point x="675.9333333333333" y="428.93333333333334" type="qcurve" smooth="yes"/>
      <point x="675.9333333333333" y="479.93333333333334" type="line" smooth="yes"/>
      <point x="675.9333333333333" y="535.4"/>
      <point x="641.7333333333333" y="573.8"/>
      <point x="612.3333333333333" y="573.8" type="qcurve" smooth="yes"/>
      <point x="579.7333333333333" y="573.8"/>
      <point x="545.2666666666667" y="545.4666666666667"/>
      <point x="536.6666666666667" y="520.6" type="qcurve"/>
      <point x="22.133333333333333" y="588.2" type="line"/>
      <point x="76.2" y="776.8"/>
      <point x="348.73333333333335" y="950.0"/>
      <point x="609.3333333333333" y="950.0" type="qcurve" smooth="yes"/>
      <point x="917.2666666666667" y="950.0"/>
      <point x="1256.8666666666668" y="700.9333333333333"/>
    </contour>
  </outline>
</glyph>
<glyph name="dotaccent" format="2">
  <advance width="1024"/>
  <unicode hex="02D9"/>
  <outline>
    <contour>
      <point x="295.06666666666666" y="1184.2666666666667" type="qcurve" smooth="yes"/>
      <point x="295.06666666666666" y="1273.3333333333333"/>
      <point x="405.6666666666667" y="1396.0"/>
      <point x="512.0" y="1396.0" type="qcurve" smooth="yes"/>
      <point x="617.3333333333334" y="1396.0"/>
      <point x="728.9333333333333" y="1273.3333333333333"/>
      <point x="728.9333333333333" y="1184.2666666666667" type="qcurve" smooth="yes"/>
      <point x="728.9333333333333" y="1100.2"/>
      <point x="617.3333333333334" y="979.5333333333333"/>
      <point x="512.0" y="979.5333333333333" type="qcurve" smooth="yes"/>
      <point x="405.6666666666667" y="979.5333333333333"/>
      <point x="295.06666666666666" y="1100.2"/>
    </contour>
  </outline>
</glyph>
<glyph name="ring" format="2">
  <advance width="1024"/>
  <unicode hex="02DA"/>
  <outline>
    <contour>
      <point x="234.2" y="1193.0" type="qcurve"/>
      <point x="234.2" y="1302.6666666666667"/>
      <point x="394.26666666666665" y="1458.6"/>
      <point x="512.0" y="1458.6" type="qcurve" smooth="yes"/>
      <point x="627.7333333333333" y="1458.6"/>
      <point x="789.8" y="1302.6666666666667"/>
      <point x="789.8" y="1193.0" type="qcurve" smooth="yes"/>
      <point x="789.8" y="1081.3333333333333"/>
      <point x="627.7333333333333" y="931.4"/>
      <point x="512.0" y="931.4" type="qcurve" smooth="yes"/>
      <point x="394.26666666666665" y="931.4"/>
      <point x="234.2" y="1081.3333333333333"/>
    </contour>
    <contour>
      <point x="433.3333333333333" y="1194.0" type="qcurve"/>
      <point x="433.3333333333333" y="1163.4666666666667"/>
      <point x="477.6" y="1116.2666666666667"/>
      <point x="512.0" y="1116.2666666666667" type="qcurve" smooth="yes"/>
      <point x="546.4" y="1116.2666666666667"/>
      <point x="590.6666666666666" y="1162.5333333333333"/>
      <point x="590.6666666666666" y="1194.0" type="qcurve" smooth="yes"/>
      <point x="590.6666666666666" y="1224.5333333333333"/>
      <point x="546.4" y="1272.7333333333333"/>
      <point x="512.0" y="1272.7333333333333" type="qcurve" smooth="yes"/>
      <point x="477.6" y="1272.7333333333333"/>
      <point x="433.3333333333333" y="1224.5333333333333"/>
    </contour>
  </outline>
</glyph>
<glyph name="tilde" format="2">
  <advance width="1024"/>
  <unicode hex="02DC"/>
  <outline>
    <contour>
      <point x="31.133333333333326" y="1169.2" type="line"/>
      <point x="73.86666666666667" y="1281.7333333333333"/>
      <point x="248.26666666666665" y="1453.3333333333333"/>
      <point x="338.26666666666665" y="1453.3333333333333" type="qcurve" smooth="yes"/>
      <point x="391.3333333333333" y="1453.3333333333333"/>
      <point x="488.6" y="1429.3333333333333"/>
      <point x="535.8" y="1406.3333333333333" type="qcurve" smooth="yes"/>
      <point x="579.9333333333333" y="1385.3333333333333"/>
      <point x="680.2666666666667" y="1342.3333333333333"/>
      <point x="730.4" y="1342.3333333333333" type="qcurve" smooth="yes"/>
      <point x="782.6" y="1342.3333333333333"/>
      <point x="872.9333333333333" y="1392.3333333333333"/>
      <point x="902.0" y="1428.3333333333333" type="qcurve"/>
      <point x="1007.7333333333333" y="1233.5333333333333" type="line"/>
      <point x="960.5333333333333" y="1111.9333333333334"/>
      <point x="804.6" y="981.0"/>
      <point x="713.9333333333333" y="981.0" type="qcurve" smooth="yes"/>
      <point x="649.6666666666666" y="981.0"/>
      <point x="528.6666666666666" y="1024.6666666666667"/>
      <point x="488.66666666666663" y="1041.6666666666667" type="qcurve" smooth="yes"/>
      <point x="444.6666666666667" y="1060.6666666666667"/>
      <point x="356.0" y="1097.0"/>
      <point x="319.0" y="1097.0" type="qcurve" smooth="yes"/>
      <point x="259.0" y="1097.0"/>
      <point x="154.0" y="1023.0"/>
      <point x="131.0" y="995.0" type="qcurve"/>
    </contour>
  </outline>
</glyph>
<glyph name="hungarumlaut" format="2">
  <advance width="1024"/>
  <unicode hex="02DD"/>
  <outline>
    <contour>
      <point x="22.133333333333333" y="1121.6666666666667" type="line"/>
      <point x="264.6" y="1506.8666666666666" type="line"/>
      <point x="567.9333333333334" y="1294.2" type="line"/>
      <point x="281.6" y="951.1333333333333" type="line"/>
    </contour>
    <contour>
      <point x="499.2" y="1121.6" type="line"/>
      <point x="742.6666666666666" y="1506.8" type="line"/>
      <point x="1046.0" y="1294.1333333333334" type="line"/>
      <point x="759.6666666666666" y="951.0666666666667" type="line"/>
    </contour>
  </outline>
</glyph>
<glyph name="hookabovecomb" format="2">
  <advance width="1024"/>
  <unicode hex="0309"/>
  <outline>
    <contour>
      <point x="325.3333333333333" y="957.0" type="line"/>
      <point x="325.3333333333333" y="998.0" type="line" smooth="yes"/>
      <point x="325.3333333333333" y="1085.0"/>
      <point x="415.26666666666665" y="1167.2"/>
      <point x="481.0" y="1171.6666666666667" type="qcurve" smooth="yes"/>
      <point x="526.0666666666667" y="1176.8"/>
      <point x="551.6666666666666" y="1190.2666666666667"/>
      <point x="551.6666666666666" y="1208.4" type="qcurve" smooth="yes"/>
      <point x="551.6666666666666" y="1223.4"/>
      <point x="514.6" y="1239.6666666666667"/>
      <point x="469.06666666666666" y="1239.6666666666667" type="qcurve" smooth="yes"/>
      <point x="416.3333333333333" y="1239.6666666666667"/>
      <point x="303.46666666666664" y="1211.6666666666667"/>
      <point x="292.26666666666665" y="1207.0666666666666" type="qcurve"/>
      <point x="221.53333333333333" y="1390.2666666666667" type="line"/>
      <point x="257.8" y="1410.4666666666667"/>
      <point x="434.0" y="1453.4"/>
      <point x="532.5333333333333" y="1453.4" type="qcurve" smooth="yes"/>
      <point x="676.3333333333334" y="1453.4"/>
      <point x="837.0" y="1333.0"/>
      <point x="837.0" y="1232.4" type="qcurve" smooth="yes"/>
      <point x="837.0" y="1126.0"/>
      <point x="716.0666666666667" y="1001.0"/>
      <point x="532.4" y="990.0" type="qcurve"/>
      <point x="532.4" y="957.0" type="line"/>
    </contour>
  </outline>
</glyph>
<glyph name="numeralsign" format="2">
  <advance width="631"/>
  <unicode hex="0374"/>
  <outline>
    <contour>
      <point x="399.1333333333333" y="1015.7333333333333" type="line"/>
      <point x="89.73333333333333" y="1077.9333333333334" type="line"/>
      <point x="196.0" y="1532.0" type="line"/>
      <point x="616.2" y="1443.5333333333333" type="line"/>
    </contour>
  </outline>
</glyph>
<glyph name="Dje" format="2">
  <advance width="1627"/>
  <unicode hex="0402"/>
  <outline>
    <contour>
      <point x="318.0" y="0.0" type="line"/>
      <point x="318.0" y="985.8" type="line"/>
      <point x="4.0" y="985.8" type="line"/>
      <point x="4.0" y="1456.0" type="line"/>
      <point x="1304.1333333333334" y="1456.0" type="line"/>
      <point x="1304.1333333333334" y="985.8" type="line"/>
      <point x="932.1333333333333" y="985.8" type="line"/>
      <point x="932.1333333333333" y="0.0" type="line"/>
    </contour>
    <contour>
      <point x="964.6666666666666" y="0.0" type="line"/>
      <point x="964.6666666666666" y="338.6" type="line"/>
      <point x="973.3333333333334" y="338.6" type="line" smooth="yes"/>
      <point x="997.7333333333333" y="338.6"/>
      <point x="1026.1333333333334" y="371.0"/>
      <point x="1026.1333333333334" y="409.3333333333333" type="qcurve" smooth="yes"/>
      <point x="1026.1333333333334" y="425.3333333333333" type="line" smooth="yes"/>
      <point x="1026.1333333333334" y="458.6"/>
      <point x="1000.8" y="495.20000000000005"/>
      <point x="969.2666666666667" y="495.20000000000005" type="qcurve" smooth="yes"/>
      <point x="897.08008385744" y="495.20000000000005"/>
      <point x="789.6" y="479.1333333333333"/>
      <point x="625.0666666666667" y="448.73333333333335" type="qcurve"/>
      <point x="625.0666666666667" y="801.9333333333333" type="line"/>
      <point x="730.8" y="825.2"/>
      <point x="991.6612286002" y="861.4"/>
      <point x="1120.4" y="861.4" type="qcurve" smooth="yes"/>
      <point x="1371.2" y="861.4"/>
      <point x="1627.2666666666667" y="663.6666666666666"/>
      <point x="1627.2666666666667" y="435.2" type="qcurve" smooth="yes"/>
      <point x="1627.2666666666667" y="418.2" type="line" smooth="yes"/>
      <point x="1627.2666666666667" y="196.67309236943336"/>
      <point x="1338.3559380379" y="0.0"/>
      <point x="1036.3333333333335" y="0.0" type="qcurve" smooth="yes"/>
    </contour>
  </outline>
</glyph>
<glyph name="Nje" format="2">
  <advance width="2049"/>
  <unicode hex="040A"/>
  <outline>
    <contour>
      <point x="38.93333333333334" y="0.0" type="line"/>
      <point x="38.93333333333334" y="1456.0" type="line"/>
      <point x="643.0666666666666" y="1456.0" type="line"/>
      <point x="643.0666666666666" y="1024.6666666666665" type="line"/>
      <point x="718.9333333333333" y="1024.6666666666665" type="line"/>
      <point x="718.9333333333333" y="1456.0" type="line"/>
      <point x="1323.0666666666666" y="1456.0" type="line"/>
      <point x="1323.0666666666666" y="1024.6666666666665" type="line"/>
      <point x="1504.9333333333334" y="1024.6666666666665" type="line" smooth="yes"/>
      <point x="1790.6" y="1024.6666666666665"/>
      <point x="2038.2666666666667" y="743.1333333333333"/>
      <point x="2038.2666666666667" y="515.0" type="qcurve" smooth="yes"/>
      <point x="2038.2666666666667" y="273.8666666666667"/>
      <point x="1765.6" y="0.0"/>
      <point x="1503.9333333333334" y="0.0" type="qcurve" smooth="yes"/>
      <point x="718.9333333333333" y="0.0" type="line"/>
      <point x="718.9333333333333" y="521.4666666666667" type="line"/>
      <point x="643.0666666666666" y="521.4666666666667" type="line"/>
      <point x="643.0666666666666" y="0.0" type="line"/>
    </contour>
    <contour>
      <point x="1323.0666666666666" y="595.4666666666667" type="line"/>
      <point x="1323.0666666666666" y="429.2" type="line"/>
      <point x="1354.9333333333334" y="429.2" type="line" smooth="yes"/>
      <point x="1399.6" y="429.2"/>
      <point x="1436.2" y="475.8666666666667"/>
      <point x="1436.2" y="513.0" type="qcurve" smooth="yes"/>
      <point x="1436.2" y="548.2"/>
      <point x="1399.6" y="595.4666666666667"/>
      <point x="1354.9333333333334" y="595.4666666666667" type="qcurve" smooth="yes"/>
    </contour>
  </outline>
</glyph>
<glyph name="Zhe" format="2">
  <advance width="2172"/>
  <unicode hex="0416"/>
  <outline>
    <contour>
      <point x="793.8" y="0.0" type="line"/>
      <point x="793.8" y="1456.0" type="line"/>
      <point x="1377.9333333333334" y="1456.0" type="line"/>
      <point x="1377.9333333333334" y="0.0" type="line"/>
    </contour>
    <contour>
      <point x="1525.3333333333333" y="0.0" type="line"/>
      <point x="1366.6666666666667" y="615.0666666666667" type="line"/>
      <point x="1908.4666666666667" y="836.0666666666667" type="line"/>
      <point x="2174.333333333333" y="0.0" type="line"/>
    </contour>
    <contour>
      <point x="1086.2" y="975.0666666666667" type="line"/>
      <point x="1405.0666666666666" y="975.0666666666667" type="line"/>
      <point x="1520.2666666666667" y="1456.0" type="line"/>
      <point x="2108.2" y="1456.0" type="line"/>
      <point x="1815.6666666666667" y="499.8666666666667" type="line"/>
      <point x="1086.2" y="499.8666666666667" type="line"/>
    </contour>
    <contour>
      <point x="-2.2666666666666657" y="0.0" type="line"/>
      <point x="262.8" y="835.7333333333333" type="line"/>
      <point x="805.2666666666667" y="614.9333333333333" type="line"/>
      <point x="646.4666666666667" y="0.0" type="line"/>
    </contour>
    <contour>
      <point x="1086.2" y="975.0666666666667" type="line"/>
      <point x="1086.2" y="499.8666666666667" type="line"/>
      <point x="356.8" y="499.8666666666667" type="line"/>
      <point x="64.2" y="1456.0" type="line"/>
      <point x="651.1333333333333" y="1456.0" type="line"/>
      <point x="766.5333333333333" y="975.0666666666667" type="line"/>
    </contour>
  </outline>
</glyph>
<glyph name="Sha" format="2">
	<unicode hex="0428"/>
	<advance width="2020"/>
	<outline>
		<contour>
			<point x="40" y="1456" type="line"/>
			<point x="630" y="1456" type="line"/>
			<point x="630" y="470" type="line"/>
			<point x="715" y="470" type="line"/>
			<point x="715" y="1456" type="line"/>
			<point x="1305" y="1456" type="line"/>
			<point x="1305" y="470" type="line"/>
			<point x="1390" y="470" type="line"/>
			<point x="1390" y="1456" type="line"/>
			<point x="1980" y="1456" type="line"/>
			<point x="1980" y="0" type="line"/>
			<point x="40" y="0" type="line"/>
		</contour>
	</outline>
</glyph>
<glyph name="Ecyr" format="2">
  <advance width="1354"/>
  <unicode hex="042D"/>
  <guideline x="234.5999999999999" y="733.2666666666667" angle="90.0" identifier="Ovo68woMtl"/>
  <outline>
    <contour>
      <point x="1061.6" y="922.0666666666667" type="line"/>
      <point x="1061.6" y="529.8666666666667" type="line"/>
      <point x="475.5333333333333" y="529.8666666666667" type="line"/>
      <point x="475.5333333333333" y="922.0666666666667" type="line"/>
    </contour>
    <contour>
      <point x="683.4666666666667" y="480.5333333333333" type="qcurve" smooth="yes"/>
      <point x="683.4666666666667" y="973.4666666666667" type="line" smooth="yes"/>
      <point x="683.4666666666667" y="1031.8"/>
      <point x="652.8" y="1077.6666666666667"/>
      <point x="627.9333333333333" y="1077.6666666666667" type="qcurve" smooth="yes"/>
      <point x="605.8" y="1077.6666666666667"/>
      <point x="580.2" y="1045.7333333333333"/>
      <point x="579.8" y="1022.6" type="qcurve" smooth="yes"/>
      <point x="579.7333333333333" y="968.1333333333333" type="line"/>
      <point x="18.333333333333336" y="968.1333333333333" type="line"/>
      <point x="18.4" y="986.6" type="line" smooth="yes"/>
      <point x="19.06666666666667" y="1245.9333333333334"/>
      <point x="354.2" y="1475.0"/>
      <point x="641.9333333333333" y="1475.0" type="qcurve" smooth="yes"/>
      <point x="950.6666666666666" y="1475.0"/>
      <point x="1331.8" y="1150.8666666666666"/>
      <point x="1331.8" y="765.6" type="qcurve" smooth="yes"/>
      <point x="1331.8" y="687.3333333333334" type="line" smooth="yes"/>
      <point x="1331.8" y="313.26666666666665"/>
      <point x="954.8" y="-19.0"/>
      <point x="642.2666666666667" y="-19.0" type="qcurve" smooth="yes"/>
      <point x="354.2" y="-19.0"/>
      <point x="18.799999999999997" y="223.09414965986667"/>
      <point x="18.06666666666667" y="450.8666666666667" type="qcurve" smooth="yes"/>
      <point x="18.0" y="483.8666666666667" type="line"/>
      <point x="579.4" y="483.8666666666667" type="line"/>
      <point x="579.4666666666667" y="470.73333333333335" type="line" smooth="yes"/>
      <point x="579.8" y="412.8666666666667"/>
      <point x="603.5333333333333" y="366.33333333333337"/>
      <point x="628.2666666666667" y="366.33333333333337" type="qcurve" smooth="yes"/>
      <point x="652.5333333333333" y="366.33333333333337"/>
      <point x="683.4666666666667" y="413.73333333333335"/>
    </contour>
  </outline>
</glyph>
<glyph name="Ya" format="2">
  <advance width="1441"/>
  <unicode hex="042F"/>
  <outline>
    <contour>
      <point x="1402.0666666666666" y="0.0" type="line"/>
      <point x="1402.0666666666666" y="1456.0" type="line"/>
      <point x="636.8666666666667" y="1456.0" type="line" smooth="yes"/>
      <point x="368.26666666666665" y="1456.0"/>
      <point x="71.93333333333334" y="1181.9333333333334"/>
      <point x="71.93333333333334" y="950.0" type="qcurve" smooth="yes"/>
      <point x="71.93333333333334" y="710.7865729898533"/>
      <point x="354.46499409855335" y="439.93356839696"/>
      <point x="593.6666666666667" y="439.4" type="qcurve"/>
      <point x="622.4666666666667" y="408.93333333333334" type="line"/>
      <point x="797.9333333333333" y="408.93333333333334" type="line"/>
      <point x="797.9333333333333" y="0.0" type="line"/>
    </contour>
    <contour>
      <point x="797.9333333333333" y="776.2666666666667" type="line"/>
      <point x="751.8666666666667" y="776.2666666666667" type="line" smooth="yes"/>
      <point x="714.5333333333333" y="776.2666666666667"/>
      <point x="683.0666666666666" y="849.9333333333333"/>
      <point x="683.0666666666666" y="908.0" type="qcurve" smooth="yes"/>
      <point x="683.0666666666666" y="966.0"/>
      <point x="714.5333333333333" y="1047.6666666666667"/>
      <point x="751.8666666666667" y="1047.6666666666667" type="qcurve" smooth="yes"/>
      <point x="797.9333333333333" y="1047.6666666666667" type="line"/>
    </contour>
    <contour>
      <point x="629.9333333333334" y="0.0" type="line"/>
      <point x="871.6666666666666" y="666.8" type="line"/>
      <point x="277.0" y="666.8" type="line"/>
      <point x="-11.866666666666667" y="0.0" type="line"/>
    </contour>
  </outline>
</glyph>
<glyph name="ve" format="2">
	<unicode hex="0432"/>
	<advance width="1380"/>
	<outline>
		<contour>
			<point x="30" y="0" type="line"/>
			<point x="30" y="914" type="line"/>
			<point x="908" y="914" type="line" smooth="yes"/>
			<point x="1125" y="914"/>
			<point x="1340" y="784"/>
			<point x="1340" y="667" type="qcurve" smooth="yes"/>
			<point x="1340" y="587"/>
			<point x="1263" y="483"/>
			<point x="1181" y="461" type="qcurve"/>
			<point x="1181" y="457" type="line"/>
			<point x="1271" y="437"/>
			<point x="1360" y="340"/>
			<point x="1360" y="265" type="qcurve" smooth="yes"/>
			<point x="1360" y="140"/>
			<point x="1154" y="0"/>
			<point x="933" y="0" type="qcurve" smooth="yes"/>
		</contour>
		<contour>
			<point x="609" y="567" type="line"/>
			<point x="674" y="567" type="line" smooth="yes"/>
			<point x="718" y="567"/>
			<point x="759" y="590"/>
			<point x="759" y="614" type="qcurve" smooth="yes"/>
			<point x="759" y="642"/>
			<point x="716" y="664"/>
			<point x="674" y="664" type="qcurve" smooth="yes"/>
			<point x="609" y="664" type="line"/>
		</contour>
		<contour>
			<point x="609" y="250" type="line"/>
			<point x="694" y="250" type="line" smooth="yes"/>
			<point x="736" y="250"/>
			<point x="779" y="272"/>
			<point x="779" y="300" type="qcurve" smooth="yes"/>
			<point x="779" y="324"/>
			<point x="738" y="347"/>
			<point x="694" y="347" type="qcurve" smooth="yes"/>
			<point x="609" y="347" type="line"/>
		</contour>
	</outline>
</glyph>
<glyph name="ze" format="2">
  <advance width="1220"/>
  <unicode hex="0437"/>
  <outline>
    <contour>
      <point x="615.5333333333333" y="-27.0" type="qcurve" smooth="yes"/>
      <point x="304.3014593600067" y="-27.0"/>
      <point x="25.333333333333332" y="169.93333333333334"/>
      <point x="20.333333333333332" y="334.4" type="qcurve" smooth="yes"/>
      <point x="19.333333333333332" y="366.06666666666666" type="line"/>
      <point x="507.6" y="366.06666666666666" type="line"/>
      <point x="507.6" y="352.4" type="line" smooth="yes"/>
      <point x="507.6" y="330.93333333333334"/>
      <point x="548.69316215066" y="304.33333333333337"/>
      <point x="591.4666666666667" y="304.33333333333337" type="qcurve" smooth="yes"/>
      <point x="635.2386996459066" y="304.33333333333337"/>
      <point x="675.7333333333333" y="324.4666666666667"/>
      <point x="675.7333333333333" y="346.0" type="qcurve" smooth="yes"/>
      <point x="675.7333333333333" y="371.4"/>
      <point x="636.4666666666667" y="390.4"/>
      <point x="594.4" y="390.4" type="qcurve" smooth="yes"/>
      <point x="412.0" y="390.4" type="line"/>
      <point x="412.0" y="513.6" type="line"/>
      <point x="574.4" y="513.6" type="line" smooth="yes"/>
      <point x="616.3603508771934" y="513.6"/>
      <point x="655.5333333333333" y="536.4666666666667"/>
      <point x="655.5333333333333" y="561.5333333333333" type="qcurve" smooth="yes"/>
      <point x="655.5333333333333" y="587.1333333333333"/>
      <point x="618.11223628692" y="608.6666666666666"/>
      <point x="580.6666666666667" y="608.6666666666666" type="qcurve" smooth="yes"/>
      <point x="544.8805555555533" y="608.6666666666666"/>
      <point x="508.6" y="579.6"/>
      <point x="508.6" y="549.7333333333333" type="qcurve" smooth="yes"/>
      <point x="508.6" y="539.0666666666667" type="line"/>
      <point x="19.333333333333332" y="539.0666666666667" type="line"/>
      <point x="21.333333333333332" y="568.7333333333333" type="line" smooth="yes"/>
      <point x="32.333333333333336" y="734.4"/>
      <point x="300.48195718654665" y="952.0"/>
      <point x="631.6666666666667" y="952.0" type="qcurve" smooth="yes"/>
      <point x="911.99588477366" y="952.0"/>
      <point x="1180.4666666666667" y="801.3333333333334"/>
      <point x="1180.4666666666667" y="667.6666666666666" type="qcurve" smooth="yes"/>
      <point x="1180.4666666666667" y="587.4666666666667"/>
      <point x="1104.0949021578333" y="483.17756338200667"/>
      <point x="1022.3333333333334" y="461.0" type="qcurve"/>
      <point x="1022.3333333333334" y="457.0" type="line"/>
      <point x="1111.0686283449668" y="436.86637604766"/>
      <point x="1200.6666666666665" y="339.6"/>
      <point x="1200.6666666666665" y="264.33333333333337" type="qcurve" smooth="yes"/>
      <point x="1200.6666666666665" y="128.66666666666669"/>
      <point x="895.6405764966734" y="-27.0"/>
    </contour>
  </outline>
</glyph>
<glyph name="icyr" format="2">
  <advance width="1346"/>
  <unicode hex="0438"/>
  <outline>
    <contour>
      <point x="43.266666666666666" y="0.0" type="line"/>
      <point x="43.266666666666666" y="914.0" type="line"/>
      <point x="625.2666666666667" y="914.0" type="line"/>
      <point x="625.2666666666667" y="731.0" type="line" smooth="yes"/>
      <point x="625.2666666666667" y="689.0"/>
      <point x="625.2666666666667" y="586.0"/>
      <point x="624.2666666666667" y="545.0" type="qcurve"/>
      <point x="630.2666666666667" y="545.0" type="line"/>
      <point x="640.2" y="594.0666666666666"/>
      <point x="658.0" y="668.0"/>
      <point x="672.9333333333334" y="729.0" type="qcurve" smooth="yes"/>
      <point x="715.4666666666667" y="914.0" type="line"/>
      <point x="1307.7333333333333" y="914.0" type="line"/>
      <point x="1307.7333333333333" y="0.0" type="line"/>
      <point x="725.7333333333333" y="0.0" type="line"/>
      <point x="725.7333333333333" y="180.06666666666666" type="line" smooth="yes"/>
      <point x="725.7333333333333" y="252.06666666666666"/>
      <point x="725.7333333333333" y="335.06666666666666"/>
      <point x="726.7333333333333" y="377.0666666666667" type="qcurve"/>
      <point x="720.7333333333333" y="377.0666666666667" type="line"/>
      <point x="712.8" y="333.06666666666666"/>
      <point x="695.0666666666667" y="250.13333333333333"/>
      <point x="679.0666666666667" y="185.13333333333333" type="qcurve" smooth="yes"/>
      <point x="635.5333333333333" y="0.0" type="line"/>
    </contour>
  </outline>
</glyph>
<glyph name="en" format="2">
  <advance width="1325"/>
  <unicode hex="043D"/>
  <outline>
    <contour>
      <point x="43.266666666666666" y="914.0" type="line"/>
      <point x="627.2666666666667" y="914.0" type="line"/>
      <point x="627.2666666666667" y="656.0" type="line"/>
      <point x="702.7333333333333" y="656.0" type="line"/>
      <point x="702.7333333333333" y="914.0" type="line"/>
      <point x="1286.7333333333333" y="914.0" type="line"/>
      <point x="1286.7333333333333" y="0.0" type="line"/>
      <point x="702.7333333333333" y="0.0" type="line"/>
      <point x="702.7333333333333" y="261.3333333333333" type="line"/>
      <point x="627.2666666666667" y="261.3333333333333" type="line"/>
      <point x="627.2666666666667" y="0.0" type="line"/>
      <point x="43.266666666666666" y="0.0" type="line"/>
    </contour>
  </outline>
</glyph>
<glyph name="che" format="2">
  <advance width="1295"/>
  <unicode hex="0447"/>
  <guideline x="855.0" y="515.0" angle="90.0" identifier="GGEFes61Q6"/>
  <outline>
    <contour>
      <point x="602.2666666666667" y="713.1333333333333" type="line" smooth="yes"/>
      <point x="602.2666666666667" y="666.2"/>
      <point x="627.6" y="626.2666666666667"/>
      <point x="668.0666666666667" y="626.2666666666667" type="qcurve" smooth="yes"/>
      <point x="724.7333333333333" y="626.2666666666667"/>
      <point x="856.8" y="641.0"/>
      <point x="952.7333333333333" y="666.6666666666666" type="qcurve"/>
      <point x="952.7333333333333" y="298.06666666666666" type="line"/>
      <point x="856.3333333333334" y="269.6666666666667"/>
      <point x="641.7333333333333" y="241.66666666666669"/>
      <point x="484.1333333333333" y="241.66666666666669" type="qcurve" smooth="yes"/>
      <point x="228.2" y="241.66666666666669"/>
      <point x="18.266666666666666" y="450.1333333333333"/>
      <point x="18.266666666666666" y="715.8" type="qcurve" smooth="yes"/>
      <point x="18.266666666666666" y="914.0" type="line"/>
      <point x="602.2666666666667" y="914.0" type="line"/>
    </contour>
    <contour>
      <point x="1256.7333333333333" y="914.0" type="line"/>
      <point x="1256.7333333333333" y="0.0" type="line"/>
      <point x="672.7333333333333" y="0.0" type="line"/>
      <point x="672.7333333333333" y="914.0" type="line"/>
    </contour>
  </outline>
</glyph>
<glyph name="sha" format="2">
	<unicode hex="0448"/>
	<advance width="1972"/>
	<outline>
		<contour>
			<point x="42" y="0" type="line"/>
			<point x="42" y="914" type="line"/>
			<point x="622" y="914" type="line"/>
			<point x="622" y="390" type="line"/>
			<point x="702" y="390" type="line"/>
			<point x="702" y="914" type="line"/>
			<point x="1282" y="914" type="line"/>
			<point x="1282" y="390" type="line"/>
			<point x="1362" y="390" type="line"/>
			<point x="1362" y="914" type="line"/>
			<point x="1942" y="914" type="line"/>
			<point x="1942" y="0" type="line"/>
		</contour>
	</outline>
</glyph>
<glyph name="shcha" format="2">
  <advance width="2050"/>
  <unicode hex="0449"/>
  <outline>
    <contour>
      <point x="43.266666666666666" y="0.0" type="line"/>
      <point x="43.266666666666666" y="914.0" type="line"/>
      <point x="627.2666666666667" y="914.0" type="line"/>
      <point x="627.2666666666667" y="394.66666666666663" type="line"/>
      <point x="703.0" y="394.66666666666663" type="line"/>
      <point x="703.0" y="914.0" type="line"/>
      <point x="1287.0" y="914.0" type="line"/>
      <point x="1287.0" y="394.66666666666663" type="line"/>
      <point x="1362.7333333333333" y="394.66666666666663" type="line"/>
      <point x="1362.7333333333333" y="914.0" type="line"/>
      <point x="1946.7333333333333" y="914.0" type="line"/>
      <point x="1946.7333333333333" y="394.66666666666663" type="line"/>
      <point x="2031.0666666666666" y="394.66666666666663" type="line"/>
      <point x="2031.0666666666666" y="-270.0" type="line"/>
      <point x="1506.5333333333333" y="-270.0" type="line"/>
      <point x="1506.5333333333333" y="0.0" type="line"/>
    </contour>
  </outline>
</glyph>
<glyph name="yu" format="2">
  <advance width="1926"/>
  <unicode hex="044E"/>
  <outline>
    <contour>
      <point x="43.266666666666666" y="914.0" type="line"/>
      <point x="627.2666666666667" y="914.0" type="line"/>
      <point x="627.2666666666667" y="656.0" type="line"/>
      <point x="909.4666666666667" y="656.0" type="line"/>
      <point x="909.4666666666667" y="261.3333333333333" type="line"/>
      <point x="627.2666666666667" y="261.3333333333333" type="line"/>
      <point x="627.2666666666667" y="0.0" type="line"/>
      <point x="43.266666666666666" y="0.0" type="line"/>
    </contour>
    <contour>
      <point x="623.4666666666667" y="445.0" type="qcurve" smooth="yes"/>
      <point x="623.4666666666667" y="478.0" type="line" smooth="yes"/>
      <point x="623.4666666666667" y="689.0"/>
      <point x="983.0" y="952.0"/>
      <point x="1268.7333333333333" y="952.0" type="qcurve" smooth="yes"/>
      <point x="1555.4666666666667" y="952.0"/>
      <point x="1907.0" y="689.0"/>
      <point x="1907.0" y="478.0" type="qcurve" smooth="yes"/>
      <point x="1907.0" y="445.0" type="line" smooth="yes"/>
      <point x="1907.0" y="233.0"/>
      <point x="1555.4666666666667" y="-27.0"/>
      <point x="1268.7333333333333" y="-27.0" type="qcurve" smooth="yes"/>
      <point x="982.0" y="-27.0"/>
      <point x="623.4666666666667" y="233.0"/>
    </contour>
    <contour>
      <point x="1209.6" y="501.0" type="qcurve" smooth="yes"/>
      <point x="1209.6" y="426.0" type="line" smooth="yes"/>
      <point x="1209.6" y="393.2"/>
      <point x="1238.0666666666666" y="354.4666666666667"/>
      <point x="1264.7333333333333" y="354.4666666666667" type="qcurve" smooth="yes"/>
      <point x="1291.4" y="354.4666666666667"/>
      <point x="1319.8666666666666" y="393.2"/>
      <point x="1319.8666666666666" y="426.0" type="qcurve" smooth="yes"/>
      <point x="1319.8666666666666" y="501.0" type="line" smooth="yes"/>
      <point x="1319.8666666666666" y="529.8"/>
      <point x="1291.4" y="564.5333333333333"/>
      <point x="1264.7333333333333" y="564.5333333333333" type="qcurve" smooth="yes"/>
      <point x="1238.0666666666666" y="564.5333333333333"/>
      <point x="1209.6" y="529.8"/>
    </contour>
  </outline>
</glyph>
<glyph name="ya" format="2">
	<unicode hex="044F"/>
	<advance width="1240"/>
	<outline>
		<contour>
			<point x="565" y="0" type="line"/>
			<point x="0" y="0" type="line"/>
			<point x="195" y="404" type="line"/>
			<point x="719" y="387" type="line"/>
		</contour>
		<contour>
			<point x="691" y="0" type="line"/>
			<point x="691" y="247" type="line"/>
			<point x="482" y="247" type="line"/>
			<point x="450" y="308" type="line"/>
			<point x="235" y="314"/>
			<point x="30" y="454"/>
			<point x="30" y="595" type="qcurve" smooth="yes"/>
			<point x="30" y="753"/>
			<point x="253" y="914"/>
			<point x="482" y="914" type="qcurve" smooth="yes"/>
			<point x="1210" y="914" type="line"/>
			<point x="1210" y="0" type="line"/>
		</contour>
		<contour>
			<point x="626" y="507" type="qcurve" smooth="yes"/>
			<point x="691" y="507" type="line"/>
			<point x="691" y="624" type="line"/>
			<point x="626" y="624" type="line" smooth="yes"/>
			<point x="585" y="624"/>
			<point x="551" y="598"/>
			<point x="551" y="564" type="qcurve" smooth="yes"/>
			<point x="551" y="535"/>
			<point x="583" y="507"/>
		</contour>
	</outline>
</glyph>
<glyph name="ieukran" format="2">
	<unicode hex="0454"/>
	<advance width="1188"/>
	<outline>
		<contour>
			<point x="10" y="445" type="qcurve" smooth="yes"/>
			<point x="10" y="479" type="line" smooth="yes"/>
			<point x="10" y="700"/>
			<point x="337" y="952"/>
			<point x="620" y="952" type="qcurve" smooth="yes"/>
			<point x="887" y="952"/>
			<point x="1164" y="740"/>
			<point x="1176" y="568" type="qcurve" smooth="yes"/>
			<point x="1178" y="539" type="line"/>
			<point x="693" y="539" type="line"/>
			<point x="693" y="549" type="line" smooth="yes"/>
			<point x="693" y="580"/>
			<point x="670" y="613"/>
			<point x="643" y="613" type="qcurve" smooth="yes"/>
			<point x="616" y="613"/>
			<point x="589" y="583"/>
			<point x="589" y="551" type="qcurve" smooth="yes"/>
			<point x="589" y="375" type="line" smooth="yes"/>
			<point x="589" y="335"/>
			<point x="615" y="300"/>
			<point x="643" y="300" type="qcurve" smooth="yes"/>
			<point x="671" y="300"/>
			<point x="694" y="331"/>
			<point x="694" y="353" type="qcurve" smooth="yes"/>
			<point x="694" y="366" type="line"/>
			<point x="1178" y="366" type="line"/>
			<point x="1177" y="335" type="line" smooth="yes"/>
			<point x="1172" y="172"/>
			<point x="894" y="-27"/>
			<point x="625" y="-27" type="qcurve" smooth="yes"/>
			<point x="343" y="-27"/>
			<point x="10" y="226"/>
		</contour>
		<contour>
			<point x="361" y="512" type="line"/>
			<point x="786" y="512" type="line"/>
			<point x="786" y="392" type="line"/>
			<point x="361" y="392" type="line"/>
		</contour>
	</outline>
</glyph>
<glyph name="yi" format="2">
  <advance width="629"/>
  <unicode hex="0457"/>
  <outline>
    <contour>
      <point x="5" y="1216.0" type="qcurve" smooth="yes"/>
      <point x="5" y="1340"/>
      <point x="75" y="1487"/>
      <point x="158" y="1487.0" type="qcurve" smooth="yes"/>
      <point x="242" y="1487"/>
      <point x="309" y="1343"/>
      <point x="309" y="1216.0" type="qcurve" smooth="yes"/>
      <point x="309" y="1093"/>
      <point x="239" y="941"/>
      <point x="156" y="941.0" type="qcurve" smooth="yes"/>
      <point x="73" y="941"/>
      <point x="5" y="1093"/>
    </contour>
    <contour>
      <point x="18" y="914" type="line"/>
      <point x="611" y="914" type="line"/>
      <point x="611" y="0" type="line"/>
      <point x="18" y="0" type="line"/>
    </contour>
    <contour>
      <point x="320" y="1216.0" type="qcurve" smooth="yes"/>
      <point x="320" y="1340"/>
      <point x="390" y="1487"/>
      <point x="473" y="1487.0" type="qcurve" smooth="yes"/>
      <point x="557" y="1487"/>
      <point x="624" y="1343"/>
      <point x="624" y="1216.0" type="qcurve" smooth="yes"/>
      <point x="624" y="1093"/>
      <point x="554" y="941"/>
      <point x="471" y="941.0" type="qcurve" smooth="yes"/>
      <point x="388" y="941"/>
      <point x="320" y="1093"/>
    </contour>
  </outline>
</glyph>
<glyph name="nje" format="2">
  <advance width="2001"/>
  <unicode hex="045A"/>
  <outline>
    <contour>
      <point x="30" y="914" type="line"/>
      <point x="610" y="914" type="line"/>
      <point x="610" y="674" type="line"/>
      <point x="690" y="674" type="line"/>
      <point x="690" y="914" type="line"/>
      <point x="1270" y="914" type="line"/>
      <point x="1270" y="674" type="line"/>
      <point x="1539" y="674" type="line" smooth="yes"/>
      <point x="1765" y="674"/>
      <point x="1991" y="499"/>
      <point x="1991" y="341" type="qcurve" smooth="yes"/>
      <point x="1991" y="166"/>
      <point x="1765" y="0"/>
      <point x="1539" y="0" type="qcurve" smooth="yes"/>
      <point x="690" y="0" type="line"/>
      <point x="690" y="284" type="line"/>
      <point x="610" y="284" type="line"/>
      <point x="610" y="0" type="line"/>
      <point x="30" y="0" type="line"/>
    </contour>
    <contour>
      <point x="1335" y="384" type="qcurve" smooth="yes"/>
      <point x="1270" y="384" type="line"/>
      <point x="1270" y="290" type="line"/>
      <point x="1335" y="290" type="line" smooth="yes"/>
      <point x="1376" y="290"/>
      <point x="1410" y="312"/>
      <point x="1410" y="340" type="qcurve" smooth="yes"/>
      <point x="1410" y="362"/>
      <point x="1377" y="384"/>
    </contour>
  </outline>
</glyph>
<glyph name="Gheup" format="2">
  <advance width="1113"/>
  <unicode hex="0490"/>
  <outline>
    <contour>
      <point x="38.93333333333334" y="0.0" type="line"/>
      <point x="38.93333333333334" y="1456.0" type="line"/>
      <point x="538.3333333333333" y="1456.0" type="line"/>
      <point x="538.3333333333333" y="1746.0" type="line"/>
      <point x="1103.0" y="1746.0" type="line"/>
      <point x="1103.0" y="981.8" type="line"/>
      <point x="643.0666666666666" y="981.8" type="line"/>
      <point x="643.0666666666666" y="0.0" type="line"/>
    </contour>
  </outline>
</glyph>
<glyph name="Kadescender" format="2">
  <advance width="1506"/>
  <unicode hex="049A"/>
  <outline>
    <contour>
      <point x="341.0" y="975.0666666666667" type="line"/>
      <point x="669.3333333333334" y="975.0666666666667" type="line"/>
      <point x="834.5333333333333" y="1456.0" type="line"/>
      <point x="1441.8" y="1456.0" type="line"/>
      <point x="1099.4666666666667" y="499.8666666666667" type="line"/>
      <point x="341.0" y="499.8666666666667" type="line"/>
    </contour>
    <contour>
      <point x="840.2" y="0.0" type="line"/>
      <point x="630.8" y="615.0666666666667" type="line"/>
      <point x="1193.4666666666667" y="836.0666666666667" type="line"/>
      <point x="1508.4666666666667" y="0.0" type="line"/>
    </contour>
    <contour>
      <point x="38.93333333333334" y="0.0" type="line"/>
      <point x="38.93333333333334" y="1456.0" type="line"/>
      <point x="643.0666666666666" y="1456.0" type="line"/>
      <point x="643.0666666666666" y="0.0" type="line"/>
    </contour>
    <contour>
      <point x="840.2" y="0.0" type="line"/>
      <point x="840.2" y="474.2" type="line"/>
      <point x="1506.7333333333333" y="474.2" type="line"/>
      <point x="1506.7333333333333" y="-290.0" type="line"/>
      <point x="942.0666666666667" y="-290.0" type="line"/>
      <point x="942.0666666666667" y="0.0" type="line"/>
    </contour>
  </outline>
</glyph>
<glyph name="kaverticalstrokecyr" format="2">
  <advance width="1700"/>
  <unicode hex="049D"/>
  <guideline x="241" y="553" angle="90" identifier="lmgRx0QBdK"/>
  <guideline x="820" y="707" angle="90" identifier="81y230ieqc"/>
  <guideline x="241" y="553" angle="90" identifier="ZW5Iz1mBWB"/>
  <guideline x="241" y="553" angle="90" identifier="SEsoFV2OJK"/>
  <guideline x="241" y="553" angle="90" identifier="8aKqQjFWE2"/>
  <guideline x="446" y="531" angle="90" identifier="a7QRUWekrc"/>
  <guideline x="241" y="553" angle="90" identifier="NrC5LAokg8"/>
  <guideline x="241" y="553" angle="90" identifier="ZbvAtXKu3i"/>
  <guideline x="241" y="553" angle="90" identifier="UDohwKyuMJ"/>
  <guideline x="446" y="449" angle="90" identifier="DW6VggV7pL"/>
  <guideline x="241" y="553" angle="90" identifier="FhJ7x2uN5F"/>
  <guideline x="241" y="553" angle="90" identifier="hWYWyyRqyU"/>
  <outline>
    <contour>
      <point x="920" y="802" type="line"/>
      <point x="920" y="124" type="line"/>
      <point x="670" y="124" type="line"/>
      <point x="670" y="802" type="line"/>
    </contour>
    <contour>
      <point x="610" y="914" type="line"/>
      <point x="610" y="0" type="line"/>
      <point x="30" y="0" type="line"/>
      <point x="30" y="914" type="line"/>
    </contour>
    <contour>
      <point x="1090" y="0" type="line"/>
      <point x="880" y="352" type="line"/>
      <point x="1327" y="600" type="line"/>
      <point x="1720" y="0" type="line"/>
    </contour>
    <contour>
      <point x="795" y="654" type="line"/>
      <point x="936" y="654" type="line"/>
      <point x="1071" y="914" type="line"/>
      <point x="1677" y="914" type="line"/>
      <point x="1305" y="264" type="line"/>
      <point x="795" y="264" type="line"/>
    </contour>
  </outline>
</glyph>
<glyph name="ustraightstroke" format="2">
  <advance width="1265"/>
  <unicode hex="04B1"/>
  <outline>
    <contour>
      <point x="149" y="-242" type="line"/>
      <point x="149" y="0" type="line"/>
      <point x="349" y="0" type="line"/>
      <point x="-10" y="914" type="line"/>
      <point x="541" y="914" type="line"/>
      <point x="635" y="590" type="line" smooth="yes"/>
      <point x="638" y="580"/>
      <point x="646" y="552"/>
      <point x="648" y="539" type="qcurve"/>
      <point x="652" y="539" type="line"/>
      <point x="654" y="552"/>
      <point x="662" y="580"/>
      <point x="665" y="590" type="qcurve" smooth="yes"/>
      <point x="769" y="914" type="line"/>
      <point x="1275" y="914" type="line"/>
      <point x="926" y="0" type="line"/>
      <point x="1126" y="0" type="line"/>
      <point x="1126" y="-242" type="line"/>
      <point x="926" y="-242" type="line"/>
      <point x="926" y="-416" type="line"/>
      <point x="349" y="-416" type="line"/>
      <point x="349" y="-242" type="line"/>
    </contour>
  </outline>
</glyph>
<glyph name="Hadescender" format="2">
  <advance width="1396"/>
  <unicode hex="04B2"/>
  <outline>
    <contour>
      <point x="764.0666666666667" y="474.2" type="line"/>
      <point x="1416.8" y="474.2" type="line"/>
      <point x="1416.8" y="-290.0" type="line"/>
      <point x="852.1333333333333" y="-290.0" type="line"/>
      <point x="852.1333333333333" y="0.0" type="line"/>
      <point x="764.0666666666667" y="0.0" type="line"/>
    </contour>
    <contour>
      <point x="-42.333333333333336" y="0.0" type="line"/>
      <point x="480.8" y="952.7333333333333" type="line"/>
      <point x="616.3333333333333" y="952.7333333333333" type="line"/>
      <point x="876.4666666666667" y="1456.0" type="line"/>
      <point x="1413.1333333333332" y="1456.0" type="line"/>
      <point x="922.4666666666667" y="545.0" type="line"/>
      <point x="787.0" y="545.0" type="line"/>
      <point x="495.6" y="0.0" type="line"/>
    </contour>
    <contour>
      <point x="-18.46666666666667" y="1456.0" type="line"/>
      <point x="637.0666666666666" y="1456.0" type="line"/>
      <point x="902.1333333333333" y="953.3333333333334" type="line"/>
      <point x="901.4" y="953.3333333333334" type="line"/>
      <point x="1419.2666666666667" y="0.0" type="line"/>
      <point x="762.0666666666667" y="0.0" type="line"/>
      <point x="457.8666666666667" y="571.5333333333333" type="line"/>
      <point x="457.6" y="571.5333333333333" type="line"/>
    </contour>
  </outline>
</glyph>
<glyph name="chedescender-cy" format="2">
	<unicode hex="04B7"/>
	<advance width="1360"/>
	<outline>
		<contour>
			<point x="610" y="711" type="line" smooth="yes"/>
			<point x="610" y="664"/>
			<point x="635" y="623"/>
			<point x="677" y="623" type="qcurve" smooth="yes"/>
			<point x="734" y="623"/>
			<point x="868" y="638"/>
			<point x="963" y="663" type="qcurve"/>
			<point x="963" y="299" type="line"/>
			<point x="867" y="271"/>
			<point x="653" y="243"/>
			<point x="495" y="243" type="qcurve" smooth="yes"/>
			<point x="239" y="243"/>
			<point x="30" y="451"/>
			<point x="30" y="716" type="qcurve" smooth="yes"/>
			<point x="30" y="914" type="line"/>
			<point x="610" y="914" type="line"/>
		</contour>
		<contour>
			<point x="830" y="-270" type="line"/>
			<point x="830" y="0" type="line"/>
			<point x="685" y="0" type="line"/>
			<point x="685" y="914" type="line"/>
			<point x="1265" y="914" type="line"/>
			<point x="1265" y="390" type="line"/>
			<point x="1350" y="390" type="line"/>
			<point x="1350" y="-270" type="line"/>
		</contour>
	</outline>
</glyph>
<glyph name="Hastroke-cy" format="2">
  <advance width="1396"/>
  <unicode hex="04FE"/>
  <outline>
    <contour>
      <point x="140.33333333333331" y="897.0" type="line"/>
      <point x="1248.6666666666665" y="897.0" type="line"/>
      <point x="1248.6666666666665" y="602.0" type="line"/>
      <point x="140.33333333333331" y="602.0" type="line"/>
    </contour>
    <contour>
      <point x="-42.333333333333336" y="0.0" type="line"/>
      <point x="480.8" y="952.7333333333333" type="line"/>
      <point x="615.6666666666667" y="952.7333333333333" type="line"/>
      <point x="876.4666666666667" y="1456.0" type="line"/>
      <point x="1413.1333333333332" y="1456.0" type="line"/>
      <point x="922.4666666666667" y="545.0" type="line"/>
      <point x="787.6666666666666" y="545.0" type="line"/>
      <point x="495.6" y="0.0" type="line"/>
    </contour>
    <contour>
      <point x="-18.46666666666667" y="1456.0" type="line"/>
      <point x="637.0666666666666" y="1456.0" type="line"/>
      <point x="902.8" y="953.3333333333334" type="line"/>
      <point x="901.4" y="953.3333333333334" type="line"/>
      <point x="1418.3333333333335" y="0.0" type="line"/>
      <point x="761.1333333333333" y="0.0" type="line"/>
      <point x="457.2" y="571.5333333333333" type="line"/>
      <point x="457.6" y="571.5333333333333" type="line"/>
    </contour>
  </outline>
</glyph>
<glyph name="hastroke-cy" format="2">
  <advance width="1197"/>
  <unicode hex="04FF"/>
  <outline>
    <contour>
      <point x="67.93333333333334" y="335.6666666666667" type="line"/>
      <point x="67.93333333333334" y="584.4" type="line"/>
      <point x="1129.0666666666666" y="584.4" type="line"/>
      <point x="1129.0666666666666" y="335.6666666666667" type="line"/>
    </contour>
    <contour>
      <point x="-18.0" y="0.0" type="line"/>
      <point x="352.33333333333337" y="586.2666666666667" type="line"/>
      <point x="517.7333333333333" y="586.2666666666667" type="line"/>
      <point x="728.0" y="914.0" type="line"/>
      <point x="1205.6666666666665" y="914.0" type="line"/>
      <point x="845.2666666666667" y="331.3333333333333" type="line"/>
      <point x="641.9333333333334" y="331.3333333333333" type="line"/>
      <point x="459.73333333333335" y="0.0" type="line"/>
    </contour>
    <contour>
      <point x="-8.133333333333333" y="914.0" type="line"/>
      <point x="586.4" y="914.0" type="line"/>
      <point x="792.1333333333333" y="559.2" type="line"/>
      <point x="849.6666666666666" y="559.2" type="line"/>
      <point x="1215.2" y="0.0" type="line"/>
      <point x="620.7333333333333" y="0.0" type="line"/>
      <point x="395.1333333333333" y="375.6" type="line"/>
      <point x="342.5333333333333" y="375.6" type="line"/>
    </contour>
  </outline>
</glyph>
<glyph name="emdash" format="2">
  <advance width="1942"/>
  <unicode hex="2014"/>
  <outline>
    <contour>
      <point x="260.0" y="397.0" type="line"/>
      <point x="260.0" y="852.3333333333334" type="line"/>
      <point x="1888.0" y="852.3333333333334" type="line"/>
      <point x="1888.0" y="397.0" type="line"/>
    </contour>
  </outline>
</glyph>
<glyph name="quotedblright" format="2">
  <advance width="1342"/>
  <unicode hex="201D"/>
  <outline>
    <contour>
      <point x="645.0" y="1458.6666666666667" type="line"/>
      <point x="645.0" y="1288.0" type="line" smooth="yes"/>
      <point x="645.0" y="1134.0"/>
      <point x="488.0" y="894.0"/>
      <point x="311.6666666666667" y="777.5333333333333" type="qcurve"/>
      <point x="-22.0" y="1009.0" type="line"/>
      <point x="12.0" y="1052.0"/>
      <point x="42.599999999999994" y="1184.0"/>
      <point x="43.0" y="1289.0" type="qcurve" smooth="yes"/>
      <point x="43.0" y="1458.6666666666667" type="line"/>
    </contour>
    <contour>
      <point x="1304.0" y="1458.6666666666667" type="line"/>
      <point x="1304.0" y="1288.0" type="line" smooth="yes"/>
      <point x="1304.0" y="1134.0"/>
      <point x="1147.0" y="894.0"/>
      <point x="970.6666666666666" y="777.5333333333333" type="qcurve"/>
      <point x="637.0" y="1009.0" type="line"/>
      <point x="671.0" y="1052.0"/>
      <point x="701.6" y="1184.0"/>
      <point x="702.0" y="1289.0" type="qcurve" smooth="yes"/>
      <point x="702.0" y="1458.6666666666667" type="line"/>
    </contour>
  </outline>
</glyph>
<glyph name="fraction" format="2">
  <advance width="342"/>
  <unicode hex="2044"/>
  <guideline x="0" y="901.0" angle="0" identifier="tcCoNUQTdD"/>
  <guideline x="0" y="555.0" angle="0" identifier="0lx51aIE0d"/>
  <outline>
    <contour>
      <point x="695.9333333333333" y="1302.3333333333333" type="line"/>
      <point x="-39.0" y="-9.600000000000001" type="line"/>
      <point x="-361.06666666666666" y="164.8" type="line"/>
      <point x="366.8666666666667" y="1470.7333333333333" type="line"/>
    </contour>
  </outline>
</glyph>
<glyph name="coloncurrency" format="2">
  <advance width="1354"/>
  <unicode hex="20A1"/>
  <guideline x="0" y="1570.0" angle="0" identifier="0DwZ2nfhdf"/>
  <outline>
    <contour>
      <point x="1033.3333333333335" y="1570.0" type="line"/>
      <point x="994.3333333333334" y="1324.0" type="line"/>
      <point x="991.8" y="1301.0" type="line"/>
      <point x="819.8" y="68.0" type="line"/>
      <point x="815.3333333333334" y="43.0" type="line"/>
      <point x="791.3333333333334" y="-125.0" type="line"/>
      <point x="652.3333333333334" y="-125.0" type="line"/>
      <point x="675.3333333333334" y="40.0" type="line"/>
      <point x="678.8666666666667" y="69.33333333333333" type="line"/>
      <point x="863.8666666666667" y="1361.0" type="line"/>
      <point x="867.3333333333334" y="1381.0" type="line"/>
      <point x="895.3333333333334" y="1570.0" type="line"/>
    </contour>
    <contour>
      <point x="802.3333333333334" y="1570.0" type="line"/>
      <point x="777.3333333333334" y="1395.0" type="line"/>
      <point x="774.6666666666666" y="1374.0" type="line"/>
      <point x="587.6666666666666" y="66.0" type="line"/>
      <point x="583.3333333333334" y="39.0" type="line"/>
      <point x="560.3333333333334" y="-125.0" type="line"/>
      <point x="411.3333333333333" y="-125.0" type="line"/>
      <point x="446.3333333333333" y="122.0" type="line"/>
      <point x="449.6666666666667" y="148.0" type="line"/>
      <point x="625.6666666666666" y="1376.0" type="line"/>
      <point x="629.3333333333334" y="1399.0" type="line"/>
      <point x="654.3333333333334" y="1570.0" type="line"/>
    </contour>
    <contour>
      <point x="24.33333333333333" y="689.0" type="qcurve" smooth="yes"/>
      <point x="24.33333333333333" y="767.0" type="line" smooth="yes"/>
      <point x="24.33333333333333" y="1151.0"/>
      <point x="404.0" y="1475.0"/>
      <point x="713.0" y="1475.0" type="qcurve" smooth="yes"/>
      <point x="1001.0" y="1475.0"/>
      <point x="1336.6666666666667" y="1234.0"/>
      <point x="1336.6666666666667" y="958.0" type="qcurve" smooth="yes"/>
      <point x="1336.6666666666667" y="904.0" type="line"/>
      <point x="777.0" y="904.0" type="line"/>
      <point x="777.0" y="1024.0" type="line" smooth="yes"/>
      <point x="777.0" y="1049.0"/>
      <point x="749.0" y="1078.6666666666667"/>
      <point x="727.0" y="1078.6666666666667" type="qcurve" smooth="yes"/>
      <point x="701.3333333333334" y="1078.6666666666667"/>
      <point x="671.6666666666667" y="1036.0"/>
      <point x="671.6666666666667" y="975.0" type="qcurve" smooth="yes"/>
      <point x="671.6666666666667" y="480.0" type="line" smooth="yes"/>
      <point x="671.6666666666667" y="412.0"/>
      <point x="700.3333333333334" y="365.33333333333337"/>
      <point x="727.0" y="365.33333333333337" type="qcurve" smooth="yes"/>
      <point x="752.0" y="365.33333333333337"/>
      <point x="777.0" y="414.0"/>
      <point x="777.0" y="480.0" type="qcurve" smooth="yes"/>
      <point x="777.0" y="542.0" type="line"/>
      <point x="1336.6666666666667" y="542.0" type="line"/>
      <point x="1336.6666666666667" y="460.0" type="line" smooth="yes"/>
      <point x="1336.6666666666667" y="228.0"/>
      <point x="1001.0" y="-19.0"/>
      <point x="713.0" y="-19.0" type="qcurve" smooth="yes"/>
      <point x="400.0" y="-19.0"/>
      <point x="24.33333333333333" y="312.0"/>
    </contour>
  </outline>
</glyph>
<glyph name="franc" format="2">
  <advance width="1113"/>
  <unicode hex="20A3"/>
  <outline>
    <contour>
      <point x="38.33333333333333" y="0.0" type="line"/>
      <point x="38.33333333333333" y="1456.0" type="line"/>
      <point x="1103.0" y="1456.0" type="line"/>
      <point x="1103.0" y="987.0" type="line"/>
      <point x="641.7333333333333" y="987.0" type="line"/>
      <point x="641.7333333333333" y="901.0" type="line"/>
      <point x="1038.0" y="901.0" type="line"/>
      <point x="1038.0" y="481.0" type="line"/>
      <point x="641.7333333333333" y="481.0" type="line"/>
      <point x="641.7333333333333" y="0.0" type="line"/>
    </contour>
    <contour>
      <point x="0.0" y="235.66666666666666" type="line"/>
      <point x="0.0" y="393.3333333333333" type="line"/>
      <point x="791.0" y="393.3333333333333" type="line"/>
      <point x="791.0" y="235.66666666666666" type="line"/>
    </contour>
  </outline>
</glyph>
<glyph name="naira" format="2">
  <advance width="1271"/>
  <unicode hex="20A6"/>
  <outline>
    <contour>
      <point x="0.0" y="818.0" type="line"/>
      <point x="0.0" y="965.0" type="line"/>
      <point x="133.0" y="965.0" type="line"/>
      <point x="133.0" y="958.6666666666666" type="line"/>
      <point x="1128.0" y="958.6666666666666" type="line"/>
      <point x="1128.0" y="965.0" type="line"/>
      <point x="1271.0" y="967.0" type="line"/>
      <point x="1271.0" y="820.0" type="line"/>
      <point x="1128.0" y="818.0" type="line"/>
      <point x="1128.0" y="819.7333333333333" type="line"/>
      <point x="133.0" y="819.7333333333333" type="line"/>
      <point x="133.0" y="818.0" type="line"/>
    </contour>
    <contour>
      <point x="0.0" y="560.0" type="line"/>
      <point x="0.0" y="707.0" type="line"/>
      <point x="133.0" y="707.0" type="line"/>
      <point x="133.0" y="705.4" type="line"/>
      <point x="1128.0" y="705.4" type="line"/>
      <point x="1128.0" y="707.0" type="line"/>
      <point x="1271.0" y="709.0" type="line"/>
      <point x="1271.0" y="562.0" type="line"/>
      <point x="1128.0" y="560.0" type="line"/>
      <point x="1128.0" y="566.3333333333334" type="line"/>
      <point x="133.0" y="566.3333333333334" type="line"/>
      <point x="133.0" y="560.0" type="line"/>
    </contour>
    <contour>
      <point x="1195.3333333333333" y="1456.0" type="line"/>
      <point x="1195.3333333333333" y="0.0" type="line"/>
      <point x="675.3333333333334" y="0.0" type="line"/>
      <point x="556.6666666666667" y="417.33333333333337" type="line"/>
      <point x="519.8" y="552.7333333333333" type="line"/>
      <point x="514.8" y="552.7333333333333" type="line"/>
      <point x="518.0" y="434.66666666666663" type="line"/>
      <point x="518.0" y="0.0" type="line"/>
      <point x="59.66666666666666" y="0.0" type="line"/>
      <point x="59.66666666666666" y="1456.0" type="line"/>
      <point x="597.6666666666666" y="1456.0" type="line"/>
      <point x="695.6666666666666" y="1051.6666666666665" type="line"/>
      <point x="732.2" y="901.7333333333333" type="line"/>
      <point x="737.2" y="901.7333333333333" type="line"/>
      <point x="737.0" y="1040.3333333333335" type="line"/>
      <point x="737.0" y="1456.0" type="line"/>
    </contour>
  </outline>
</glyph>
<glyph name="won" format="2">
  <advance width="1874"/>
  <unicode hex="20A9"/>
  <outline>
    <contour>
      <point x="-2.0" y="846.0" type="line"/>
      <point x="-2.0" y="998.3333333333334" type="line"/>
      <point x="224.0" y="998.3333333333334" type="line"/>
      <point x="224.0" y="992.0" type="line"/>
      <point x="1637.0" y="992.0" type="line"/>
      <point x="1637.0" y="998.3333333333334" type="line"/>
      <point x="1883.0" y="1000.3333333333334" type="line"/>
      <point x="1883.0" y="848.0" type="line"/>
      <point x="1637.0" y="846.0" type="line"/>
      <point x="1637.0" y="848.0" type="line"/>
      <point x="224.0" y="848.0" type="line"/>
      <point x="224.0" y="846.0" type="line"/>
    </contour>
    <contour>
      <point x="29.0" y="568.6666666666666" type="line"/>
      <point x="29.0" y="721.0" type="line"/>
      <point x="315.0" y="721.0" type="line"/>
      <point x="315.0" y="719.0" type="line"/>
      <point x="1558.0" y="719.0" type="line"/>
      <point x="1558.0" y="721.0" type="line"/>
      <point x="1844.0" y="723.0" type="line"/>
      <point x="1844.0" y="565.6666666666666" type="line"/>
      <point x="1558.0" y="563.6666666666667" type="line"/>
      <point x="1558.0" y="575.0" type="line"/>
      <point x="315.0" y="575.0" type="line"/>
      <point x="315.0" y="568.6666666666666" type="line"/>
    </contour>
    <contour>
      <point x="277.0" y="0.0" type="line"/>
      <point x="-32.0" y="1456.0" type="line"/>
      <point x="466.0" y="1456.0" type="line"/>
      <point x="594.6" y="822.0666666666666" type="line"/>
      <point x="602.0" y="770.3333333333333" type="line"/>
      <point x="605.0" y="770.3333333333333" type="line"/>
      <point x="613.3333333333334" y="822.0666666666666" type="line" smooth="yes"/>
      <point x="738.0" y="1456.0" type="line"/>
      <point x="1166.0" y="1456.0" type="line"/>
      <point x="1308.0" y="822.0666666666666" type="line"/>
      <point x="1316.0" y="770.3333333333333" type="line"/>
      <point x="1320.0" y="770.3333333333333" type="line"/>
      <point x="1326.8" y="822.0" type="line" smooth="yes"/>
      <point x="1439.0" y="1456.0" type="line"/>
      <point x="1906.0" y="1456.0" type="line"/>
      <point x="1597.0" y="0.0" type="line"/>
      <point x="1099.0" y="0.0" type="line"/>
      <point x="955.1333333333333" y="611.1333333333333" type="line"/>
      <point x="947.0" y="657.3333333333333" type="line"/>
      <point x="943.0" y="657.3333333333333" type="line"/>
      <point x="935.8666666666667" y="611.2" type="line" smooth="yes"/>
      <point x="791.0" y="0.0" type="line"/>
    </contour>
  </outline>
</glyph>
<glyph name="uni20AD" format="2">
  <advance width="1429"/>
  <unicode hex="20AD"/>
  <outline>
    <contour>
      <point x="38.66666666666666" y="0.0" type="line"/>
      <point x="38.66666666666666" y="1456.0" type="line"/>
      <point x="642.0" y="1456.0" type="line"/>
      <point x="642.0" y="1109.0" type="line"/>
      <point x="864.3333333333334" y="1456.0" type="line"/>
      <point x="1462.0" y="1456.0" type="line"/>
      <point x="642.0" y="386.66666666666663" type="line"/>
      <point x="642.0" y="0.0" type="line"/>
    </contour>
    <contour>
      <point x="870.3333333333334" y="0.0" type="line"/>
      <point x="555.3333333333333" y="596.0" type="line"/>
      <point x="907.3333333333334" y="1063.0" type="line"/>
      <point x="1537.3333333333333" y="0.0" type="line"/>
    </contour>
    <contour>
      <point x="188.0" y="684.0" type="line"/>
      <point x="-9.0" y="684.0" type="line"/>
      <point x="-9.0" y="834.3333333333334" type="line"/>
      <point x="188.0" y="834.3333333333334" type="line"/>
    </contour>
    <contour>
      <point x="1281.0" y="834.3333333333334" type="line"/>
      <point x="1281.0" y="684.0" type="line"/>
      <point x="438.0" y="684.0" type="line"/>
      <point x="438.0" y="834.3333333333334" type="line"/>
    </contour>
  </outline>
</glyph>
<glyph name="tenge" format="2">
  <advance width="1340"/>
  <unicode hex="20B8"/>
  <outline>
    <contour>
      <point x="20.0" y="742.0666666666667" type="line"/>
      <point x="20.0" y="1212.2666666666667" type="line"/>
      <point x="1320.1333333333334" y="1212.2666666666667" type="line"/>
      <point x="1320.1333333333334" y="742.0666666666667" type="line"/>
      <point x="978.1333333333333" y="742.0666666666667" type="line"/>
      <point x="978.1333333333333" y="0.0" type="line"/>
      <point x="364.0" y="0.0" type="line"/>
      <point x="364.0" y="742.0666666666667" type="line"/>
    </contour>
    <contour>
      <point x="1320.1333333333334" y="1456.0" type="line"/>
      <point x="1320.1333333333334" y="1299.2666666666667" type="line"/>
      <point x="20.0" y="1299.2666666666667" type="line"/>
      <point x="20.0" y="1456.0" type="line"/>
    </contour>
  </outline>
</glyph>
<glyph name="rupeeIndian" format="2">
  <advance width="999"/>
  <unicode hex="20B9"/>
  <outline>
    <contour>
      <point x="19.0" y="839.6666666666666" type="line"/>
      <point x="19.0" y="987.3333333333333" type="line"/>
      <point x="943.0" y="987.3333333333333" type="line"/>
      <point x="943.0" y="839.6666666666666" type="line"/>
    </contour>
    <contour>
      <point x="367.0" y="0.0" type="line"/>
      <point x="252.0" y="267.0" type="line" smooth="yes"/>
      <point x="214.0" y="356.0"/>
      <point x="132.93333333333334" y="442.5333333333333"/>
      <point x="62.0" y="445.66666666666663" type="qcurve" smooth="yes"/>
      <point x="19.0" y="447.66666666666663" type="line"/>
      <point x="19.0" y="779.3333333333334" type="line"/>
      <point x="128.0" y="779.3333333333334" type="line" smooth="yes"/>
      <point x="201.33333333333331" y="779.3333333333334"/>
      <point x="272.33333333333337" y="863.0"/>
      <point x="272.33333333333337" y="914.0" type="qcurve" smooth="yes"/>
      <point x="272.33333333333337" y="965.0"/>
      <point x="201.26666666666665" y="1049.3333333333333"/>
      <point x="133.0" y="1049.3333333333333" type="qcurve" smooth="yes"/>
      <point x="19.0" y="1049.3333333333333" type="line"/>
      <point x="19.0" y="1456.0" type="line"/>
      <point x="951.0" y="1456.0" type="line"/>
      <point x="951.0" y="1147.3333333333333" type="line"/>
      <point x="755.3333333333334" y="1147.3333333333333" type="line"/>
      <point x="688.6666666666666" y="1152.5333333333333" type="line"/>
      <point x="690.4666666666667" y="1147.5333333333333" type="line"/>
      <point x="774.6666666666666" y="1117.1333333333334"/>
      <point x="859.3333333333334" y="982.6666666666667"/>
      <point x="859.3333333333334" y="905.0" type="qcurve" smooth="yes"/>
      <point x="859.3333333333334" y="799.0"/>
      <point x="698.0" y="614.0666666666667"/>
      <point x="540.0" y="608.0" type="qcurve"/>
      <point x="627.0" y="601.0"/>
      <point x="825.5333333333333" y="423.1333333333333"/>
      <point x="891.3333333333334" y="293.0" type="qcurve" smooth="yes"/>
      <point x="1040.3333333333333" y="0.0" type="line"/>
    </contour>
  </outline>
</glyph>
<glyph name="liraTurkish" format="2">
  <advance width="1233"/>
  <unicode hex="20BA"/>
  <outline>
    <contour>
      <point x="6.0" y="437.6666666666667" type="line"/>
      <point x="6.0" y="599.3333333333334" type="line"/>
      <point x="724.0" y="915.3333333333334" type="line"/>
      <point x="718.0" y="754.6666666666666" type="line"/>
    </contour>
    <contour>
      <point x="38.66666666666666" y="0.0" type="line"/>
      <point x="38.66666666666666" y="1456.0" type="line"/>
      <point x="641.0" y="1456.0" type="line"/>
      <point x="641.0" y="441.6666666666667" type="line"/>
      <point x="654.0" y="441.6666666666667" type="line" smooth="yes"/>
      <point x="699.6666666666666" y="441.6666666666667"/>
      <point x="740.1333333333333" y="568.0"/>
      <point x="740.6666666666666" y="711.0" type="qcurve" smooth="yes"/>
      <point x="740.6666666666666" y="748.0" type="line"/>
      <point x="1243.7333333333333" y="748.0" type="line"/>
      <point x="1243.7333333333333" y="713.0" type="line" smooth="yes"/>
      <point x="1243.7333333333333" y="335.0"/>
      <point x="914.0" y="-3.333333333333334"/>
      <point x="547.0" y="-2.1333333333333337" type="qcurve" smooth="yes"/>
    </contour>
    <contour>
      <point x="6.0" y="678.6666666666666" type="line"/>
      <point x="6.0" y="840.3333333333334" type="line"/>
      <point x="724.0" y="1156.3333333333333" type="line"/>
      <point x="718.0" y="995.6666666666667" type="line"/>
    </contour>
  </outline>
</glyph>
<glyph name="trademark" format="2">
  <advance width="1917"/>
  <unicode hex="2122"/>
  <outline>
    <contour>
      <point x="4.0" y="1202.0" type="line"/>
      <point x="4.0" y="1447.0" type="line"/>
      <point x="689.0" y="1447.0" type="line"/>
      <point x="689.0" y="1202.0" type="line"/>
      <point x="509.3333333333333" y="1202.0" type="line"/>
      <point x="509.3333333333333" y="690.0" type="line"/>
      <point x="184.66666666666669" y="690.0" type="line"/>
      <point x="184.66666666666669" y="1202.0" type="line"/>
    </contour>
    <contour>
      <point x="738.6666666666666" y="690.0" type="line"/>
      <point x="738.6666666666666" y="1447.0" type="line"/>
      <point x="1190.6666666666667" y="1447.0" type="line"/>
      <point x="1266.6666666666667" y="1129.0" type="line"/>
      <point x="1267.3333333333333" y="1129.0" type="line"/>
      <point x="1343.3333333333333" y="1447.0" type="line"/>
      <point x="1793.3333333333333" y="1447.0" type="line"/>
      <point x="1793.3333333333333" y="690.0" type="line"/>
      <point x="1479.6666666666667" y="690.0" type="line"/>
      <point x="1481.6666666666667" y="1052.0" type="line"/>
      <point x="1481.3333333333333" y="1052.0" type="line"/>
      <point x="1406.3333333333333" y="690.0" type="line"/>
      <point x="1118.6666666666667" y="690.0" type="line"/>
      <point x="1043.6666666666665" y="1052.0" type="line"/>
      <point x="1042.3333333333335" y="1052.0" type="line"/>
      <point x="1044.3333333333335" y="690.0" type="line"/>
    </contour>
  </outline>
</glyph>
<glyph name="minus" format="2">
  <advance width="1135"/>
  <unicode hex="2212"/>
  <outline>
    <contour>
      <point x="56.0" y="426.73333333333335" type="line"/>
      <point x="56.0" y="921.2666666666667" type="line"/>
      <point x="1079.0" y="921.2666666666667" type="line"/>
      <point x="1079.0" y="426.73333333333335" type="line"/>
    </contour>
  </outline>
</glyph>
<glyph name="divisionslash" format="2">
  <advance width="995"/>
  <unicode hex="2215"/>
  <outline>
    <contour>
      <point x="-64.0" y="-117.4" type="line"/>
      <point x="552.0" y="1555.6" type="line"/>
      <point x="1059.0666666666666" y="1401.3333333333333" type="line"/>
      <point x="443.06666666666666" y="-271.66666666666663" type="line"/>
    </contour>
  </outline>
</glyph>
<glyph name="bulletoperator" format="2">
  <advance width="1024"/>
  <unicode hex="2219"/>
  <outline>
    <contour>
      <point x="190.4" y="673.0" type="qcurve" smooth="yes"/>
      <point x="190.4" y="802.0666666666667"/>
      <point x="371.8666666666667" y="993.6"/>
      <point x="512.0" y="993.6" type="qcurve" smooth="yes"/>
      <point x="652.1333333333333" y="993.6"/>
      <point x="833.6" y="802.0666666666667"/>
      <point x="833.6" y="673.0" type="qcurve" smooth="yes"/>
      <point x="833.6" y="546.9333333333333"/>
      <point x="652.1333333333333" y="355.4"/>
      <point x="512.0" y="355.4" type="qcurve" smooth="yes"/>
      <point x="371.8666666666667" y="355.4"/>
      <point x="190.4" y="546.9333333333333"/>
    </contour>
  </outline>
</glyph>
<glyph name="approxequal" format="2">
  <advance width="1135"/>
  <unicode hex="2248"/>
  <outline>
    <contour>
      <point x="56.0" y="663.0" type="qcurve"/>
      <point x="56.0" y="1124.0" type="line"/>
      <point x="108.0" y="1179.0"/>
      <point x="253.0" y="1242.0"/>
      <point x="324.0" y="1243.0" type="qcurve" smooth="yes"/>
      <point x="411.0" y="1244.0"/>
      <point x="512.0" y="1198.0"/>
      <point x="581.0" y="1164.0" type="qcurve" smooth="yes"/>
      <point x="645.0" y="1132.0"/>
      <point x="739.0" y="1089.0"/>
      <point x="820.0" y="1089.0" type="qcurve" smooth="yes"/>
      <point x="891.0" y="1089.0"/>
      <point x="1028.0" y="1162.0"/>
      <point x="1080.0" y="1227.0" type="qcurve"/>
      <point x="1080.0" y="765.0" type="line"/>
      <point x="1028.0" y="710.0"/>
      <point x="892.0" y="647.0"/>
      <point x="821.0" y="647.0" type="qcurve" smooth="yes"/>
      <point x="740.0" y="647.0"/>
      <point x="647.0" y="689.0"/>
      <point x="582.0" y="722.0" type="qcurve" smooth="yes"/>
      <point x="513.0" y="755.0"/>
      <point x="411.0" y="800.0"/>
      <point x="324.0" y="800.0" type="qcurve" smooth="yes"/>
      <point x="253.0" y="800.0"/>
      <point x="108.0" y="727.0"/>
    </contour>
    <contour>
      <point x="55.0" y="129.0" type="qcurve"/>
      <point x="55.0" y="591.0" type="line"/>
      <point x="107.0" y="646.0"/>
      <point x="251.0" y="707.0"/>
      <point x="323.0" y="709.0" type="qcurve" smooth="yes"/>
      <point x="409.0" y="710.0"/>
      <point x="510.0" y="663.0"/>
      <point x="580.0" y="630.0" type="qcurve" smooth="yes"/>
      <point x="644.0" y="598.0"/>
      <point x="738.0" y="556.0"/>
      <point x="819.0" y="556.0" type="qcurve" smooth="yes"/>
      <point x="890.0" y="556.0"/>
      <point x="1027.0" y="629.0"/>
      <point x="1079.0" y="693.0" type="qcurve"/>
      <point x="1079.0" y="231.0" type="line"/>
      <point x="1027.0" y="176.0"/>
      <point x="891.0" y="113.0"/>
      <point x="820.0" y="113.0" type="qcurve" smooth="yes"/>
      <point x="739.0" y="113.0"/>
      <point x="645.0" y="155.0"/>
      <point x="581.0" y="187.0" type="qcurve" smooth="yes"/>
      <point x="512.0" y="221.0"/>
      <point x="409.0" y="266.0"/>
      <point x="323.0" y="266.0" type="qcurve" smooth="yes"/>
      <point x="251.0" y="266.0"/>
      <point x="107.0" y="194.0"/>
    </contour>
  </outline>
</glyph>
<glyph name="notequal" format="2">
  <advance width="1135"/>
  <unicode hex="2260"/>
  <outline>
    <contour>
      <point x="1017.5333333333333" y="1393.9333333333334" type="line"/>
      <point x="796.5333333333333" y="941.9333333333333" type="line"/>
      <point x="762.1333333333333" y="872.2" type="line"/>
      <point x="516.1333333333333" y="368.2" type="line"/>
      <point x="497.3333333333333" y="285.46666666666664" type="line"/>
      <point x="292.3333333333333" y="-133.53333333333333" type="line"/>
      <point x="131.33333333333334" y="-51.66666666666666" type="line"/>
      <point x="317.3333333333333" y="329.3333333333333" type="line"/>
      <point x="357.3333333333333" y="410.3333333333333" type="line"/>
      <point x="599.3333333333334" y="905.3333333333334" type="line"/>
      <point x="611.8" y="973.8666666666667" type="line"/>
      <point x="856.8" y="1475.8666666666666" type="line"/>
    </contour>
    <contour>
      <point x="56.0" y="143.0" type="line"/>
      <point x="56.0" y="637.0" type="line"/>
      <point x="1079.0" y="637.0" type="line"/>
      <point x="1079.0" y="143.0" type="line"/>
    </contour>
    <contour>
      <point x="56.0" y="719.0" type="line"/>
      <point x="56.0" y="1213.0" type="line"/>
      <point x="1079.0" y="1213.0" type="line"/>
      <point x="1079.0" y="719.0" type="line"/>
    </contour>
  </outline>
</glyph>
<glyph name="lessequal" format="2">
  <advance width="1200"/>
  <unicode hex="2264"/>
  <outline>
    <contour>
      <point x="1111.0" y="27.0" type="line"/>
      <point x="88.0" y="437.0" type="line"/>
      <point x="88.0" y="911.0" type="line"/>
      <point x="1111.0" y="1331.0" type="line"/>
      <point x="1111.0" y="819.0" type="line"/>
      <point x="605.3333333333334" y="674.0" type="line"/>
      <point x="1111.0" y="539.0" type="line"/>
    </contour>
    <contour>
      <point x="109.0" y="1.0" type="line"/>
      <point x="109.0" y="307.33333333333337" type="line"/>
      <point x="1121.0" y="307.33333333333337" type="line"/>
      <point x="1121.0" y="1.0" type="line"/>
    </contour>
  </outline>
</glyph>
<glyph name="greaterequal" format="2">
  <advance width="925"/>
  <unicode hex="2265"/>
  <outline>
    <contour>
      <point x="42.0" y="27.0" type="line"/>
      <point x="42.0" y="539.0" type="line"/>
      <point x="435.66666666666663" y="684.0" type="line"/>
      <point x="42.0" y="819.0" type="line"/>
      <point x="42.0" y="1331.0" type="line"/>
      <point x="893.0" y="921.0" type="line"/>
      <point x="893.0" y="447.0" type="line"/>
    </contour>
    <contour>
      <point x="873.0" y="1.0" type="line"/>
      <point x="42.0" y="1.0" type="line"/>
      <point x="42.0" y="307.33333333333337" type="line"/>
      <point x="873.0" y="307.33333333333337" type="line"/>
    </contour>
  </outline>
</glyph>
<glyph name="brevecomb.case" format="2">
  <advance width="1024"/>
  <outline>
    <contour>
      <point x="725.2" y="2013.2" type="qcurve"/>
      <point x="987.0" y="1934.3333333333333" type="line"/>
      <point x="937.8" y="1796.3333333333333"/>
      <point x="690.7333333333333" y="1563.3333333333333"/>
      <point x="513.0" y="1563.3333333333333" type="qcurve" smooth="yes"/>
      <point x="353.3333333333333" y="1563.3333333333333"/>
      <point x="98.26666666666668" y="1777.3333333333333"/>
      <point x="39.0" y="1936.3333333333333" type="qcurve"/>
      <point x="313.8" y="2013.2" type="line"/>
      <point x="344.53333333333336" y="1974.0666666666666"/>
      <point x="448.6666666666667" y="1908.8666666666666"/>
      <point x="516.0" y="1908.8666666666666" type="qcurve" smooth="yes"/>
      <point x="589.4" y="1908.8666666666666"/>
      <point x="693.4666666666667" y="1972.0666666666666"/>
    </contour>
  </outline>
</glyph>
<glyph name="cedillacomb.case" format="2">
  <advance width="1024"/>
  <outline>
    <contour>
      <point x="381.93333333333334" y="42.666666666666664" type="line"/>
      <point x="648.9333333333333" y="42.666666666666664" type="line"/>
      <point x="610.8" y="-67.4" type="line"/>
      <point x="713.5333333333333" y="-79.26666666666667"/>
      <point x="850.5333333333333" y="-167.0"/>
      <point x="850.5333333333333" y="-269.2" type="qcurve" smooth="yes"/>
      <point x="850.5333333333333" y="-381.0"/>
      <point x="638.8" y="-512.6666666666667"/>
      <point x="271.1333333333333" y="-512.6666666666667" type="qcurve"/>
      <point x="257.4" y="-339.46666666666664" type="line"/>
      <point x="358.26666666666665" y="-339.26666666666665"/>
      <point x="440.1333333333333" y="-307.93333333333334"/>
      <point x="440.1333333333333" y="-274.1333333333333" type="qcurve" smooth="yes"/>
      <point x="440.1333333333333" y="-241.33333333333334"/>
      <point x="379.1333333333333" y="-218.66666666666666"/>
      <point x="304.6666666666667" y="-212.66666666666666" type="qcurve"/>
    </contour>
  </outline>
</glyph>
<glyph name="circumflexcomb.case" format="2">
  <advance width="1024"/>
  <outline>
    <contour>
      <point x="707.0" y="1970.0" type="line"/>
      <point x="940.0" y="1579.0" type="line"/>
      <point x="557.6666666666666" y="1579.0" type="line"/>
      <point x="506.0" y="1680.6666666666667" type="line"/>
      <point x="454.3333333333333" y="1579.0" type="line"/>
      <point x="76.0" y="1579.0" type="line"/>
      <point x="304.0" y="1970.0" type="line"/>
    </contour>
  </outline>
</glyph>
<glyph name="commaaccentcomb.case" format="2">
  <advance width="1024"/>
  <outline>
    <contour>
      <point x="173.66666666666666" y="-649.0" type="line"/>
      <point x="202.66666666666669" y="-545.0"/>
      <point x="252.66666666666669" y="-363.0"/>
      <point x="275.6666666666667" y="-235.0" type="qcurve"/>
      <point x="801.0" y="-233.0" type="line"/>
      <point x="660.0" y="-652.0" type="line"/>
    </contour>
  </outline>
</glyph>
<glyph name="diagonalbarL" format="2">
  <advance width="741"/>
  <outline>
    <contour>
      <point x="80.2" y="442.73333333333335" type="line"/>
      <point x="-2.5333333333333314" y="585.9333333333333" type="line"/>
      <point x="664.9333333333333" y="999.4666666666667" type="line"/>
      <point x="748.6666666666666" y="859.2666666666667" type="line"/>
    </contour>
  </outline>
</glyph>
<glyph name="dieresiscombstack.case" format="2">
  <advance width="1024"/>
  <outline>
    <contour>
      <point x="55.46666666666667" y="1794.0" type="qcurve" smooth="yes"/>
      <point x="55.46666666666667" y="1872.7333333333333"/>
      <point x="163.26666666666668" y="1981.5333333333333"/>
      <point x="269.0" y="1981.5333333333333" type="qcurve" smooth="yes"/>
      <point x="372.73333333333335" y="1981.5333333333333"/>
      <point x="481.53333333333336" y="1872.6666666666667"/>
      <point x="481.53333333333336" y="1794.0" type="qcurve" smooth="yes"/>
      <point x="481.53333333333336" y="1719.2666666666667"/>
      <point x="372.73333333333335" y="1612.4666666666667"/>
      <point x="269.0" y="1612.4666666666667" type="qcurve" smooth="yes"/>
      <point x="163.26666666666668" y="1612.4666666666667"/>
      <point x="55.46666666666667" y="1719.3333333333333"/>
    </contour>
    <contour>
      <point x="542.4666666666667" y="1792.0" type="qcurve" smooth="yes"/>
      <point x="542.4666666666667" y="1870.7333333333333"/>
      <point x="649.2666666666667" y="1979.5333333333333"/>
      <point x="754.0" y="1979.5333333333333" type="qcurve" smooth="yes"/>
      <point x="855.7333333333333" y="1979.5333333333333"/>
      <point x="967.5333333333333" y="1870.6666666666667"/>
      <point x="967.5333333333333" y="1792.0" type="qcurve" smooth="yes"/>
      <point x="967.5333333333333" y="1717.2666666666667"/>
      <point x="855.7333333333333" y="1610.4666666666667"/>
      <point x="754.0" y="1610.4666666666667" type="qcurve" smooth="yes"/>
      <point x="649.2666666666667" y="1610.4666666666667"/>
      <point x="542.4666666666667" y="1717.3333333333333"/>
    </contour>
  </outline>
</glyph>
<glyph name="dollar.rvrn" format="2">
	<advance width="1249"/>
	<outline>
		<contour>
			<point x="-4" y="387" type="qcurve" smooth="yes"/>
			<point x="-4" y="484" type="line"/>
			<point x="533.4" y="484" type="line"/>
			<point x="533.4" y="448.9" type="line" smooth="yes"/>
			<point x="532.4" y="400.9"/>
			<point x="577.5" y="355"/>
			<point x="618" y="355" type="qcurve" smooth="yes"/>
			<point x="648.6" y="355"/>
			<point x="686" y="381"/>
			<point x="686" y="411" type="qcurve" smooth="yes"/>
			<point x="686" y="441"/>
			<point x="643.5" y="472.4"/>
			<point x="478.5" y="525.4" type="qcurve" smooth="yes"/>
			<point x="241.5" y="601.4"/>
			<point x="2" y="803.1"/>
			<point x="2" y="1003" type="qcurve" smooth="yes"/>
			<point x="2" y="1231"/>
			<point x="338" y="1474"/>
			<point x="601" y="1474" type="qcurve" smooth="yes"/>
			<point x="867" y="1474"/>
			<point x="1206" y="1273"/>
			<point x="1206" y="1085" type="qcurve" smooth="yes"/>
			<point x="1206" y="1005" type="line"/>
			<point x="675.9" y="1005" type="line"/>
			<point x="675.9" y="1028" type="line" smooth="yes"/>
			<point x="675.9" y="1053.9"/>
			<point x="645.4" y="1086"/>
			<point x="615" y="1086" type="qcurve" smooth="yes"/>
			<point x="582.5" y="1086"/>
			<point x="560" y="1064"/>
			<point x="560" y="1048" type="qcurve" smooth="yes"/>
			<point x="560" y="1028"/>
			<point x="602.6" y="1008.5"/>
			<point x="800.5" y="955" type="qcurve" smooth="yes"/>
			<point x="1005.5" y="899.8"/>
			<point x="1242" y="687.8"/>
			<point x="1242" y="475" type="qcurve" smooth="yes"/>
			<point x="1242" y="237"/>
			<point x="897" y="-20"/>
			<point x="628" y="-20" type="qcurve" smooth="yes"/>
			<point x="359" y="-20"/>
			<point x="-4" y="186"/>
		</contour>
		<contour>
			<point x="384.9" y="-151" type="line"/>
			<point x="384.9" y="228" type="line"/>
			<point x="851" y="228" type="line"/>
			<point x="851" y="99" type="line"/>
			<point x="861" y="89" type="line"/>
			<point x="861" y="-151" type="line"/>
		</contour>
		<contour>
			<point x="394.9" y="1228" type="line"/>
			<point x="394.9" y="1356" type="line"/>
			<point x="384.9" y="1366" type="line"/>
			<point x="384.9" y="1606" type="line"/>
			<point x="860.9" y="1606" type="line"/>
			<point x="860.9" y="1228" type="line"/>
		</contour>
	</outline>
</glyph>
<glyph name="eight.prop" format="2">
  <advance width="1173"/>
  <outline>
    <contour>
      <point x="13.333333333333336" y="417.0" type="qcurve" smooth="yes"/>
      <point x="13.333333333333336" y="554.0"/>
      <point x="145.33333333333334" y="738.0666666666667"/>
      <point x="215.8" y="763.0" type="qcurve"/>
      <point x="215.8" y="767.0" type="line"/>
      <point x="131.26666666666668" y="817.0"/>
      <point x="47.53333333333333" y="972.0"/>
      <point x="47.53333333333333" y="1074.0" type="qcurve" smooth="yes"/>
      <point x="47.53333333333333" y="1253.0"/>
      <point x="324.06666666666666" y="1476.0"/>
      <point x="585.9333333333334" y="1476.0" type="qcurve" smooth="yes"/>
      <point x="848.8" y="1476.0"/>
      <point x="1124.4" y="1253.0"/>
      <point x="1124.4" y="1074.0" type="qcurve" smooth="yes"/>
      <point x="1124.4" y="972.0"/>
      <point x="1040.6666666666665" y="805.0"/>
      <point x="957.1333333333333" y="767.0" type="qcurve"/>
      <point x="957.1333333333333" y="763.0" type="line"/>
      <point x="1028.2" y="738.8"/>
      <point x="1158.6" y="554.0"/>
      <point x="1158.6" y="417.0" type="qcurve" smooth="yes"/>
      <point x="1158.6" y="226.0"/>
      <point x="849.9333333333333" y="-20.0"/>
      <point x="585.9333333333334" y="-20.0" type="qcurve" smooth="yes"/>
      <point x="322.0" y="-20.0"/>
      <point x="13.333333333333336" y="226.0"/>
    </contour>
    <contour>
      <point x="544.8" y="482.73333333333335" type="qcurve" smooth="yes"/>
      <point x="544.8" y="394.1333333333333"/>
      <point x="563.9333333333334" y="352.8"/>
      <point x="585.9333333333334" y="352.8" type="qcurve" smooth="yes"/>
      <point x="607.0" y="352.8"/>
      <point x="626.1333333333333" y="394.1333333333333"/>
      <point x="626.1333333333333" y="482.73333333333335" type="qcurve" smooth="yes"/>
      <point x="626.1333333333333" y="572.5333333333333"/>
      <point x="609.0" y="612.0666666666667"/>
      <point x="585.9333333333334" y="612.0666666666667" type="qcurve" smooth="yes"/>
      <point x="563.9333333333334" y="612.0666666666667"/>
      <point x="544.8" y="572.5333333333333"/>
    </contour>
    <contour>
      <point x="544.8" y="982.2666666666667" type="qcurve" smooth="yes"/>
      <point x="544.8" y="913.4"/>
      <point x="563.9333333333334" y="871.9333333333333"/>
      <point x="585.9333333333334" y="871.9333333333333" type="qcurve" smooth="yes"/>
      <point x="607.0" y="871.9333333333333"/>
      <point x="626.1333333333333" y="913.4"/>
      <point x="626.1333333333333" y="982.2666666666667" type="qcurve" smooth="yes"/>
      <point x="626.1333333333333" y="1050.8666666666666"/>
      <point x="607.0" y="1094.2"/>
      <point x="585.9333333333334" y="1094.2" type="qcurve" smooth="yes"/>
      <point x="563.9333333333334" y="1094.2"/>
      <point x="544.8" y="1050.8666666666666"/>
    </contour>
  </outline>
</glyph>
<glyph name="five.prop" format="2">
  <advance width="1199"/>
  <outline>
    <contour>
      <point x="9.866666666666667" y="460.4" type="qcurve" smooth="yes"/>
      <point x="9.866666666666667" y="566.5333333333333" type="line"/>
      <point x="535.4666666666667" y="563.5333333333333" type="line"/>
      <point x="535.4666666666667" y="480.53333333333336" type="line" smooth="yes"/>
      <point x="535.4666666666667" y="415.73333333333335"/>
      <point x="557.2666666666667" y="363.2"/>
      <point x="587.1333333333333" y="363.2" type="qcurve" smooth="yes"/>
      <point x="613.7333333333333" y="363.2"/>
      <point x="636.6" y="404.0"/>
      <point x="636.6" y="504.0" type="qcurve" smooth="yes"/>
      <point x="636.6" y="596.0"/>
      <point x="615.2" y="635.8"/>
      <point x="590.6" y="635.8" type="qcurve" smooth="yes"/>
      <point x="568.5333333333333" y="635.8"/>
      <point x="540.8" y="606.8"/>
      <point x="537.5333333333333" y="576.3333333333334" type="qcurve"/>
      <point x="23.333333333333336" y="648.8666666666667" type="line"/>
      <point x="95.46666666666667" y="1456.0" type="line"/>
      <point x="1102.7333333333333" y="1456.0" type="line"/>
      <point x="1102.7333333333333" y="991.1333333333334" type="line"/>
      <point x="475.06666666666666" y="1006.1333333333334" type="line"/>
      <point x="473.46666666666664" y="926.9333333333333" type="line"/>
      <point x="533.6666666666667" y="957.7333333333333"/>
      <point x="673.7333333333333" y="993.0"/>
      <point x="740.9333333333333" y="993.0" type="qcurve" smooth="yes"/>
      <point x="918.6666666666666" y="993.0"/>
      <point x="1167.0" y="768.2"/>
      <point x="1167.0" y="532.0" type="qcurve" smooth="yes"/>
      <point x="1167.0" y="283.0"/>
      <point x="879.1333333333333" y="-20.0"/>
      <point x="595.6666666666667" y="-20.0" type="qcurve" smooth="yes"/>
      <point x="338.6" y="-20.0"/>
      <point x="9.866666666666667" y="227.73333333333332"/>
    </contour>
  </outline>
</glyph>
<glyph name="ghe.bgr" format="2">
  <advance width="1213"/>
  <outline>
    <contour>
      <point x="1194.8" y="314.0" type="line"/>
      <point x="696.8" y="306.0" type="line"/>
      <point x="696.8" y="297.4" type="line" smooth="yes"/>
      <point x="696.8" y="265.4666666666667"/>
      <point x="660.8" y="246.33333333333334"/>
      <point x="621.8666666666667" y="246.33333333333334" type="qcurve" smooth="yes"/>
      <point x="583.6666666666667" y="246.33333333333334"/>
      <point x="558.2" y="260.33333333333337"/>
      <point x="558.2" y="270.26666666666665" type="qcurve" smooth="yes"/>
      <point x="558.2" y="281.3333333333333"/>
      <point x="582.9496073189066" y="295.73716250640666"/>
      <point x="762.2666666666667" y="320.46666666666664" type="qcurve" smooth="yes"/>
      <point x="1005.33520632582" y="354.3337740374467"/>
      <point x="1179.4" y="501.8666666666667"/>
      <point x="1179.4" y="631.6" type="qcurve" smooth="yes"/>
      <point x="1179.4" y="791.6666666666666"/>
      <point x="881.4666666666667" y="951.0"/>
      <point x="605.2" y="951.0" type="qcurve" smooth="yes"/>
      <point x="356.93333333333334" y="951.0"/>
      <point x="51.400000000000006" y="759.6"/>
      <point x="51.400000000000006" y="625.5333333333333" type="qcurve" smooth="yes"/>
      <point x="51.400000000000006" y="601.2" type="line"/>
      <point x="547.4" y="601.2" type="line"/>
      <point x="547.4" y="612.2666666666667" type="line" smooth="yes"/>
      <point x="547.4" y="637.6"/>
      <point x="583.0666666666666" y="655.6666666666666"/>
      <point x="622.2" y="655.6666666666666" type="qcurve" smooth="yes"/>
      <point x="656.6" y="655.6666666666666"/>
      <point x="683.3333333333334" y="645.0"/>
      <point x="683.3333333333334" y="631.7333333333333" type="qcurve" smooth="yes"/>
      <point x="683.3333333333334" y="617.5333333333333"/>
      <point x="638.4525218452" y="606.66333847338"/>
      <point x="467.93333333333334" y="590.2666666666667" type="qcurve" smooth="yes"/>
      <point x="228.32979056492667" y="566.8658330741"/>
      <point x="20.0" y="432.27619047619334"/>
      <point x="20.0" y="291.8666666666667" type="qcurve" smooth="yes"/>
      <point x="20.0" y="146.07486855941335"/>
      <point x="293.6" y="-27.0"/>
      <point x="605.8666666666667" y="-27.0" type="qcurve" smooth="yes"/>
      <point x="897.2666666666667" y="-27.0"/>
      <point x="1183.8" y="159.66666666666666"/>
      <point x="1193.8" y="298.1333333333333" type="qcurve" smooth="yes"/>
    </contour>
  </outline>
</glyph>
<glyph name="horncomb.case" format="2">
	<advance width="1024"/>
	<outline>
		<contour>
			<point x="382" y="1525" type="line"/>
			<point x="455" y="1525" type="line" smooth="yes"/>
			<point x="518" y="1525"/>
			<point x="593" y="1556"/>
			<point x="593" y="1613" type="qcurve" smooth="yes"/>
			<point x="593" y="1654"/>
			<point x="582" y="1727"/>
			<point x="573" y="1763" type="qcurve"/>
			<point x="715" y="1763" type="line"/>
			<point x="732" y="1732"/>
			<point x="766" y="1622"/>
			<point x="766" y="1563" type="qcurve" smooth="yes"/>
			<point x="766" y="1475"/>
			<point x="626" y="1388.6"/>
			<point x="530" y="1388.6" type="qcurve" smooth="yes"/>
			<point x="484" y="1388.6"/>
			<point x="408" y="1400.8"/>
			<point x="382" y="1410" type="qcurve"/>
		</contour>
	</outline>
</glyph>
<glyph name="macroncombstack.case" format="2">
  <advance width="1024"/>
  <outline>
    <contour>
      <point x="158.0" y="1617.6666666666667" type="line"/>
      <point x="158.0" y="1923.0" type="line"/>
      <point x="866.0" y="1923.0" type="line"/>
      <point x="866.0" y="1617.6666666666667" type="line"/>
    </contour>
  </outline>
</glyph>
<glyph name="ogonekcomb.case" format="2">
  <advance width="1024"/>
  <outline>
    <contour>
      <point x="162.0" y="-278.66666666666663" type="qcurve" smooth="yes"/>
      <point x="162.0" y="-189.66666666666666"/>
      <point x="322.0" y="-12.666666666666668"/>
      <point x="527.0" y="58.333333333333336" type="qcurve"/>
      <point x="743.3333333333334" y="-6.0" type="line"/>
      <point x="702.8" y="-34.8"/>
      <point x="632.7333333333333" y="-103.4"/>
      <point x="632.7333333333333" y="-143.86666666666667" type="qcurve" smooth="yes"/>
      <point x="632.7333333333333" y="-163.33333333333334"/>
      <point x="666.8" y="-187.2"/>
      <point x="705.0666666666667" y="-187.2" type="qcurve" smooth="yes"/>
      <point x="737.8666666666667" y="-187.2"/>
      <point x="788.4666666666667" y="-175.33333333333334"/>
      <point x="800.6" y="-169.66666666666666" type="qcurve"/>
      <point x="829.0" y="-445.0" type="line"/>
      <point x="782.0" y="-463.0"/>
      <point x="636.0" y="-495.6666666666667"/>
      <point x="523.5333333333333" y="-495.6666666666667" type="qcurve" smooth="yes"/>
      <point x="369.0" y="-495.6666666666667"/>
      <point x="162.0" y="-383.6666666666667"/>
    </contour>
  </outline>
</glyph>
<glyph name="ringcomb.case" format="2">
  <advance width="1024"/>
  <outline>
    <contour>
      <point x="198.2" y="1827.0" type="qcurve" smooth="yes"/>
      <point x="198.2" y="1950.3333333333333"/>
      <point x="378.6666666666667" y="2125.7333333333336"/>
      <point x="512.0" y="2125.7333333333336" type="qcurve" smooth="yes"/>
      <point x="643.3333333333334" y="2125.7333333333336"/>
      <point x="825.8" y="1950.3333333333333"/>
      <point x="825.8" y="1827.0" type="qcurve" smooth="yes"/>
      <point x="825.8" y="1700.6666666666667"/>
      <point x="643.3333333333334" y="1532.2666666666667"/>
      <point x="512.0" y="1532.2666666666667" type="qcurve"/>
      <point x="378.6666666666667" y="1532.2666666666667"/>
      <point x="198.2" y="1700.6666666666667"/>
    </contour>
    <contour>
      <point x="422.4" y="1828.0" type="qcurve" smooth="yes"/>
      <point x="422.4" y="1793.6"/>
      <point x="472.6" y="1740.4"/>
      <point x="512.0" y="1740.4" type="qcurve" smooth="yes"/>
      <point x="551.4" y="1740.4"/>
      <point x="601.6" y="1792.6666666666667"/>
      <point x="601.6" y="1828.0" type="qcurve" smooth="yes"/>
      <point x="601.6" y="1862.4"/>
      <point x="551.4" y="1916.6"/>
      <point x="512.0" y="1916.6" type="qcurve" smooth="yes"/>
      <point x="472.6666666666667" y="1916.6"/>
      <point x="422.4" y="1862.4"/>
    </contour>
  </outline>
</glyph>
<glyph name="soft.bgr" format="2">
  <advance width="1365"/>
  <outline>
    <contour>
      <point x="43.66666666666667" y="337.3333333333333" type="qcurve" smooth="yes"/>
      <point x="43.66666666666667" y="914.0" type="line"/>
      <point x="626.6666666666667" y="914.0" type="line"/>
      <point x="626.6666666666667" y="709.8" type="line"/>
      <point x="831.2" y="709.8" type="line" smooth="yes"/>
      <point x="1089.6666666666665" y="709.8"/>
      <point x="1345.8666666666668" y="513.0"/>
      <point x="1345.8666666666668" y="337.3333333333333" type="qcurve" smooth="yes"/>
      <point x="1345.8666666666668" y="153.66666666666666"/>
      <point x="1023.4" y="-40.0"/>
      <point x="693.4666666666667" y="-40.0" type="qcurve" smooth="yes"/>
      <point x="363.26666666666665" y="-40.0"/>
      <point x="43.66666666666667" y="153.68355795148"/>
    </contour>
    <contour>
      <point x="626.6666666666667" y="336.3333333333333" type="line" smooth="yes"/>
      <point x="626.6666666666667" y="291.66666666666663"/>
      <point x="660.6666666666667" y="254.06666666666666"/>
      <point x="693.4666666666667" y="254.06666666666666" type="qcurve" smooth="yes"/>
      <point x="730.8666666666667" y="254.06666666666666"/>
      <point x="760.5333333333333" y="293.66666666666663"/>
      <point x="760.5333333333333" y="336.3333333333333" type="qcurve" smooth="yes"/>
      <point x="760.5333333333333" y="376.9015576324"/>
      <point x="726.8666666666667" y="415.2"/>
      <point x="685.2" y="415.2" type="qcurve" smooth="yes"/>
      <point x="626.6666666666667" y="415.2" type="line"/>
    </contour>
  </outline>
</glyph>
<glyph name="tildecomb.case" format="2">
  <advance width="1024"/>
  <outline>
    <contour>
      <point x="8.866666666666674" y="1777.2666666666667" type="line"/>
      <point x="52.46666666666667" y="1890.4"/>
      <point x="231.66666666666669" y="2064.0"/>
      <point x="324.3333333333333" y="2064.0" type="qcurve" smooth="yes"/>
      <point x="379.26666666666665" y="2064.0"/>
      <point x="478.4" y="2039.3333333333333"/>
      <point x="527.4666666666667" y="2016.6" type="qcurve" smooth="yes"/>
      <point x="573.0666666666667" y="1995.3333333333333"/>
      <point x="675.5333333333333" y="1952.1333333333334"/>
      <point x="726.2" y="1952.1333333333334" type="qcurve" smooth="yes"/>
      <point x="780.2" y="1952.1333333333334"/>
      <point x="872.9333333333333" y="2002.8666666666666"/>
      <point x="901.8666666666667" y="2038.6666666666667" type="qcurve"/>
      <point x="1012.0" y="1841.0" type="line"/>
      <point x="963.8666666666667" y="1718.1333333333334"/>
      <point x="803.7333333333333" y="1586.3333333333333"/>
      <point x="710.1333333333333" y="1586.3333333333333" type="qcurve" smooth="yes"/>
      <point x="643.8666666666667" y="1586.3333333333333"/>
      <point x="519.3333333333334" y="1630.6"/>
      <point x="478.2" y="1647.2666666666667" type="qcurve" smooth="yes"/>
      <point x="433.2" y="1665.8666666666666"/>
      <point x="342.2" y="1702.9333333333334"/>
      <point x="304.26666666666665" y="1702.9333333333334" type="qcurve" smooth="yes"/>
      <point x="243.46666666666664" y="1702.9333333333334"/>
      <point x="136.2" y="1628.4"/>
      <point x="112.26666666666668" y="1599.6" type="qcurve"/>
    </contour>
  </outline>
</glyph>
<glyph name="tildecombstack.case" format="2">
	<advance width="1024"/>
	<outline>
		<contour>
			<point x="173" y="1776" type="line"/>
			<point x="213" y="1848"/>
			<point x="337" y="1922"/>
			<point x="404" y="1922" type="qcurve" smooth="yes"/>
			<point x="439" y="1922"/>
			<point x="512" y="1900"/>
			<point x="548" y="1874" type="qcurve" smooth="yes"/>
			<point x="578" y="1852"/>
			<point x="644" y="1817"/>
			<point x="676" y="1817" type="qcurve" smooth="yes"/>
			<point x="716" y="1817"/>
			<point x="763" y="1857"/>
			<point x="784" y="1896" type="qcurve"/>
			<point x="878" y="1805" type="line"/>
			<point x="846" y="1731"/>
			<point x="732" y="1657"/>
			<point x="667" y="1657" type="qcurve" smooth="yes"/>
			<point x="618" y="1657"/>
			<point x="536" y="1692"/>
			<point x="506" y="1712" type="qcurve" smooth="yes"/>
			<point x="475" y="1733"/>
			<point x="411" y="1770"/>
			<point x="387" y="1770" type="qcurve" smooth="yes"/>
			<point x="351" y="1770"/>
			<point x="290" y="1715"/>
			<point x="271" y="1685" type="qcurve"/>
		</contour>
	</outline>
</glyph>
<glyph name="ve.bgr" format="2">
	<advance width="1358"/>
	<outline>
		<contour>
			<point x="30" y="498" type="qcurve" smooth="yes"/>
			<point x="30" y="945" type="line" smooth="yes"/>
			<point x="30" y="1179"/>
			<point x="335" y="1486"/>
			<point x="712" y="1486" type="qcurve" smooth="yes"/>
			<point x="1020" y="1486"/>
			<point x="1330" y="1283"/>
			<point x="1330" y="1099" type="qcurve" smooth="yes"/>
			<point x="1330" y="972"/>
			<point x="1196" y="798"/>
			<point x="1084" y="761" type="qcurve"/>
			<point x="1084" y="757" type="line"/>
			<point x="1201" y="729"/>
			<point x="1348" y="574"/>
			<point x="1348" y="447" type="qcurve" smooth="yes"/>
			<point x="1348" y="229"/>
			<point x="1013" y="-27"/>
			<point x="691" y="-27" type="qcurve" smooth="yes"/>
			<point x="334" y="-27"/>
			<point x="30" y="248"/>
		</contour>
		<contour>
			<point x="680" y="1126" type="qcurve" smooth="yes"/>
			<point x="646" y="1126"/>
			<point x="610" y="1081"/>
			<point x="610" y="1030" type="qcurve" smooth="yes"/>
			<point x="610" y="929" type="line"/>
			<point x="659" y="929" type="line" smooth="yes"/>
			<point x="710" y="929"/>
			<point x="749" y="978"/>
			<point x="749" y="1029" type="qcurve" smooth="yes"/>
			<point x="749" y="1083"/>
			<point x="712" y="1126"/>
		</contour>
		<contour>
			<point x="610" y="456" type="line" smooth="yes"/>
			<point x="610" y="389"/>
			<point x="650" y="333"/>
			<point x="691" y="333" type="qcurve" smooth="yes"/>
			<point x="724" y="333"/>
			<point x="767" y="392"/>
			<point x="767" y="455" type="qcurve" smooth="yes"/>
			<point x="767" y="511"/>
			<point x="727" y="569"/>
			<point x="673" y="569" type="qcurve" smooth="yes"/>
			<point x="610" y="569" type="line"/>
		</contour>
	</outline>
</glyph>
<glyph name="ze.bgr" format="2">
	<advance width="1248"/>
	<outline>
		<contour>
			<point x="11" y="-31" type="qcurve" smooth="yes"/>
			<point x="10" y="0" type="line"/>
			<point x="494" y="0" type="line"/>
			<point x="494" y="-13" type="line" smooth="yes"/>
			<point x="494" y="-37.7037037037"/>
			<point x="530" y="-71"/>
			<point x="572" y="-71" type="qcurve" smooth="yes"/>
			<point x="620" y="-71"/>
			<point x="660" y="-26"/>
			<point x="660" y="7" type="qcurve" smooth="yes"/>
			<point x="660" y="42"/>
			<point x="618" y="75"/>
			<point x="572" y="75" type="qcurve" smooth="yes"/>
			<point x="397" y="75" type="line"/>
			<point x="397" y="415" type="line"/>
			<point x="548" y="415" type="line" smooth="yes"/>
			<point x="599" y="415"/>
			<point x="641" y="449"/>
			<point x="641" y="487" type="qcurve" smooth="yes"/>
			<point x="641" y="528"/>
			<point x="606" y="563"/>
			<point x="570" y="563" type="qcurve" smooth="yes"/>
			<point x="528" y="563"/>
			<point x="495" y="528"/>
			<point x="495" y="499" type="qcurve" smooth="yes"/>
			<point x="495" y="489" type="line"/>
			<point x="10" y="489" type="line"/>
			<point x="12" y="518" type="line" smooth="yes"/>
			<point x="25" y="713"/>
			<point x="342" y="952"/>
			<point x="647" y="952" type="qcurve" smooth="yes"/>
			<point x="924.0785340314" y="952"/>
			<point x="1210" y="765"/>
			<point x="1210" y="594" type="qcurve" smooth="yes"/>
			<point x="1210" y="477"/>
			<point x="1081.8387471345" y="314.736762523"/>
			<point x="974" y="282" type="qcurve"/>
			<point x="974" y="278" type="line"/>
			<point x="1091" y="252"/>
			<point x="1238" y="109"/>
			<point x="1238" y="-9" type="qcurve" smooth="yes"/>
			<point x="1238" y="-208"/>
			<point x="913" y="-447"/>
			<point x="602" y="-447" type="qcurve" smooth="yes"/>
			<point x="303" y="-447"/>
			<point x="17.0581921645" y="-218.803957101"/>
		</contour>
	</outline>
	<guideline x="560" y="-430" angle="0" identifier="zadeUdKR9h"/>
</glyph>
